SplineFontDB: 3.0
FontName: FreeSansBoldOblique
FullName: FreeSans Bold Oblique
FamilyName: FreeSans
Weight: Bold
Copyright: Copyright 2002, 2003, 2005, 2008, 2009, 2010, 2012 GNU Freefont contributors.
Version: $Revision: 2268 $
ItalicAngle: -12
UnderlinePosition: -111
UnderlineWidth: 69
Ascent: 800
Descent: 200
LayerCount: 2
Layer: 0 0 "Back"  1
Layer: 1 0 "Fore"  0
FSType: 0
OS2Version: 3
OS2_WeightWidthSlopeOnly: 0
OS2_UseTypoMetrics: 1
CreationTime: 1203284335
ModificationTime: 1335896758
PfmFamily: 33
TTFWeight: 600
TTFWidth: 5
LineGap: 100
VLineGap: 0
Panose: 2 11 7 4 2 2 2 9 2 4
OS2TypoAscent: 0
OS2TypoAOffset: 1
OS2TypoDescent: 0
OS2TypoDOffset: 1
OS2TypoLinegap: 100
OS2WinAscent: -176
OS2WinAOffset: 1
OS2WinDescent: 300
OS2WinDOffset: 0
HheadAscent: -176
HheadAOffset: 1
HheadDescent: 113
HheadDOffset: 1
OS2SubXSize: 650
OS2SubYSize: 666
OS2SubXOff: 0
OS2SubYOff: 200
OS2SupXSize: 650
OS2SupYSize: 666
OS2SupXOff: 0
OS2SupYOff: 390
OS2StrikeYSize: 49
OS2StrikeYPos: 258
OS2FamilyClass: 2053
OS2Vendor: 'GNU '
Lookup: 2 0 0 "Glyph Decomposition of iogonek"  {"Glyph Decomposition of iogonek-subtable"  } []
Lookup: 6 0 0 "'ccmp' Contextual Chaining in Latin - iogonek"  {"'ccmp' Contextual Chaining in Latin - iogonek-subtable"  } ['ccmp' ('DFLT' <'dflt' > 'latn' <'dflt' > ) ]
Lookup: 4 0 0 "'ccmp' Glyph Composition/Decomposition in Latin - i"  {"'ccmp' Glyph Composition/Decomposition in Latin - i-subtable"  } ['ccmp' ('DFLT' <'dflt' > 'latn' <'dflt' > ) ]
Lookup: 4 0 0 "'liga' Standard Ligatures in Latin"  {"'liga' Standard Ligatures in Latin-commaright"  } ['liga' ('latn' <'dflt' > ) ]
Lookup: 4 0 0 "'ccmp' Glyph Composition in Latin for Viet 1"  {"'ccmp' Glyph Composition in Latin for Viet horn"  "'ccmp' Glyph Composition in Latin for Viet 1 subtable"  } ['ccmp' ('latn' <'dflt' > ) ]
Lookup: 4 0 0 "'ccmp' Glyph Composition in Latin for Viet 2"  {"'ccmp' Glyph Composition in Latin for Viet 2 subtable"  } ['ccmp' ('latn' <'dflt' > ) ]

StartChar: exclam
Encoding: 33 33 1
Width: 333
Flags: MW
LayerCount: 2
Fore
SplineSet
417 726 m 1
 372 516 l 1
 265 207 l 1
 198 207 l 1
 222 516 l 1
 267 726 l 1
 417 726 l 1
293 146 m 1
 262 0 l 1
 112 0 l 1
 143 146 l 1
 293 146 l 1
EndSplineSet
Validated: 1
EndChar

StartChar: numbersign
Encoding: 35 35 3
Width: 556
Flags: MW
LayerCount: 2
Fore
SplineSet
138 -32 m 1
 33 -32 l 1
 116 172 l 1
 39 172 l 1
 60 272 l 1
 157 272 l 1
 219 424 l 1
 120 424 l 1
 142 524 l 1
 260 524 l 1
 331 697 l 1
 437 697 l 1
 365 524 l 1
 468 524 l 1
 539 697 l 1
 645 697 l 1
 573 524 l 1
 660 524 l 1
 639 424 l 1
 533 424 l 1
 471 272 l 1
 570 272 l 1
 549 172 l 1
 430 172 l 1
 346 -32 l 1
 241 -32 l 1
 324 172 l 1
 222 172 l 1
 138 -32 l 1
262 272 m 1
 365 272 l 1
 427 424 l 1
 325 424 l 1
 262 272 l 1
EndSplineSet
Validated: 1
EndChar

StartChar: dollar
Encoding: 36 36 4
Width: 556
Flags: HMW
LayerCount: 2
Fore
SplineSet
461 709 m 1
 531 703 628 678 628 547 c 0
 628 532 627 520 623 498 c 1
 495 498 l 1
 497 517 498 526 498 538 c 0
 498 576 476 602 440 608 c 1
 397 407 l 1
 482 381 573 339 573 237 c 0
 573 171.953 539.039 3.96847 306 -21 c 5
 284 -126 l 1
 216 -126 l 1
 239 -21 l 1
 123 -9 59 51 59 148 c 0
 59 166 61 182 67 207 c 1
 197 207 l 1
 196 188 196 181 196 174 c 0
 196 123 217 95 261 86 c 1
 307 299 l 1
 196 327 142 384 142 475 c 0
 142 531 176 688 394 709 c 1
 405 763 l 1
 473 763 l 1
 461 709 l 1
372 608 m 1
 280 590 272 522 272 501 c 0
 272 468 293 443 334 427 c 1
 372 608 l 1
371 282 m 1
 329 86 l 1
 393 101 430 142 430 198 c 0
 430 238 410 266 371 282 c 1
EndSplineSet
Validated: 3073
EndChar

StartChar: percent
Encoding: 37 37 5
Width: 889
Flags: MW
LayerCount: 2
Fore
SplineSet
756 709 m 1
 833 709 l 1
 282 -20 l 1
 206 -20 l 1
 756 709 l 1
352 701 m 0
 441 701 505 640 505 557 c 0
 505 442 398 337 280 337 c 0
 194 337 129 399 129 482 c 0
 129 595 237 701 352 701 c 0
331 603 m 0
 278 603 229 554 229 501 c 0
 229 464 261 435 302 435 c 0
 356 435 405 483 405 536 c 0
 405 574 373 603 331 603 c 0
750 344 m 0
 839 344 903 283 903 200 c 0
 903 85 796 -20 678 -20 c 0
 592 -20 527 42 527 125 c 0
 527 238 635 344 750 344 c 0
729 246 m 0
 676 246 627 197 627 144 c 0
 627 107 659 78 700 78 c 0
 754 78 803 126 803 179 c 0
 803 217 771 246 729 246 c 0
EndSplineSet
Validated: 1
EndChar

StartChar: ampersand
Encoding: 38 38 6
Width: 722
Flags: MW
LayerCount: 2
Fore
SplineSet
624 605 m 0
 624 477 505 415 465 392 c 1
 547 255 l 1
 581 286 596 316 607 373 c 1
 720 373 l 1
 709 300 661 213 602 160 c 1
 696 0 l 1
 536 0 l 1
 499 60 l 1
 407 -6 364 -23 287 -23 c 0
 163 -23 89 44 89 156 c 0
 89 257 145 330 299 401 c 1
 263 452 246 492 246 523 c 0
 246 630 351 723 471 723 c 0
 562 723 624 676 624 605 c 0
347 319 m 1
 295 290 l 2
 246 262 226 233 226 187 c 0
 226 135 266 93 315 93 c 0
 349 93 380 107 446 152 c 1
 347 319 l 1
419 470 m 1
 471 497 499 533 499 574 c 0
 499 599 480 615 448 615 c 0
 410 615 383 589 383 552 c 0
 383 534 388 524 419 470 c 1
EndSplineSet
Validated: 1
EndChar

StartChar: quotesingle
Encoding: 39 39 7
Width: 238
Flags: MW
LayerCount: 2
Fore
SplineSet
343 729 m 1
 315 599 l 1
 245 470 l 1
 190 470 l 1
 177 599 l 1
 205 729 l 1
 343 729 l 1
EndSplineSet
Validated: 1
EndChar

StartChar: parenleft
Encoding: 40 40 8
Width: 333
Flags: MW
LayerCount: 2
Fore
SplineSet
458 729 m 1
 306 521 203 343 203 112 c 0
 203 20 217 -56 261 -200 c 1
 161 -200 l 1
 110 -83 84 25 84 122 c 0
 84 324 168 510 358 729 c 1
 458 729 l 1
EndSplineSet
Validated: 1
EndChar

StartChar: asterisk
Encoding: 42 42 10
Width: 389
Flags: MW
LayerCount: 2
Fore
SplineSet
246 544 m 1
 145 580 l 1
 182 649 l 1
 283 613 l 1
 307 729 l 1
 379 729 l 1
 354 613 l 1
 471 649 l 1
 478 579 l 1
 362 544 l 1
 409 450 l 1
 342 407 l 1
 295 501 l 1
 208 407 l 1
 159 450 l 1
 246 544 l 1
EndSplineSet
Validated: 1
EndChar

StartChar: plus
Encoding: 43 43 11
Width: 584
Flags: MW
LayerCount: 2
Fore
SplineSet
596 292 m 1
 571 172 l 1
 388 172 l 1
 349 -10 l 1
 230 -10 l 1
 269 172 l 1
 87 172 l 1
 112 292 l 1
 294 292 l 1
 333 473 l 1
 452 473 l 1
 413 292 l 1
 596 292 l 1
EndSplineSet
Validated: 1
EndChar

StartChar: comma
Encoding: 44 44 12
Width: 278
Flags: MW
LayerCount: 2
Fore
SplineSet
95 146 m 1
 245 146 l 1
 216 9 l 1
 197 -101 137 -158 27 -174 c 1
 39 -118 l 1
 101 -107 137 -68 150 0 c 1
 64 0 l 1
 95 146 l 1
EndSplineSet
Validated: 1
EndChar

StartChar: hyphen
Encoding: 45 45 13
Width: 333
Flags: MW
LayerCount: 2
Fore
SplineSet
371 342 m 1
 342 207 l 1
 70 207 l 1
 99 342 l 1
 371 342 l 1
EndSplineSet
Validated: 1
EndChar

StartChar: period
Encoding: 46 46 14
Width: 278
Flags: MW
LayerCount: 2
Fore
SplineSet
245 146 m 1
 214 0 l 1
 64 0 l 1
 95 146 l 1
 245 146 l 1
EndSplineSet
Validated: 1
EndChar

StartChar: slash
Encoding: 47 47 15
Width: 278
Flags: MW
LayerCount: 2
Fore
SplineSet
360 714 m 1
 427 714 l 1
 66 -14 l 1
 -1 -14 l 1
 360 714 l 1
EndSplineSet
Validated: 1
EndChar

StartChar: zero
Encoding: 48 48 16
Width: 556
Flags: HMW
AnchorPoint: "middle" 347 358 basechar 0
LayerCount: 2
Fore
SplineSet
421 724 m 4
 541 724 614 649 614 526 c 0
 614 439.38 575.448 -23 271 -23 c 0
 153 -23 81 53 81 176 c 0
 81 261.493 120.683 724 421 724 c 4
394 612 m 0
 359 612 330 593 306 555 c 0
 273 502 224 280 224 183 c 0
 224 132 254 99 300 99 c 0
 359 99 393 138 421 237 c 0
 448 332 471 466 471 528 c 0
 471 579 441 612 394 612 c 0
EndSplineSet
Validated: 3073
EndChar

StartChar: one
Encoding: 49 49 17
Width: 556
Flags: HMW
AnchorPoint: "middle" 347 358 basechar 0
LayerCount: 2
Fore
SplineSet
342 489 m 1
 172 489 l 1
 192 582 l 1
 314 582 396 625 436 709 c 1
 529 709 l 1
 378 0 l 1
 238 0 l 1
 342 489 l 1
EndSplineSet
Validated: 3073
EndChar

StartChar: two
Encoding: 50 50 18
Width: 556
Flags: HMW
AnchorPoint: "middle" 347 358 basechar 0
LayerCount: 2
Fore
SplineSet
628 552 m 0
 628 312 314 237 238 125 c 1
 538 125 l 1
 512 0 l 1
 30 0 l 1
 103 275 290 254 431 404 c 0
 465 438 485 486 485 532 c 0
 485 582 453 612 399 612 c 0
 330 612 285 559 272 462 c 1
 138 462 l 1
 164 630 266 724 421 724 c 4
 551 724 628 660 628 552 c 0
EndSplineSet
Validated: 3073
EndChar

StartChar: three
Encoding: 51 51 19
Width: 556
Flags: HMW
AnchorPoint: "middle" 347 358 basechar 0
LayerCount: 2
Fore
SplineSet
422 230 m 0
 422 304 377 317 284 317 c 1
 304 411 l 1
 316 411 l 2
 406 411 465 463 465 542 c 0
 465 583 433 612 388 612 c 0
 291 612 278 515 271 486 c 1
 142 486 l 1
 173 649 259 724 413 724 c 0
 540 724 613 669 613 573 c 0
 613 494 573 429 493 380 c 1
 542 350 565 311 565 257 c 0
 565 100 453 -23 272 -23 c 0
 142 -23 67 41 67 151 c 0
 67 170 69 185 73 208 c 1
 209 208 l 1
 209 176 l 2
 210 127 243 99 300 99 c 0
 367 99 422 159 422 230 c 0
EndSplineSet
Validated: 3073
EndChar

StartChar: four
Encoding: 52 52 20
Width: 556
Flags: HMW
AnchorPoint: "middle" 347 358 basechar 0
LayerCount: 2
Fore
SplineSet
580 273 m 1
 555 157 l 1
 482 157 l 1
 448 0 l 1
 308 0 l 1
 342 157 l 1
 57 157 l 1
 82 275 l 1
 434 709 l 1
 599 709 l 1
 506 273 l 1
 580 273 l 1
366 273 m 1
 431 577 l 1
 182 273 l 1
 366 273 l 1
EndSplineSet
Validated: 3073
EndChar

StartChar: five
Encoding: 53 53 21
Width: 556
Flags: HMW
AnchorPoint: "middle" 347 358 basechar 0
LayerCount: 2
Fore
SplineSet
572 300 m 0
 572 233 521 -23 259 -23 c 0
 139 -23 59 42 59 141 c 0
 59 154 60 165 64 185 c 1
 202 185 l 1
 201 176 200 168 200 163 c 0
 200 124 235 99 288 99 c 0
 369 99 429 175 429 276 c 0
 429 334 397 367 339 367 c 0
 297 367 260 348 238 314 c 1
 112 314 l 1
 258 709 l 1
 641 709 l 1
 614 584 l 1
 318 584 l 1
 264 436 l 1
 311 467 349 479 396 479 c 0
 505 479 572 410 572 300 c 0
EndSplineSet
Validated: 3073
EndChar

StartChar: six
Encoding: 54 54 22
Width: 556
Flags: HMW
AnchorPoint: "middle" 347 358 basechar 0
LayerCount: 2
Fore
SplineSet
85 171 m 0
 85 282 139 724 443 724 c 0
 556 724 625 666 625 571 c 0
 625 566 625 557 624 548 c 1
 494 548 l 1
 485 594 462 612 414 612 c 0
 327 612 297 547 260 411 c 1
 310 449 357 467 409 467 c 0
 514 467 577 404 577 300 c 0
 577 221 518 -23 284 -23 c 0
 163 -23 85 53 85 171 c 0
352 355 m 0
 278 355 215 278 215 188 c 0
 215 136 250 99 301 99 c 0
 374 99 434 176 434 269 c 0
 434 320 401 355 352 355 c 0
EndSplineSet
Validated: 3073
EndChar

StartChar: seven
Encoding: 55 55 23
Width: 556
Flags: HMW
AnchorPoint: "middle" 347 358 basechar 0
LayerCount: 2
Fore
SplineSet
679 709 m 1
 656 599 l 1
 504.051 442.71 356.262 300.057 273 0 c 5
 131 0 l 1
 211 242 309 396 504 584 c 1
 151 584 l 1
 178 709 l 1
 679 709 l 1
EndSplineSet
Validated: 3073
EndChar

StartChar: eight
Encoding: 56 56 24
Width: 556
Flags: HMW
AnchorPoint: "middle" 347 358 basechar 0
LayerCount: 2
Fore
SplineSet
620 570 m 0
 620 460 524 405 491 386 c 1
 552 349 575 313 575 253 c 0
 575 137.299 477.466 -23 276 -23 c 4
 143 -23 60 46 60 155 c 0
 60 302 180 365 221 386 c 1
 174 422 156 452 156 495 c 0
 156 620 277 724 422 724 c 0
 539 724 620 661 620 570 c 0
398 612 m 0
 331 612 278 563 278 500 c 0
 278 455 312 425 363 425 c 0
 433 425 490 476 490 540 c 0
 490 583 453 612 398 612 c 0
342 330 m 0
 264 330 203 264 203 180 c 0
 203 133 243 99 297 99 c 0
 376 99 432 161 432 247 c 0
 432 298 397 330 342 330 c 0
EndSplineSet
Validated: 3073
EndChar

StartChar: nine
Encoding: 57 57 25
Width: 556
Flags: HMW
AnchorPoint: "middle" 339 358 basechar 0
LayerCount: 2
Fore
SplineSet
611 519 m 0
 611 417 557 -23 248 -23 c 0
 141 -23 68 40 68 132 c 0
 68 142 69 149 72 165 c 1
 207 165 l 1
 207 153 l 2
 207 121 238 99 285 99 c 0
 347 99 400 132 436 291 c 1
 380 243 345 228 289 228 c 0
 185 228 120 295 120 403 c 0
 120 582 249 724 413 724 c 0
 533 724 611 643 611 519 c 0
389 612 m 0
 315 612 257 532 257 431 c 0
 257 378 288 344 337 344 c 0
 417 344 481 422 481 519 c 0
 481 576 445 612 389 612 c 0
EndSplineSet
Validated: 3073
EndChar

StartChar: less
Encoding: 60 60 28
Width: 584
Flags: MW
LayerCount: 2
Fore
SplineSet
630 474 m 1
 603 345 l 1
 263 232 l 1
 555 121 l 1
 527 -10 l 1
 77 172 l 1
 103 293 l 1
 630 474 l 1
EndSplineSet
Validated: 1
EndChar

StartChar: equal
Encoding: 61 61 29
Width: 584
Flags: MW
LayerCount: 2
Fore
SplineSet
622 412 m 1
 597 292 l 1
 112 292 l 1
 137 412 l 1
 622 412 l 1
571 172 m 1
 546 52 l 1
 61 52 l 1
 86 172 l 1
 571 172 l 1
EndSplineSet
Validated: 1
EndChar

StartChar: question
Encoding: 63 63 31
Width: 611
Flags: MW
LayerCount: 2
Fore
SplineSet
456 744 m 4
 629 744 672 637 672 566 c 4
 672 413 550 347 505 320 c 4
 437 278 428 267 414 201 c 5
 292 201 l 5
 310 393 529 394 529 533 c 4
 529 584 491 620 438 620 c 4
 370 620 321 569 304 481 c 5
 168 481 l 5
 181 540 226 744 456 744 c 4
418 146 m 5
 387 0 l 5
 237 0 l 5
 268 146 l 5
 418 146 l 5
EndSplineSet
Validated: 1
EndChar

StartChar: at
Encoding: 64 64 32
Width: 975
Flags: HMW
LayerCount: 2
Fore
SplineSet
624 518 m 0
 680 518 707 496 720 446 c 1
 749 508 l 1
 842 508 l 1
 704 228 l 2
 689.17 197.909 687.575 190.5 687.575 176.063 c 0
 687.575 154.744 700.915 142 727 142 c 0
 794 142 935 264 935 415 c 0
 935 549 809 658 651 658 c 0
 433 658 179 437 179 204 c 0
 179 46 316 -55 474 -55 c 0
 546 -55 625 -40 689 -14 c 1
 701 -92 l 1
 624 -124 549 -138 455 -138 c 0
 210 -138 74 -2 74 180 c 0
 74 494 401 745 674 745 c 0
 891 745 1032 630 1032 444 c 0
 1032 214 836 56 709 56 c 0
 639 56 604 90 599 129 c 1
 550 82 489 56 434 56 c 0
 355 56 302 112 302 189 c 0
 302 279 412 518 624 518 c 0
474 140 m 0
 564 140 669 280 669 379 c 0
 669 421 647 444 605 444 c 0
 526 444 410 331 410 213 c 0
 410 170 433 140 474 140 c 0
EndSplineSet
Validated: 3073
EndChar

StartChar: A
Encoding: 65 65 33
Width: 722
Flags: MW
AnchorPoint: "middle" 423 252 basechar 0
AnchorPoint: "ogonek" 659 0 basechar 0
AnchorPoint: "below" 375 0 basechar 0
AnchorPoint: "above" 519 723 basechar 0
LayerCount: 2
Fore
SplineSet
532 147 m 1
 260 147 l 1
 179 0 l 1
 26 0 l 1
 433 729 l 1
 606 729 l 1
 703 0 l 1
 550 0 l 1
 532 147 l 1
518 272 m 1
 483 555 l 1
 329 272 l 1
 518 272 l 1
EndSplineSet
Validated: 3073
EndChar

StartChar: B
Encoding: 66 66 34
Width: 722
Flags: HMW
AnchorPoint: "middle" 446 383 basechar 0
AnchorPoint: "below" 375 0 basechar 0
AnchorPoint: "above" 519 723 basechar 0
LayerCount: 2
Fore
SplineSet
562 729 m 2
 723 729 762 638 762 571 c 0
 762 502 721 438 645 388 c 1
 696 348 716 310 716 255 c 0
 716 200.573 674.323 0 410 0 c 6
 82 0 l 1
 237 729 l 1
 562 729 l 2
489 439 m 2
 594 439 613 502 613 542 c 0
 613 585 586 604 524 604 c 2
 360 604 l 1
 325 439 l 1
 489 439 l 2
437 125 m 2
 542 125 568 192 568 245 c 0
 568 292 539 314 477 314 c 2
 299 314 l 1
 259 125 l 1
 437 125 l 2
EndSplineSet
Validated: 3073
EndChar

StartChar: C
Encoding: 67 67 35
Width: 722
Flags: HMW
AnchorPoint: "middle" 447 383 basechar 0
AnchorPoint: "below" 386 0 basechar 0
AnchorPoint: "above" 534 723 basechar 0
LayerCount: 2
Fore
SplineSet
107 235 m 0
 107 517 289 741 533 741 c 0
 688 741 793 656 793 532 c 0
 793 521 792 510 789 482 c 1
 648 482 l 1
 648 559 615 613 516 613 c 0
 295 613 256 334 256 264 c 0
 256 159 306 105 403 105 c 0
 499 105 570 157 599 249 c 1
 742 249 l 1
 698 78 564 -23 382 -23 c 0
 211 -23 107 75 107 235 c 0
EndSplineSet
Validated: 3073
EndChar

StartChar: D
Encoding: 68 68 36
Width: 722
Flags: HMW
AnchorPoint: "middle" 446 383 basechar 0
AnchorPoint: "below" 357 0 basechar 0
AnchorPoint: "above" 509 723 basechar 0
LayerCount: 2
Fore
SplineSet
77 0 m 1
 232 729 l 1
 517 729 l 2
 698 729 776 654 776 479 c 0
 776 363.398 720.381 0 362 0 c 2
 77 0 l 1
254 125 m 1
 388 125 l 2
 600.2 125 627 391.436 627 469 c 0
 627 560 582 604 490 604 c 2
 355 604 l 1
 254 125 l 1
EndSplineSet
Validated: 3073
EndChar

StartChar: E
Encoding: 69 69 37
Width: 667
Flags: HMW
AnchorPoint: "middle" 446 383 basechar 0
AnchorPoint: "ogonek" 589 0 basechar 0
AnchorPoint: "below" 375 0 basechar 0
AnchorPoint: "above" 519 723 basechar 0
LayerCount: 2
Fore
SplineSet
296 314 m 1
 256 125 l 1
 651 125 l 1
 624 0 l 1
 79 0 l 1
 234 729 l 1
 762 729 l 1
 735 604 l 1
 357 604 l 1
 322 439 l 1
 671 439 l 1
 645 314 l 1
 296 314 l 1
EndSplineSet
Validated: 3073
EndChar

StartChar: F
Encoding: 70 70 38
Width: 611
Flags: HMW
AnchorPoint: "middle" 423 383 basechar 0
AnchorPoint: "below" 198 0 basechar 0
AnchorPoint: "above" 498 723 basechar 0
LayerCount: 2
Fore
SplineSet
291 314 m 1
 224 0 l 1
 74 0 l 1
 229 729 l 1
 741 729 l 1
 714 604 l 1
 352 604 l 1
 317 439 l 1
 637 439 l 1
 610 314 l 1
 291 314 l 1
EndSplineSet
Validated: 3073
EndChar

StartChar: G
Encoding: 71 71 39
Width: 778
Flags: HMW
AnchorPoint: "middle" 472 383 basechar 0
AnchorPoint: "below" 404 0 basechar 0
AnchorPoint: "above" 538 723 basechar 0
LayerCount: 2
Fore
SplineSet
795 392 m 1
 711 -2 l 1
 621 -2 l 1
 628 88 l 1
 554 9 488 -23 395 -23 c 0
 219 -23 107 88 107 262 c 0
 107 468.74 259.568 741 547 741 c 0
 710 741 819 655 819 529 c 0
 819 521 818 510 817 496 c 1
 679 496 l 1
 671 571 614 613 519 613 c 0
 308.6 613 256 381.031 256 284 c 4
 256 181 328 105 426 105 c 0
 564 105 626 218 642 267 c 1
 476 267 l 1
 503 392 l 1
 795 392 l 1
EndSplineSet
Validated: 3073
EndChar

StartChar: H
Encoding: 72 72 40
Width: 722
Flags: HMW
AnchorPoint: "middle" 446 383 basechar 0
AnchorPoint: "below" 375 0 basechar 0
AnchorPoint: "above" 513 723 basechar 0
LayerCount: 2
Fore
SplineSet
577 331 m 1
 288 331 l 1
 218 0 l 1
 68 0 l 1
 223 729 l 1
 373 729 l 1
 315 456 l 1
 603 456 l 1
 661 729 l 1
 812 729 l 1
 657 0 l 1
 507 0 l 1
 577 331 l 1
EndSplineSet
Validated: 3073
EndChar

StartChar: I
Encoding: 73 73 41
Width: 278
Flags: HMW
AnchorPoint: "middle" 226 383 basechar 0
AnchorPoint: "ogonek" 177 0 basechar 0
AnchorPoint: "below" 139 0 basechar 0
AnchorPoint: "above" 294 723 basechar 0
LayerCount: 2
Fore
SplineSet
368 729 m 1
 213 0 l 1
 63 0 l 1
 218 729 l 1
 368 729 l 1
EndSplineSet
Validated: 3073
EndChar

StartChar: J
Encoding: 74 74 42
Width: 556
Flags: HMW
AnchorPoint: "middle" 484 383 basechar 0
AnchorPoint: "below" 256 0 basechar 0
AnchorPoint: "above" 562 723 basechar 0
LayerCount: 2
Fore
SplineSet
491 729 m 1
 641 729 l 1
 526 190 l 2
 512.698 126.815 471.966 -23 247 -23 c 0
 130 -23 59 36 59 133 c 0
 59 154 61 176 66 198 c 2
 81 270 l 1
 231 270 l 1
 215 193 l 2
 212 180 211 169 211 159 c 0
 211 127 238 105 277 105 c 0
 330 105 363.467 131.26 376 190 c 2
 491 729 l 1
EndSplineSet
Validated: 3073
EndChar

StartChar: K
Encoding: 75 75 43
Width: 722
Flags: HMW
AnchorPoint: "middle" 410 383 basechar 0
AnchorPoint: "below" 375 0 basechar 0
AnchorPoint: "above" 519 723 basechar 0
LayerCount: 2
Fore
SplineSet
274 234 m 1
 224 0 l 1
 74 0 l 1
 229 729 l 1
 379 729 l 1
 311 409 l 1
 665 729 l 1
 843 729 l 1
 482 410 l 1
 717 0 l 1
 538 0 l 1
 365 314 l 1
 274 234 l 1
EndSplineSet
Validated: 3073
EndChar

StartChar: L
Encoding: 76 76 44
Width: 611
Flags: HMW
AnchorPoint: "middle" 260 383 basechar 0
AnchorPoint: "below" 337 0 basechar 0
AnchorPoint: "above" 494 723 basechar 0
LayerCount: 2
Fore
SplineSet
385 729 m 1
 257 125 l 1
 606 125 l 1
 579 0 l 1
 80 0 l 1
 235 729 l 1
 385 729 l 1
EndSplineSet
Validated: 3073
EndChar

StartChar: M
Encoding: 77 77 45
Width: 833
Flags: HMW
AnchorPoint: "middle" 492 383 basechar 0
AnchorPoint: "below" 420 0 basechar 0
AnchorPoint: "above" 567 723 basechar 0
LayerCount: 2
Fore
SplineSet
497 0 m 1
 347 0 l 1
 340 619 l 1
 208 0 l 1
 66 0 l 1
 221 729 l 1
 438 729 l 1
 458 169 l 1
 712 729 l 1
 931 729 l 1
 776 0 l 1
 634 0 l 1
 766 619 l 1
 497 0 l 1
EndSplineSet
Validated: 3073
EndChar

StartChar: N
Encoding: 78 78 46
Width: 722
Flags: HMW
AnchorPoint: "middle" 447 383 basechar 0
AnchorPoint: "below" 375 0 basechar 0
AnchorPoint: "above" 518 723 basechar 0
LayerCount: 2
Fore
SplineSet
816 729 m 1
 661 0 l 1
 513 0 l 1
 321 523 l 1
 210 0 l 1
 68 0 l 1
 223 729 l 1
 373 729 l 1
 565 214 l 1
 674 729 l 1
 816 729 l 1
EndSplineSet
Validated: 3073
EndChar

StartChar: O
Encoding: 79 79 47
Width: 778
Flags: HMW
AnchorPoint: "middle" 467 383 basechar 0
AnchorPoint: "ogonek" 493 0 basechar 0
AnchorPoint: "below" 403 0 basechar 0
AnchorPoint: "above" 533 723 basechar 0
LayerCount: 2
Fore
SplineSet
538 741 m 0
 721 741 828 635 828 455 c 0
 828 255.03 686.202 -23 395 -23 c 0
 217 -23 106 86 106 261 c 0
 106 453.733 248.023 741 538 741 c 0
419 105 m 0
 638 105 679 371 679 437 c 0
 679 547 619 613 519 613 c 0
 299 613 255 351 255 282 c 0
 255 173 318 105 419 105 c 0
EndSplineSet
Validated: 3073
EndChar

StartChar: P
Encoding: 80 80 48
Width: 667
Flags: HMW
AnchorPoint: "middle" 446 383 basechar 0
AnchorPoint: "below" 187 0 basechar 0
AnchorPoint: "above" 519 723 basechar 0
LayerCount: 2
Fore
SplineSet
539 729 m 2
 706 729 747 631 747 560 c 0
 747 454.294 670.326 260 468 260 c 6
 281 260 l 1
 226 0 l 1
 76 0 l 1
 231 729 l 1
 539 729 l 2
461 385 m 2
 571 385 598 469 598 525 c 0
 598 572 562 604 508 604 c 2
 354 604 l 1
 308 385 l 1
 461 385 l 2
EndSplineSet
Validated: 3073
EndChar

StartChar: Q
Encoding: 81 81 49
Width: 778
Flags: HMW
AnchorPoint: "middle" 465 383 basechar 0
AnchorPoint: "below" 398 0 basechar 0
AnchorPoint: "above" 530 723 basechar 0
LayerCount: 2
Fore
SplineSet
686 103 m 1
 750 27 l 1
 657 -54 l 1
 588 27 l 1
 527 -7 468 -23 397 -23 c 0
 220 -23 109 87 109 262 c 0
 109 457.454 250.288 741 538 741 c 4
 721 741 831 632 831 453 c 0
 831 330 771 185 686 103 c 1
539 278 m 1
 604 200 l 1
 650 258 682 354 682 436 c 0
 682 547 621 613 518 613 c 0
 348.077 613 258 426.229 258 282 c 4
 258 173 319 105 418 105 c 0
 450 105 482 112 507 124 c 1
 445 197 l 1
 539 278 l 1
EndSplineSet
Validated: 3073
EndChar

StartChar: R
Encoding: 82 82 50
Width: 722
Flags: HMW
AnchorPoint: "middle" 446 383 basechar 0
AnchorPoint: "below" 375 0 basechar 0
AnchorPoint: "above" 519 723 basechar 0
LayerCount: 2
Fore
SplineSet
510 41 m 0
 510 102 548 198 548 234 c 0
 548 271 520 289 463 289 c 2
 291 289 l 1
 230 0 l 1
 80 0 l 1
 235 729 l 1
 612 729 l 2
 750 729 785 634 785 579 c 0
 785 434 665 375 618 352 c 1
 670 335 696 308 696 270 c 0
 696 207 665 100 665 61 c 0
 665 47 670 37 683 27 c 1
 677 0 l 1
 518 0 l 1
 512 19 510 29 510 41 c 0
636 534 m 0
 636 590 587 604 526 604 c 2
 358 604 l 1
 318 414 l 1
 499 414 l 2
 612 414 636 493 636 534 c 0
EndSplineSet
Validated: 3073
EndChar

StartChar: S
Encoding: 83 83 51
Width: 667
Flags: HMW
AnchorPoint: "middle" 415 383 basechar 0
AnchorPoint: "below" 355 0 basechar 0
AnchorPoint: "above" 479 723 basechar 0
LayerCount: 2
Fore
SplineSet
151 472 m 0
 151 621 274 741 473 741 c 0
 632 741 725 677 725 569 c 0
 725 549 723 535 717 507 c 1
 577 507 l 1
 578 516 579 525 579 530 c 0
 579 584 532 613 447 613 c 0
 356 613 300 573 300 509 c 0
 300 471 327 455 421 436 c 2
 530 414 l 2
 632 394 687 342 687 265 c 0
 687 157 619 -23 345 -23 c 0
 130 -23 76 89 76 174 c 0
 76 188 77 198 80 218 c 1
 226 218 l 1
 225 209 224 200 224 195 c 0
 224 138 276 105 367 105 c 0
 471 105 538 149 538 216 c 0
 538 263 509 283 418 301 c 2
 320 321 l 2
 201 345 151 389 151 472 c 0
EndSplineSet
Validated: 3073
EndChar

StartChar: T
Encoding: 84 84 52
Width: 611
Flags: HMW
AnchorPoint: "middle" 390 383 basechar 0
AnchorPoint: "below" 316 0 basechar 0
AnchorPoint: "above" 459 723 basechar 0
LayerCount: 2
Fore
SplineSet
514 604 m 1
 385 0 l 1
 235 0 l 1
 364 604 l 1
 142 604 l 1
 169 729 l 1
 753 729 l 1
 726 604 l 1
 514 604 l 1
EndSplineSet
Validated: 3073
EndChar

StartChar: U
Encoding: 85 85 53
Width: 722
Flags: HMW
AnchorPoint: "middle" 446 383 basechar 0
AnchorPoint: "ogonek" 459 0 basechar 0
AnchorPoint: "below" 375 0 basechar 0
AnchorPoint: "above" 519 723 basechar 0
LayerCount: 2
Fore
SplineSet
659 729 m 1
 809 729 l 1
 704 235 l 2
 662.827 45.1483 512.962 -23 366 -23 c 0
 215 -23 119 51 119 167 c 0
 119 189 123 222 130 255 c 2
 231 729 l 1
 381 729 l 1
 276 235 l 2
 273 219 271 205 271 190 c 0
 271 137 316 105 394 105 c 0
 485 105 535 145 554 235 c 2
 659 729 l 1
EndSplineSet
Validated: 3073
EndChar

StartChar: V
Encoding: 86 86 54
Width: 667
Flags: HMW
AnchorPoint: "middle" 412 383 basechar 0
AnchorPoint: "below" 334 0 basechar 0
AnchorPoint: "above" 481 723 basechar 0
LayerCount: 2
Fore
SplineSet
400 0 m 1
 273 0 l 1
 179 729 l 1
 330 729 l 1
 375 180 l 1
 651 729 l 1
 802 729 l 1
 400 0 l 1
EndSplineSet
Validated: 3073
EndChar

StartChar: W
Encoding: 87 87 55
Width: 944
Flags: HMW
AnchorPoint: "middle" 547 383 basechar 0
AnchorPoint: "below" 477 0 basechar 0
AnchorPoint: "above" 617 723 basechar 0
LayerCount: 2
Fore
SplineSet
730 0 m 1
 595 0 l 1
 591 555 l 1
 354 0 l 1
 219 0 l 1
 168 729 l 1
 327 729 l 1
 324 183 l 1
 548 729 l 1
 706 729 l 1
 703 181 l 1
 928 729 l 1
 1087 729 l 1
 730 0 l 1
EndSplineSet
Validated: 3073
EndChar

StartChar: X
Encoding: 88 88 56
Width: 667
Flags: HMW
AnchorPoint: "middle" 425 383 basechar 0
AnchorPoint: "below" 338 0 basechar 0
AnchorPoint: "above" 491 723 basechar 0
LayerCount: 2
Fore
SplineSet
499 372 m 1
 655 0 l 1
 476 0 l 1
 386 249 l 1
 197 0 l 1
 22 0 l 1
 332 367 l 1
 187 729 l 1
 365 729 l 1
 444 493 l 1
 627 729 l 1
 802 729 l 1
 499 372 l 1
EndSplineSet
Validated: 3073
EndChar

StartChar: Y
Encoding: 89 89 57
Width: 667
Flags: HMW
AnchorPoint: "middle" 428 383 basechar 0
AnchorPoint: "ogonek" 386 0 basechar 0
AnchorPoint: "below" 345 0 basechar 0
AnchorPoint: "above" 487 723 basechar 0
LayerCount: 2
Fore
SplineSet
477 270 m 1
 419 0 l 1
 269 0 l 1
 327 270 l 1
 182 729 l 1
 349 729 l 1
 431 414 l 1
 638 729 l 1
 805 729 l 1
 477 270 l 1
EndSplineSet
Validated: 3073
EndChar

StartChar: Z
Encoding: 90 90 58
Width: 611
Flags: HMW
AnchorPoint: "middle" 387 383 basechar 0
AnchorPoint: "below" 307 0 basechar 0
AnchorPoint: "above" 464 723 basechar 0
LayerCount: 2
Fore
SplineSet
733 729 m 1
 706 604 l 1
 232 125 l 1
 605 125 l 1
 578 0 l 1
 30 0 l 1
 57 125 l 1
 531 604 l 1
 158 604 l 1
 185 729 l 1
 733 729 l 1
EndSplineSet
Validated: 3073
EndChar

StartChar: bracketleft
Encoding: 91 91 59
Width: 333
Flags: MW
LayerCount: 2
Fore
SplineSet
463 729 m 1
 441 629 l 1
 328 629 l 1
 174 -100 l 1
 287 -100 l 1
 266 -200 l 1
 23 -200 l 1
 220 729 l 1
 463 729 l 1
EndSplineSet
Validated: 1
EndChar

StartChar: backslash
Encoding: 92 92 60
Width: 278
Flags: MW
LayerCount: 2
Fore
SplineSet
138 709 m 1
 212 709 l 1
 285 -23 l 1
 210 -23 l 1
 138 709 l 1
EndSplineSet
Validated: 1
EndChar

StartChar: asciicircum
Encoding: 94 94 62
Width: 584
Flags: MW
LayerCount: 2
Fore
SplineSet
580 270 m 1
 467 270 l 1
 409 570 l 1
 231 270 l 1
 119 270 l 1
 374 695 l 1
 499 695 l 1
 580 270 l 1
EndSplineSet
Validated: 1
EndChar

StartChar: underscore
Encoding: 95 95 63
Width: 556
Flags: HMW
LayerCount: 2
Fore
SplineSet
552 -120 m 5
 535 -200 l 5
 -65 -200 l 5
 -48 -120 l 5
 552 -120 l 5
EndSplineSet
Validated: 3073
EndChar

StartChar: grave
Encoding: 96 96 64
Width: 333
Flags: MW
LayerCount: 2
Fore
SplineSet
175 757 m 1
 294 757 l 1
 339 607 l 1
 276 607 l 1
 175 757 l 1
EndSplineSet
Validated: 1
EndChar

StartChar: a
Encoding: 97 97 65
Width: 556
Flags: HMW
AnchorPoint: "below" 258 0 basechar 0
AnchorPoint: "middle" 341 288 basechar 0
AnchorPoint: "ogonek" 456 0 basechar 0
AnchorPoint: "above" 389 552 basechar 0
LayerCount: 2
Fore
SplineSet
386 549 m 0
 547 549 578 476 578 428 c 0
 578 416 576 401 572 383 c 2
 509 83 l 2
 507.371 75.2445 506 68 506 62 c 0
 506 47 512 34 527 17 c 1
 523 0 l 1
 370 0 l 1
 365 11 363 17 363 27 c 0
 363 34 363 39 366 54 c 1
 306 0 257 -23 199 -23 c 0
 110 -23 50 30 50 108 c 0
 50 149 80 282 252 311 c 2
 310 320 l 2
 359 327 436 331 436 394 c 0
 436 424 414 437 363 437 c 0
 299 437 268 417 251 362 c 1
 120 362 l 1
 148 492 229 549 386 549 c 0
400 217 m 1
 408 255 l 1
 391 245 392 247 361 241 c 2
 295 230 l 2
 230 219 193 186 193 139 c 0
 193 106 218 89 266 89 c 0
 334 89 382 135 400 217 c 1
EndSplineSet
Validated: 3073
EndChar

StartChar: b
Encoding: 98 98 66
Width: 611
Flags: HMW
AnchorPoint: "below" 319 0 basechar 0
AnchorPoint: "middle" 377 288 basechar 0
AnchorPoint: "above" 461 721 basechar 0
LayerCount: 2
Fore
SplineSet
214 729 m 1
 354 729 l 1
 299 470 l 1
 344 524 397 549 465 549 c 0
 571 549 640 467 640 342 c 0
 640 152 497 -23 343 -23 c 0
 276 -23 233 2 211 55 c 1
 199 0 l 1
 59 0 l 1
 214 729 l 1
409 437 m 0
 323 437 248 327 248 202 c 0
 248 134 283 89 336 89 c 0
 421 89 497 197 497 319 c 0
 497 392 463 437 409 437 c 0
EndSplineSet
Validated: 3073
EndChar

StartChar: c
Encoding: 99 99 67
Width: 556
Flags: HMW
AnchorPoint: "below" 287 0 basechar 0
AnchorPoint: "middle" 345 288 basechar 0
AnchorPoint: "above" 403 552 basechar 0
LayerCount: 2
Fore
SplineSet
398 549 m 0
 522 549 597 474 597 381 c 0
 597 371 596 362 593 338 c 1
 459 338 l 1
 458 394 451 437 377 437 c 0
 251.4 437 220 265.409 220 192 c 0
 220 123 249 89 309 89 c 0
 363 89 396 116 427 187 c 1
 561 187 l 1
 519 53 421 -23 292 -23 c 0
 120 -23 77 94 77 172 c 0
 77 261.82 128.535 549 398 549 c 0
EndSplineSet
Validated: 3073
EndChar

StartChar: d
Encoding: 100 100 68
Width: 611
Flags: HMW
AnchorPoint: "below" 278 0 basechar 0
AnchorPoint: "middle" 345 288 basechar 0
AnchorPoint: "above" 410 721 basechar 0
LayerCount: 2
Fore
SplineSet
405 0 m 1
 417 55 l 1
 371 2 318 -23 251 -23 c 0
 147 -23 79 59 79 185 c 0
 79 353.834 196.2 549 372 549 c 4
 440 549 482 524 505 470 c 1
 560 729 l 1
 700 729 l 1
 545 0 l 1
 405 0 l 1
380 437 m 0
 297 437 222 327 222 206 c 0
 222 134 256 89 309 89 c 0
 394 89 468 197 468 323 c 0
 468 393 434 437 380 437 c 0
EndSplineSet
Validated: 3073
EndChar

StartChar: e
Encoding: 101 101 69
Width: 556
Flags: HMW
AnchorPoint: "below" 280 0 basechar 0
AnchorPoint: "middle" 345 288 basechar 0
AnchorPoint: "ogonek" 349 0 basechar 0
AnchorPoint: "above" 382 552 basechar 0
LayerCount: 2
Fore
SplineSet
379 549 m 0
 507 549 591 467 591 351 c 0
 591 313 585 271 573 226 c 1
 210 226 l 1
 207 198 207 190 207 181 c 0
 207 126 245 89 302 89 c 0
 350 89 394 114 414 152 c 1
 552 152 l 1
 497 41 396 -23 275 -23 c 0
 150 -23 64 61 64 185 c 0
 64 265 111 549 379 549 c 0
362 437 m 0
 282 437 245 379 228 319 c 1
 448 319 l 1
 448 382 442 437 362 437 c 0
EndSplineSet
Validated: 3073
EndChar

StartChar: f
Encoding: 102 102 70
Width: 333
Flags: HMW
AnchorPoint: "below" 166 0 basechar 0
AnchorPoint: "middle" 227 288 basechar 0
AnchorPoint: "above" 377 721 basechar 0
LayerCount: 2
Fore
SplineSet
425 529 m 1
 405 436 l 1
 323 436 l 1
 230 0 l 1
 90 0 l 1
 183 436 l 1
 106 436 l 1
 126 529 l 1
 202 529 l 1
 216 594 l 2
 236 687 289 729 387 729 c 0
 405 729 422 728 464 726 c 1
 442 621 l 1
 415 624 410 625 400 625 c 0
 375 625 360.99 612.87 354 582 c 2
 342 529 l 1
 425 529 l 1
EndSplineSet
Validated: 3073
EndChar

StartChar: g
Encoding: 103 103 71
Width: 611
Flags: HMW
AnchorPoint: "below" 244 -200 basechar 0
AnchorPoint: "middle" 345 288 basechar 0
AnchorPoint: "above" 381 552 basechar 0
LayerCount: 2
Fore
SplineSet
235 -218 m 0
 67 -218 26 -148 26 -96 c 0
 26 -88 27 -77 29 -65 c 1
 173 -65 l 1
 172.312 -69.5625 172 -73.4375 172 -77 c 0
 172 -106 209 -128 258 -128 c 0
 331 -128 390 -83 404 -18 c 2
 420 55 l 1
 356 -4 316 -23 254 -23 c 0
 153 -23 79 57 79 167 c 0
 79 343.89 193.155 549 378 549 c 0
 437 549 478 519 505 457 c 1
 523 540 l 1
 656 540 l 1
 537 -18 l 2
 510.123 -144.026 401 -218 235 -218 c 0
379 437 m 0
 297 437 222 324 222 201 c 0
 222 132 254 89 306 89 c 0
 395 89 471 193 471 315 c 0
 471 389 435 437 379 437 c 0
EndSplineSet
Validated: 3073
EndChar

StartChar: h
Encoding: 104 104 72
Width: 611
Flags: HMW
AnchorPoint: "below" 312 0 basechar 0
AnchorPoint: "middle" 345 288 basechar 0
AnchorPoint: "above" 461 721 basechar 0
LayerCount: 2
Fore
SplineSet
222 729 m 1
 362 729 l 1
 304 458 l 1
 357 521 413 549 484 549 c 0
 571 549 629 496 629 417 c 0
 629 399 627 381 623 362 c 2
 546 0 l 1
 406 0 l 1
 473 313 l 2
 477 334 479 348 479 361 c 0
 479 410 453 437 406 437 c 0
 342 437 289 385 272 304 c 2
 207 0 l 1
 67 0 l 1
 222 729 l 1
EndSplineSet
Validated: 3073
EndChar

StartChar: i
Encoding: 105 105 73
Width: 278
Flags: HMW
AnchorPoint: "below" 140 0 basechar 0
AnchorPoint: "middle" 202 288 basechar 0
AnchorPoint: "ogonek" 177 0 basechar 0
AnchorPoint: "above" 289 721 basechar 0
LayerCount: 2
Fore
SplineSet
322 540 m 1
 207 0 l 1
 67 0 l 1
 182 540 l 1
 322 540 l 1
362 729 m 1
 335 604 l 1
 195 604 l 1
 222 729 l 1
 362 729 l 1
EndSplineSet
Validated: 3073
EndChar

StartChar: j
Encoding: 106 106 74
Width: 278
Flags: HMW
AnchorPoint: "below" 84 -200 basechar 0
AnchorPoint: "middle" 203 288 basechar 0
AnchorPoint: "above" 291 721 basechar 0
LayerCount: 2
Fore
SplineSet
325 540 m 1
 190 -94 l 1
 172 -181 116 -218 2 -218 c 0
 -17 -218 -29 -217 -43 -213 c 1
 -19 -102 l 1
 -15 -105 -8 -106 6 -106 c 0
 36 -106 50 -94 57 -62 c 2
 185 540 l 1
 325 540 l 1
365 729 m 1
 338 604 l 1
 198 604 l 1
 225 729 l 1
 365 729 l 1
EndSplineSet
Validated: 3073
EndChar

StartChar: k
Encoding: 107 107 75
Width: 556
Flags: HMW
AnchorPoint: "below" 281 0 basechar 0
AnchorPoint: "middle" 313 288 basechar 0
AnchorPoint: "above" 461 721 basechar 0
LayerCount: 2
Fore
SplineSet
354 729 m 1
 269 330 l 1
 492 540 l 1
 651 540 l 1
 419 334 l 1
 548 0 l 1
 384 0 l 1
 305 239 l 1
 237 177 l 1
 199 0 l 1
 59 0 l 1
 214 729 l 1
 354 729 l 1
EndSplineSet
Validated: 3073
EndChar

StartChar: l
Encoding: 108 108 76
Width: 278
Flags: HMW
AnchorPoint: "below" 138 0 basechar 0
AnchorPoint: "middle" 201 288 basechar 0
AnchorPoint: "above" 291 721 basechar 0
LayerCount: 2
Fore
SplineSet
362 729 m 1
 207 0 l 1
 67 0 l 1
 222 729 l 1
 362 729 l 1
EndSplineSet
Validated: 3073
EndChar

StartChar: m
Encoding: 109 109 77
Width: 889
Flags: HMW
AnchorPoint: "below" 437 0 basechar 0
AnchorPoint: "middle" 499 288 basechar 0
AnchorPoint: "above" 547 552 basechar 0
LayerCount: 2
Fore
SplineSet
175 540 m 1
 314 540 l 1
 297 459 l 1
 356 524 403 549 468 549 c 0
 530 549 578 517 592 467 c 1
 647 524 701 549 769 549 c 0
 859 549 911 502 911 423 c 0
 911 405 909 391 903 362 c 2
 826 0 l 1
 686 0 l 1
 758 340 l 2
 761 354 763 369 763 381 c 0
 763 417 742 437 705 437 c 0
 642 437 597 396 582 324 c 2
 513 0 l 1
 373 0 l 1
 447 346 l 2
 449 357 450 367 450 379 c 0
 450 414 425 437 387 437 c 0
 329 437 284 394 269 324 c 2
 200 0 l 1
 60 0 l 1
 175 540 l 1
EndSplineSet
Validated: 3073
EndChar

StartChar: n
Encoding: 110 110 78
Width: 611
Flags: HMW
AnchorPoint: "below" 309 0 basechar 0
AnchorPoint: "middle" 373 288 basechar 0
AnchorPoint: "above" 458 552 basechar 0
LayerCount: 2
Fore
SplineSet
178 540 m 5
 318 540 l 5
 300 458 l 5
 354 522 408 549 482 549 c 4
 571 549 629 497 629 417 c 4
 629 399 627 381 623 362 c 6
 546 0 l 5
 406 0 l 5
 473 313 l 6
 477 335 479 349 479 362 c 4
 479 410 453 437 405 437 c 4
 338 437 286 386 268 304 c 6
 203 0 l 5
 63 0 l 5
 178 540 l 5
EndSplineSet
Validated: 3073
EndChar

StartChar: o
Encoding: 111 111 79
Width: 611
Flags: HMW
AnchorPoint: "below" 307 0 basechar 0
AnchorPoint: "middle" 367 288 basechar 0
AnchorPoint: "ogonek" 375 0 basechar 0
AnchorPoint: "above" 424 552 basechar 0
LayerCount: 2
Fore
SplineSet
82 177 m 0
 82 378 211 549 413 549 c 0
 550 549 634 473 634 349 c 0
 634 143 502 -23 299 -23 c 0
 167 -23 82 55 82 177 c 0
324 89 m 0
 458 89 491 265 491 320 c 0
 491 391 452 437 391 437 c 0
 301 437 225 332 225 205 c 0
 225 134 264 89 324 89 c 0
EndSplineSet
Validated: 3073
EndChar

StartChar: p
Encoding: 112 112 80
Width: 611
Flags: HMW
AnchorPoint: "below" 264 -200 basechar 0
AnchorPoint: "middle" 377 288 basechar 0
AnchorPoint: "above" 442 552 basechar 0
LayerCount: 2
Fore
SplineSet
312 540 m 1
 295 460 l 1
 341 519 397 549 464 549 c 0
 570 549 637 469 637 342 c 0
 637 141 505 -24 344 -24 c 0
 274 -24 232 4 211 64 c 1
 151 -218 l 1
 11 -218 l 1
 172 540 l 1
 312 540 l 1
406 437 m 0
 320 437 246 327 246 201 c 0
 246 133 281 88 334 88 c 0
 420 88 494 196 494 323 c 0
 494 392 460 437 406 437 c 0
EndSplineSet
Validated: 3073
EndChar

StartChar: q
Encoding: 113 113 81
Width: 611
Flags: HMW
AnchorPoint: "below" 244 -200 basechar 0
AnchorPoint: "middle" 345 288 basechar 0
AnchorPoint: "above" 389 552 basechar 0
LayerCount: 2
Fore
SplineSet
519 540 m 1
 659 540 l 1
 498 -218 l 1
 358 -218 l 1
 418 64 l 1
 373 5 316 -24 248 -24 c 0
 142 -24 72 57 72 180 c 0
 72 352.223 186.792 549 369 549 c 0
 438 549 482 520 502 460 c 1
 519 540 l 1
377 437 m 0
 291 437 215 327 215 202 c 0
 215 133 250 88 304 88 c 0
 391 88 466 197 466 324 c 0
 466 393 431 437 377 437 c 0
EndSplineSet
Validated: 3073
EndChar

StartChar: r
Encoding: 114 114 82
Width: 389
Flags: HMW
AnchorPoint: "below" 240 0 basechar 0
AnchorPoint: "middle" 199 288 basechar 0
AnchorPoint: "above" 344 552 basechar 0
LayerCount: 2
Fore
SplineSet
178 540 m 1
 318 540 l 1
 295 434 l 1
 342 507 406 549 470 549 c 0
 474 549 479 549 487 548 c 1
 457 406 l 1
 439 409 429 410 414 410 c 0
 332 410 281 369 264 287 c 0
 203 0 l 1
 63 0 l 1
 178 540 l 1
EndSplineSet
Validated: 3073
EndChar

StartChar: s
Encoding: 115 115 83
Width: 556
Flags: HMW
AnchorPoint: "below" 290 0 basechar 0
AnchorPoint: "middle" 342 288 basechar 0
AnchorPoint: "above" 389 552 basechar 0
LayerCount: 2
Fore
SplineSet
127 345 m 0
 127 460 231 549 387 549 c 0
 513 549 589 494 589 404 c 0
 589 393 588 384 584 366 c 1
 449 366 l 1
 451 375 452 379 452 385 c 0
 452 417 419 437 364 437 c 0
 311 437 276 416 276 384 c 0
 276 364 290 354 341 339 c 2
 437 311 l 2
 520 286 559 247 559 187 c 0
 559 59 451 -23 281 -23 c 0
 104 -23 60 71 60 127 c 0
 60 136 61 142 64 157 c 1
 201 157 l 1
 204 99 265 89 307 89 c 0
 368 89 411 112 411 144 c 0
 411 167 398 176 335 196 c 2
 256 221 l 2
 168 250 127 289 127 345 c 0
EndSplineSet
Validated: 3073
EndChar

StartChar: t
Encoding: 116 116 84
Width: 333
Flags: HMW
AnchorPoint: "below" 217 0 basechar 0
AnchorPoint: "middle" 220 288 basechar 0
AnchorPoint: "above" 299 674 basechar 0
LayerCount: 2
Fore
SplineSet
414 529 m 1
 394 436 l 1
 316 436 l 1
 254 142 l 2
 250 125 248 113 248 108 c 0
 248 93 263 83 286 83 c 0
 297 83 305 84 319 86 c 1
 299 -12 l 1
 271 -20 247 -23 214 -23 c 0
 141 -23 101 8 101 63 c 0
 101 76 103 90 106 104 c 2
 176 436 l 1
 107 436 l 1
 127 529 l 1
 196 529 l 1
 227 674 l 1
 367 674 l 1
 336 529 l 1
 414 529 l 1
EndSplineSet
Validated: 3073
EndChar

StartChar: u
Encoding: 117 117 85
Width: 611
Flags: HMW
AnchorPoint: "below" 289 0 basechar 0
AnchorPoint: "middle" 356 288 basechar 0
AnchorPoint: "ogonek" 507 0 basechar 0
AnchorPoint: "above" 414 552 basechar 0
LayerCount: 2
Fore
SplineSet
541 0 m 1
 401 0 l 1
 416 68 l 1
 362 4 308 -23 234 -23 c 0
 146 -23 88 29 88 109 c 0
 88 127 90 145 94 164 c 2
 174 540 l 1
 314 540 l 1
 244 213 l 2
 240 190 238 178 238 164 c 0
 238 115 264 89 314 89 c 0
 379 89 431 141 448 222 c 2
 516 540 l 1
 656 540 l 1
 541 0 l 1
EndSplineSet
Validated: 3073
EndChar

StartChar: v
Encoding: 118 118 86
Width: 556
Flags: HMW
AnchorPoint: "below" 277 0 basechar 0
AnchorPoint: "middle" 339 288 basechar 0
AnchorPoint: "above" 389 552 basechar 0
LayerCount: 2
Fore
SplineSet
350 0 m 1
 203 0 l 1
 129 540 l 1
 277 540 l 1
 307 145 l 1
 503 540 l 1
 651 540 l 1
 350 0 l 1
EndSplineSet
Validated: 3073
EndChar

StartChar: w
Encoding: 119 119 87
Width: 778
Flags: HMW
AnchorPoint: "below" 390 0 basechar 0
AnchorPoint: "middle" 450 288 basechar 0
AnchorPoint: "above" 498 552 basechar 0
LayerCount: 2
Fore
SplineSet
617 0 m 1
 472 0 l 1
 467 380 l 1
 301 0 l 1
 157 0 l 1
 120 540 l 1
 265 540 l 1
 270 162 l 1
 429 540 l 1
 573 540 l 1
 573 162 l 1
 736 540 l 1
 881 540 l 1
 617 0 l 1
EndSplineSet
Validated: 3073
EndChar

StartChar: x
Encoding: 120 120 88
Width: 556
Flags: HMW
AnchorPoint: "below" 274 0 basechar 0
AnchorPoint: "middle" 336 288 basechar 0
AnchorPoint: "above" 389 552 basechar 0
LayerCount: 2
Fore
SplineSet
411 274 m 1
 534 0 l 1
 366 0 l 1
 307 168 l 1
 184 0 l 1
 16 0 l 1
 249 274 l 1
 138 540 l 1
 306 540 l 1
 357 377 l 1
 480 540 l 1
 648 540 l 1
 411 274 l 1
EndSplineSet
Validated: 3073
EndChar

StartChar: y
Encoding: 121 121 89
Width: 556
Flags: HMW
AnchorPoint: "below" 472 0 basechar 0
AnchorPoint: "middle" 345 288 basechar 0
AnchorPoint: "ogonek" 507 0 basechar 0
AnchorPoint: "above" 389 552 basechar 0
LayerCount: 2
Fore
SplineSet
509 540 m 1
 653 540 l 1
 295 -98 l 2
 275 -135 242 -219 81 -219 c 0
 60 -219 50 -218 37 -215 c 1
 60 -106 l 1
 71 -108 76 -108 88 -108 c 0
 157 -108 201 -72 201 -15 c 0
 178 173 149 354 124 540 c 1
 278 540 l 1
 314 147 l 1
 509 540 l 1
EndSplineSet
Validated: 3073
EndChar

StartChar: z
Encoding: 122 122 90
Width: 500
Flags: HMW
AnchorPoint: "below" 247 0 basechar 0
AnchorPoint: "middle" 312 288 basechar 0
AnchorPoint: "above" 361 552 basechar 0
LayerCount: 2
Fore
SplineSet
575 540 m 1
 551 427 l 1
 219 113 l 1
 493 113 l 1
 469 0 l 1
 21 0 l 1
 45 113 l 1
 379 427 l 1
 130 427 l 1
 154 540 l 1
 575 540 l 1
EndSplineSet
Validated: 3073
EndChar

StartChar: braceleft
Encoding: 123 123 91
Width: 389
Flags: HMW
LayerCount: 2
Fore
SplineSet
195 269 m 1
 227 264 274 256 274 200 c 0
 274 190 272 174 269 159 c 2
 227 -36 l 2
 224 -53 222 -66 222 -76 c 0
 222 -92 236 -101 261 -101 c 2
 296 -101 l 1
 275 -200 l 1
 198 -200 l 2
 140 -200 101 -159 101 -99 c 0
 101 -86 102 -73 105 -60 c 2
 150 150 l 2
 153 165 155 178 155 184 c 0
 155 208 135 222 101 222 c 2
 88 222 l 1
 84 223 l 1
 104 315 l 1
 120 315 l 2
 164 315 189 336 198 378 c 2
 243 589 l 2
 262 679 317 729 396 729 c 2
 472 729 l 1
 451 630 l 1
 414 630 l 2
 377 630 367 620 357 573 c 2
 316 378 l 2
 300 306 268 277 195 269 c 1
EndSplineSet
Validated: 3073
EndChar

StartChar: bar
Encoding: 124 124 92
Width: 280
Flags: MW
LayerCount: 2
Fore
SplineSet
335 729 m 1
 137 -200 l 1
 57 -200 l 1
 255 729 l 1
 335 729 l 1
EndSplineSet
Validated: 1
EndChar

StartChar: asciitilde
Encoding: 126 126 94
Width: 584
Flags: MW
LayerCount: 2
Fore
SplineSet
504 288 m 1
 581 288 l 1
 558 193 503 142 423 142 c 0
 390 142 367 150 346 168 c 2
 298 210 l 2
 278 227 262 234 242 234 c 0
 204 234 188 219 175 169 c 1
 97 169 l 1
 123 266 176 314 256 314 c 0
 288 314 312 306 332 289 c 2
 381 247 l 2
 402 228 415 222 437 222 c 0
 475 222 490 237 504 288 c 1
EndSplineSet
Validated: 1
EndChar

StartChar: cent
Encoding: 162 162 96
Width: 556
Flags: MW
LayerCount: 2
Fore
SplineSet
434 547 m 1
 580 529 598 416 598 381 c 0
 598 371 597 362 594 338 c 1
 460 338 l 1
 460 398 448 423 410 435 c 1
 337 89 l 1
 378 99 404 128 428 187 c 1
 562 187 l 1
 526 65 430 -16 313 -22 c 1
 292 -124 l 1
 226 -124 l 1
 248 -20 l 1
 92 6 79 130 79 172 c 0
 79 247 122 528 368 548 c 1
 387 634 l 1
 453 634 l 1
 434 547 l 1
344 435 m 1
 239 407 222 234 222 191 c 0
 222 136 236 109 272 93 c 1
 344 435 l 1
EndSplineSet
Validated: 1
EndChar

StartChar: sterling
Encoding: 163 163 97
Width: 556
Flags: MW
LayerCount: 2
Fore
SplineSet
288 496 m 0
 288 466 305 427 316 371 c 1
 455 371 l 1
 443 316 l 1
 321 316 l 1
 323 303 323 297 323 290 c 0
 323 219 282 163 172 86 c 1
 236 115 250 119 280 119 c 0
 324 119 362 102 411 102 c 0
 447 102 480 111 525 131 c 1
 543 22 l 1
 479 -11 437 -23 388 -23 c 0
 316 -23 267 7 197 7 c 0
 160 7 131 0 82 -21 c 1
 49 80 l 1
 153 141 193 191 193 261 c 0
 193 276 192 288 188 316 c 1
 99 316 l 1
 111 371 l 1
 171 371 l 1
 150 432 145 451 145 478 c 0
 145 534 201 715 425 715 c 0
 559 715 629 655 629 539 c 0
 629 522 628 509 625 484 c 1
 494 484 l 1
 495 494 495 505 495 510 c 0
 495 572 464 603 402 603 c 0
 341 603 288 553 288 496 c 0
EndSplineSet
Validated: 1
EndChar

StartChar: currency
Encoding: 164 164 98
Width: 556
Flags: MW
LayerCount: 2
Fore
SplineSet
501 528 m 1
 590 601 l 1
 644 532 l 1
 553 457 l 1
 560 434 563 416 563 397 c 0
 563 346 543 292 507 246 c 1
 567 170 l 1
 484 102 l 1
 425 177 l 1
 377 153 354 147 317 147 c 0
 279 147 235 160 214 178 c 1
 120 100 l 1
 66 169 l 1
 160 246 l 1
 152 270 149 288 149 310 c 0
 149 360 170 415 204 457 c 1
 142 536 l 1
 225 604 l 1
 286 527 l 1
 320 546 365 558 404 558 c 0
 439 558 476 546 501 528 c 1
377 460 m 0
 305 460 249 403 249 330 c 0
 249 280 284 245 335 245 c 0
 406 245 463 303 463 375 c 0
 463 425 427 460 377 460 c 0
EndSplineSet
Validated: 1
EndChar

StartChar: yen
Encoding: 165 165 99
Width: 556
Flags: MW
LayerCount: 2
Fore
SplineSet
574 352 m 1
 561 292 l 1
 417 292 l 1
 406 240 l 1
 550 240 l 1
 537 180 l 1
 393 180 l 1
 355 0 l 1
 215 0 l 1
 253 180 l 1
 107 180 l 1
 120 240 l 1
 266 240 l 1
 277 292 l 1
 131 292 l 1
 143 352 l 1
 283 352 l 1
 155 704 l 1
 294 704 l 1
 379 450 l 1
 566 704 l 1
 702 704 l 1
 435 352 l 1
 574 352 l 1
EndSplineSet
Validated: 1
EndChar

StartChar: brokenbar
Encoding: 166 166 100
Width: 280
Flags: MW
LayerCount: 2
Fore
SplineSet
335 729 m 1
 252 340 l 1
 172 340 l 1
 255 729 l 1
 335 729 l 1
220 189 m 1
 137 -200 l 1
 57 -200 l 1
 140 189 l 1
 220 189 l 1
EndSplineSet
Validated: 1
EndChar

StartChar: section
Encoding: 167 167 101
Width: 556
Flags: MW
LayerCount: 2
Fore
SplineSet
496 27 m 0
 496 -19 450 -201 232 -201 c 0
 124 -201 56 -146 56 -59 c 0
 56 -40 58 -26 65 0 c 1
 196 0 l 1
 194 -17 193 -24 193 -34 c 0
 193 -70 216 -89 258 -89 c 0
 309 -89 348 -57 348 -15 c 0
 348 12 342 16 293 49 c 0
 143 149 l 2
 109 172 89 208 89 247 c 0
 89 322 119 368 216 428 c 1
 190 455 178 485 178 524 c 0
 178 571 202 622 243 659 c 0
 287 700 352 723 425 723 c 0
 532 723 596 675 596 594 c 0
 596 580 594 569 589 544 c 1
 462 544 l 1
 463 551 463 558 463 562 c 0
 463 600 441 621 401 621 c 0
 358 621 326 594 326 559 c 0
 326 538 347 516 397 485 c 2
 509 415 l 2
 557 385 578 350 578 302 c 0
 578 196 520 153 448 126 c 1
 481 99 496 68 496 27 c 0
258 247 m 2
 383 170 l 1
 430 192 448 214 448 247 c 0
 448 271 437 285 402 306 c 2
 275 382 l 1
 237 362 219 335 219 301 c 0
 219 279 229 264 258 247 c 2
EndSplineSet
Validated: 1
EndChar

StartChar: copyright
Encoding: 169 169 103
Width: 737
Flags: MW
LayerCount: 2
Fore
SplineSet
232 287 m 0
 232 459 346 592 493 592 c 0
 586 592 647 541 647 464 c 0
 647 456 646 448 644 431 c 1
 554 431 l 1
 554 485 531 509 478 509 c 0
 348 509 325 348 325 305 c 0
 325 244 356 211 411 211 c 0
 468 211 508 241 526 297 c 1
 618 297 l 1
 590 192 504 128 390 128 c 0
 292 128 232 189 232 287 c 0
530 743 m 0
 707 743 837 615 837 440 c 0
 837 201 607 -22 360 -22 c 0
 184 -22 54 106 54 281 c 0
 54 520 284 743 530 743 c 0
514 671 m 0
 318 671 134 489 134 295 c 0
 134 154 237 50 377 50 c 0
 573 50 757 232 757 427 c 0
 757 568 654 671 514 671 c 0
EndSplineSet
Validated: 1
EndChar

StartChar: ordfeminine
Encoding: 170 170 104
Width: 370
Flags: MW
LayerCount: 2
Fore
SplineSet
396 342 m 1
 380 262 l 1
 96 262 l 1
 113 342 l 1
 396 342 l 1
420 409 m 1
 418 399 l 1
 326 399 l 1
 323 405 322 409 322 415 c 0
 322 419 322 421 324 431 c 1
 288 399 257 385 217 385 c 0
 166 385 134 415 134 463 c 0
 134 526 182 575 256 586 c 2
 290 592 l 2
 331 598 366 601 366 636 c 0
 366 653 353 661 322 661 c 0
 284 661 265 649 255 617 c 1
 176 617 l 1
 193 692 247 729 337 729 c 0
 408 729 451 702 451 657 c 0
 451 649 450 640 448 629 c 0
 409 449 l 2
 408 444 408 441 408 436 c 0
 408 428 412 419 420 409 c 1
344 529 m 2
 349 552 l 1
 342 549 340 548 333 546 c 0
 331 546 327 545 321 544 c 2
 311 543 l 1
 281 537 l 2
 243 531 221 511 221 483 c 0
 221 464 236 453 263 453 c 0
 304 453 334 481 344 529 c 2
EndSplineSet
Validated: 1
EndChar

StartChar: guillemotleft
Encoding: 171 171 105
Width: 556
Flags: MW
LayerCount: 2
Fore
SplineSet
135 218 m 1
 159 332 l 1
 358 481 l 1
 333 364 l 1
 213 275 l 1
 295 186 l 1
 271 72 l 1
 135 218 l 1
348 218 m 1
 372 332 l 1
 571 481 l 1
 546 364 l 1
 426 275 l 1
 508 186 l 1
 484 72 l 1
 348 218 l 1
EndSplineSet
Validated: 1
EndChar

StartChar: logicalnot
Encoding: 172 172 106
Width: 584
Flags: MW
LayerCount: 2
Fore
SplineSet
128 376 m 5
 632 376 l 5
 571 86 l 5
 452 86 l 5
 488 256 l 5
 103 256 l 5
 128 376 l 5
EndSplineSet
Validated: 1
EndChar

StartChar: registered
Encoding: 174 174 107
Width: 737
Flags: MW
LayerCount: 2
Fore
SplineSet
480 168 m 0
 480 205 500 261 500 278 c 0
 500 302 483 313 447 313 c 2
 356 313 l 1
 319 140 l 1
 223 140 l 1
 317 582 l 1
 555 582 l 2
 621 582 654 552 654 493 c 0
 654 429 621 382 557 353 c 1
 585 340 596 326 596 304 c 0
 596 287 593 266 581 195 c 1
 580 182 l 1
 580 173 583 167 592 161 c 1
 587 140 l 1
 485 140 l 1
 481 153 480 159 480 168 c 0
475 394 m 2
 517 394 553 406 553 469 c 0
 553 493 538 502 498 502 c 2
 396 502 l 1
 373 394 l 1
 475 394 l 2
530 743 m 0
 708 743 837 615 837 440 c 0
 837 201 608 -22 361 -22 c 0
 185 -22 55 106 55 281 c 0
 55 520 284 743 530 743 c 0
514 671 m 0
 318 671 135 489 135 295 c 0
 135 154 237 50 377 50 c 0
 574 50 757 232 757 427 c 0
 757 568 654 671 514 671 c 0
EndSplineSet
Validated: 1
EndChar

StartChar: macron
Encoding: 175 175 108
Width: 333
Flags: HMW
LayerCount: 2
Fore
SplineSet
464 702 m 1
 447 622 l 1
 147 622 l 1
 164 702 l 1
 464 702 l 1
EndSplineSet
Validated: 3073
EndChar

StartChar: degree
Encoding: 176 176 109
Width: 606
Flags: MW
LayerCount: 2
Fore
SplineSet
391 686 m 0
 475 686 543 618 543 535 c 0
 543 450 475 383 390 383 c 0
 308 383 240 452 240 535 c 0
 240 618 308 686 391 686 c 0
392 623 m 0
 343 623 303 583 303 534 c 0
 303 487 343 446 390 446 c 0
 440 446 480 485 480 535 c 0
 480 583 440 623 392 623 c 0
EndSplineSet
Validated: 1
EndChar

StartChar: plusminus
Encoding: 177 177 110
Width: 584
Flags: MW
LayerCount: 2
Fore
SplineSet
630 452 m 1
 605 332 l 1
 422 332 l 1
 387 170 l 1
 268 170 l 1
 303 332 l 1
 121 332 l 1
 146 452 l 1
 328 452 l 1
 367 633 l 1
 486 633 l 1
 447 452 l 1
 630 452 l 1
559 119 m 1
 534 0 l 1
 50 0 l 1
 75 119 l 1
 559 119 l 1
EndSplineSet
Validated: 1
EndChar

StartChar: twosuperior
Encoding: 178 178 111
Width: 350
Flags: HMW
LayerCount: 2
Fore
SplineSet
457 719 m 4
 457 576 270 534 221 470 c 5
 405 470 l 5
 388 390 l 5
 82 390 l 5
 135 595 364 571 364 706 c 4
 364 735 345 752 312 752 c 4
 269 752 243 721 237 663 c 5
 146 663 l 5
 162 767 225 824 324 824 c 4
 408 824 457 785 457 719 c 4
EndSplineSet
Validated: 3073
EndChar

StartChar: threesuperior
Encoding: 179 179 112
Width: 350
Flags: HMW
LayerCount: 2
Fore
SplineSet
250 571 m 5
 263 634 l 5
 267 633 272 633 273 633 c 4
 326 633 360 661 360 706 c 4
 360 730 342 746 315 746 c 4
 277 746 259 727 247 671 c 5
 160 671 l 5
 180 773 233 818 332 818 c 4
 413 818 460 784 460 725 c 4
 460 679 436 641 389 612 c 5
 418 594 432 571 432 539 c 4
 432 440 357 371 248 371 c 4
 165 371 117 410 117 478 c 4
 117 490 118 498 121 514 c 5
 212 514 l 5
 210 506 210 502 210 496 c 4
 210 465 229 449 266 449 c 4
 306 449 339 482 339 522 c 4
 339 556 317 570 263 571 c 6
 250 571 l 5
EndSplineSet
Validated: 3073
EndChar

StartChar: acute
Encoding: 180 180 113
Width: 333
Flags: MW
LayerCount: 2
Fore
SplineSet
475 757 m 1
 317 607 l 1
 247 607 l 1
 349 757 l 1
 475 757 l 1
EndSplineSet
Validated: 1
EndChar

StartChar: paragraph
Encoding: 182 182 115
Width: 556
Flags: MW
LayerCount: 2
Fore
SplineSet
121 435 m 0
 121 553 216 729 382 729 c 2
 684 729 l 1
 669 656 l 1
 625 656 l 1
 445 -191 l 1
 347 -191 l 1
 527 656 l 1
 465 656 l 1
 285 -191 l 1
 187 -191 l 1
 284 267 l 1
 184 272 121 337 121 435 c 0
EndSplineSet
Validated: 1
EndChar

StartChar: middot
Encoding: 183 183 116
Width: 278
Flags: MW
LayerCount: 2
Fore
SplineSet
270 282 m 1
 248 182 l 1
 143 182 l 1
 165 282 l 1
 270 282 l 1
EndSplineSet
Validated: 1
EndChar

StartChar: cedilla
Encoding: 184 184 117
Width: 333
Flags: MW
LayerCount: 2
Fore
SplineSet
154 0 m 1
 204 0 l 1
 163 -62 l 1
 179 -58 191 -56 206 -56 c 0
 246 -56 270 -77 270 -113 c 0
 270 -178 210 -220 120 -220 c 0
 75 -220 43 -213 -13 -191 c 1
 17 -140 l 1
 64 -163 87 -170 115 -170 c 0
 153 -170 183 -150 183 -126 c 0
 183 -106 165 -93 139 -93 c 0
 122 -93 110 -96 86 -106 c 1
 154 0 l 1
EndSplineSet
Validated: 1
EndChar

StartChar: onesuperior
Encoding: 185 185 118
Width: 248
Flags: HMW
LayerCount: 2
Fore
SplineSet
271 679 m 5
 165 679 l 5
 178 740 l 5
 256 740 306 765 330 815 c 5
 393 815 l 5
 303 390 l 5
 209 390 l 5
 271 679 l 5
EndSplineSet
Validated: 3073
EndChar

StartChar: ordmasculine
Encoding: 186 186 119
Width: 365
Flags: MW
LayerCount: 2
Fore
SplineSet
410 342 m 1
 393 262 l 1
 92 262 l 1
 109 342 l 1
 410 342 l 1
140 506 m 0
 140 621 215 729 339 729 c 0
 421 729 471 684 471 610 c 0
 471 486 391 386 269 386 c 0
 190 386 140 432 140 506 c 0
326 661 m 0
 272 661 227 597 227 520 c 0
 227 477 250 449 285 449 c 0
 339 449 384 514 384 590 c 0
 384 633 361 661 326 661 c 0
EndSplineSet
Validated: 1
EndChar

StartChar: guillemotright
Encoding: 187 187 120
Width: 556
Flags: MW
LayerCount: 2
Fore
SplineSet
326 335 m 1
 302 220 l 1
 103 72 l 1
 128 189 l 1
 248 278 l 1
 166 367 l 1
 190 481 l 1
 326 335 l 1
533 335 m 1
 509 220 l 1
 310 72 l 1
 335 189 l 1
 455 278 l 1
 373 367 l 1
 397 481 l 1
 533 335 l 1
EndSplineSet
Validated: 1
EndChar

StartChar: onequarter
Encoding: 188 188 121
Width: 869
Flags: HMW
LayerCount: 2
Fore
SplineSet
262 607 m 5
 156 607 l 5
 169 668 l 5
 247 668 297 693 321 743 c 5
 384 743 l 5
 294 318 l 5
 200 318 l 5
 262 607 l 5
733 715 m 1
 818 715 l 1
 237 -20 l 1
 152 -20 l 1
 733 715 l 1
881 166 m 1
 865 93 l 1
 819 93 l 1
 800 0 l 1
 706 0 l 1
 726 93 l 1
 549 93 l 1
 565 165 l 1
 782 425 l 1
 890 425 l 1
 835 166 l 1
 881 166 l 1
742 166 m 1
 777 332 l 1
 637 166 l 1
 742 166 l 1
EndSplineSet
Validated: 3073
EndChar

StartChar: onehalf
Encoding: 189 189 122
Width: 869
Flags: HMW
LayerCount: 2
Fore
SplineSet
268 607 m 5
 162 607 l 5
 175 668 l 5
 253 668 303 693 327 743 c 5
 390 743 l 5
 300 318 l 5
 206 318 l 5
 268 607 l 5
738 715 m 1
 823 715 l 1
 242 -20 l 1
 157 -20 l 1
 738 715 l 1
915 329 m 0
 915 186 728 144 679 80 c 1
 863 80 l 1
 846 0 l 1
 540 0 l 1
 593 205 822 181 822 316 c 0
 822 345 803 362 770 362 c 0
 727 362 701 331 695 273 c 1
 604 273 l 1
 620 377 683 434 782 434 c 0
 866 434 915 395 915 329 c 0
EndSplineSet
Validated: 3073
EndChar

StartChar: threequarters
Encoding: 190 190 123
Width: 869
Flags: HMW
LayerCount: 2
Fore
SplineSet
257 495 m 5
 270 558 l 5
 274 557 279 557 280 557 c 4
 333 557 367 585 367 630 c 4
 367 654 349 670 322 670 c 4
 284 670 266 651 254 595 c 5
 167 595 l 5
 187 697 240 742 339 742 c 4
 420 742 467 708 467 649 c 4
 467 603 443 565 396 536 c 5
 425 518 439 495 439 463 c 4
 439 364 364 295 255 295 c 4
 172 295 124 334 124 402 c 4
 124 414 125 422 128 438 c 5
 219 438 l 5
 217 430 217 426 217 420 c 4
 217 389 236 373 273 373 c 4
 313 373 346 406 346 446 c 4
 346 480 324 494 270 495 c 6
 257 495 l 5
775 715 m 1
 860 715 l 1
 279 -20 l 1
 194 -20 l 1
 775 715 l 1
878 166 m 1
 862 93 l 1
 816 93 l 1
 797 0 l 1
 703 0 l 1
 723 93 l 1
 546 93 l 1
 562 165 l 1
 779 425 l 1
 887 425 l 1
 832 166 l 1
 878 166 l 1
739 166 m 1
 774 332 l 1
 634 166 l 1
 739 166 l 1
EndSplineSet
Validated: 3073
EndChar

StartChar: AE
Encoding: 198 198 131
Width: 1000
Flags: MW
LayerCount: 2
Fore
SplineSet
464 152 m 1
 245 152 l 1
 160 0 l 1
 1 0 l 1
 421 729 l 1
 1104 729 l 1
 1078 604 l 1
 711 604 l 1
 675 439 l 1
 1014 439 l 1
 988 314 l 1
 649 314 l 1
 609 125 l 1
 995 125 l 1
 968 0 l 1
 432 0 l 1
 464 152 l 1
491 277 m 1
 561 604 l 1
 495 604 l 1
 310 277 l 1
 491 277 l 1
EndSplineSet
Validated: 1
EndChar

StartChar: Ccedilla
Encoding: 199 199 132
Width: 722
Flags: MW
LayerCount: 2
Fore
SplineSet
516 613 m 0
 297 613 256 335 256 265 c 0
 256 159 306 105 403 105 c 0
 499 105 570 157 599 249 c 1
 742 249 l 1
 701 82 565 -22 389 -23 c 1
 363 -63 l 1
 377 -58 391 -56 406 -56 c 0
 446 -56 470 -77 470 -113 c 0
 470 -178 410 -220 319 -220 c 0
 275 -220 243 -213 186 -191 c 1
 216 -140 l 1
 264 -163 287 -170 315 -170 c 0
 353 -170 383 -150 383 -126 c 0
 383 -106 365 -93 339 -93 c 0
 322 -93 310 -96 285 -106 c 1
 340 -22 l 1
 199 -11 107 90 107 235 c 0
 107 517 289 741 533 741 c 0
 688 741 793 656 793 531 c 0
 793 520 792 508 789 482 c 1
 648 482 l 1
 648 559 615 613 516 613 c 0
EndSplineSet
Validated: 1
EndChar

StartChar: Eth
Encoding: 208 208 141
Width: 722
Flags: MW
LayerCount: 2
Fore
SplineSet
150 341 m 1
 73 341 l 1
 90 421 l 1
 166 421 l 1
 232 729 l 1
 517 729 l 2
 698 729 776 654 776 479 c 0
 776 361 735 238 664 140 c 0
 591 39 507 0 362 0 c 2
 77 0 l 1
 150 341 l 1
300 341 m 1
 254 125 l 1
 388 125 l 2
 475 125 524 153 567 228 c 0
 601 287 627 390 627 469 c 0
 627 560 582 604 490 604 c 2
 355 604 l 1
 316 421 l 1
 490 421 l 1
 473 341 l 1
 300 341 l 1
EndSplineSet
Validated: 1
EndChar

StartChar: multiply
Encoding: 215 215 148
Width: 584
Flags: MW
LayerCount: 2
Fore
SplineSet
516 444 m 1
 582 360 l 1
 425 231 l 1
 526 102 l 1
 424 18 l 1
 323 147 l 1
 168 19 l 1
 102 103 l 1
 257 231 l 1
 156 359 l 1
 258 444 l 1
 359 315 l 1
 516 444 l 1
EndSplineSet
Validated: 1
EndChar

StartChar: Oslash
Encoding: 216 216 149
Width: 778
Flags: MW
LayerCount: 2
Fore
SplineSet
181 56 m 1
 75 -39 l 1
 34 7 l 1
 145 106 l 1
 122 150 109 204 109 263 c 0
 109 377 157 503 234 595 c 0
 317 692 422 741 547 741 c 0
 641 741 713 714 763 659 c 1
 864 749 l 1
 906 704 l 1
 798 607 l 1
 821 560 832 510 832 452 c 0
 832 339 785 215 707 123 c 0
 625 27 519 -23 395 -23 c 0
 302 -23 228 4 181 56 c 1
678 500 m 1
 294 157 l 1
 323 123 367 105 421 105 c 0
 497 105 561 140 611 210 c 0
 656 271 683 358 683 439 c 0
 683 460 682 478 678 500 c 1
521 613 m 0
 302 613 258 350 258 281 c 0
 258 258 260 235 264 213 c 1
 650 557 l 1
 620 594 577 613 521 613 c 0
EndSplineSet
Validated: 1
EndChar

StartChar: Thorn
Encoding: 222 222 155
Width: 667
Flags: MW
LayerCount: 2
Fore
SplineSet
514 609 m 2
 682 609 721 508 721 440 c 0
 721 363 687 278 633 221 c 0
 579 164 522 140 443 140 c 2
 256 140 l 1
 226 0 l 1
 76 0 l 1
 231 729 l 1
 381 729 l 1
 355 609 l 1
 514 609 l 2
435 265 m 2
 545 265 572 347 572 405 c 0
 572 452 536 484 482 484 c 2
 329 484 l 1
 282 265 l 1
 435 265 l 2
EndSplineSet
Validated: 1
EndChar

StartChar: ssharp
Encoding: 223 223 156
Width: 611
Flags: HMW
LayerCount: 2
Fore
SplineSet
539.887 411 m 1
 567.448 405.042 636.408 383.873 636.408 291.392 c 0
 636.408 102.218 493.332 -23 361.69 -23 c 0
 339.69 -23 309.075 -17 282.461 -11 c 1
 306.701 94 l 1
 317.634 89.512 333.25 87 348.086 87 c 0
 423.507 87 490.736 168.107 490.736 258.07 c 0
 490.736 317.78 447.422 349 365.573 349 c 1
 387.506 444 l 1
 453.997 444 517.668 481.174 517.668 554.424 c 0
 517.668 593.4 488.299 616 436.215 616 c 0
 381.215 616 342.52 587 330.977 537 c 2
 207 0 l 1
 67 0 l 1
 186.59 518 l 2
 212.678 631 282.303 729 471.303 729 c 0
 589.407 729 662.88 671.598 662.88 585.586 c 0
 662.88 495.96 608.129 435.184 539.887 411 c 1
EndSplineSet
Validated: 3073
EndChar

StartChar: ae
Encoding: 230 230 163
Width: 892
Flags: MW
LayerCount: 2
Fore
SplineSet
718 549 m 0
 848 549 927 461 927 351 c 0
 927 313 921 271 909 226 c 1
 547 226 l 1
 541 200 540 189 540 175 c 0
 540 124 579 89 636 89 c 0
 685 89 730 114 750 152 c 1
 888 152 l 1
 835 45 726 -23 606 -23 c 0
 518 -23 453 13 425 77 c 1
 355 2 301 -23 209 -23 c 0
 112 -23 54 25 54 106 c 0
 54 144 72 280 256 311 c 2
 313 320 l 2
 363 327 440 331 440 394 c 0
 440 424 418 437 367 437 c 0
 303 437 272 417 255 362 c 1
 124 362 l 1
 137 425 154 459 187 488 c 0
 232 528 302 549 392 549 c 0
 469 549 521 533 553 500 c 1
 599 531 659 549 718 549 c 0
404 216 m 1
 412 254 l 1
 400 248 397 247 386 244 c 0
 382 244 375 242 365 241 c 2
 299 230 l 2
 234 219 197 186 197 139 c 0
 197 106 222 89 268 89 c 0
 338 89 386 134 404 216 c 1
784 319 m 1
 784 346 l 2
 784 404 753 437 699 437 c 0
 635 437 589 396 568 319 c 1
 784 319 l 1
EndSplineSet
Validated: 3073
EndChar

StartChar: ccedilla
Encoding: 231 231 164
Width: 556
Flags: HMW
LayerCount: 2
Fore
SplineSet
561 187 m 1
 510 25 382 -23 301 -23 c 0
 296.667 -23 292.333 -23 288 -23 c 1
 262 -62 l 1
 277 -58 289 -56 305 -56 c 0
 345 -56 369 -77 369 -113 c 0
 369 -178 309 -220 218 -220 c 0
 174 -220 141 -213 85 -191 c 1
 115 -139 l 1
 162 -163 186 -170 214 -170 c 0
 252 -170 282 -150 282 -126 c 0
 282 -106 264 -93 238 -93 c 0
 221 -93 209 -96 184 -106 c 1
 241 -19 l 1
 86 11 77 133 77 173 c 0
 77 267 119 384 177 454 c 0
 230 517 304 549 398 549 c 0
 522 549 597 474 597 381 c 0
 597 371 596 362 593 338 c 1
 459 338 l 1
 458 394 451 437 377 437 c 0
 322 437 285 411 257 352 c 0
 233 304 220 245 220 192 c 0
 220 123 249 89 309 89 c 0
 363 89 396 116 427 187 c 1
 561 187 l 1
EndSplineSet
Validated: 1
EndChar

StartChar: eth
Encoding: 240 240 173
Width: 611
Flags: MW
LayerCount: 2
Fore
SplineSet
83 178 m 0
 83 253 125 530 362 530 c 0
 394 530 414 524 452 503 c 1
 428 544 393 582 355 609 c 1
 258 564 l 1
 217 607 l 1
 305 648 l 1
 279 666 273 670 235 694 c 1
 305 744 l 1
 325 735 364 717 400 693 c 1
 504 738 l 1
 547 695 l 1
 454 654 l 1
 584 558 633 473 633 345 c 0
 633 140 502 -23 305 -23 c 0
 166 -23 83 52 83 178 c 0
491 326 m 0
 491 410 430 431 387 431 c 0
 252 431 227 256 227 206 c 0
 227 107 288 89 326 89 c 0
 420 89 491 190 491 326 c 0
EndSplineSet
Validated: 1
EndChar

StartChar: divide
Encoding: 247 247 180
Width: 584
Flags: MW
LayerCount: 2
Fore
SplineSet
606 292 m 1
 581 172 l 1
 77 172 l 1
 102 292 l 1
 606 292 l 1
318 124 m 0
 347 124 368 103 368 73 c 0
 368 36 331 0 292 0 c 0
 263 0 242 21 242 49 c 0
 242 88 279 124 318 124 c 0
390 462 m 0
 419 462 440 441 440 411 c 0
 440 374 403 338 363 338 c 0
 335 338 314 359 314 387 c 0
 314 425 351 462 390 462 c 0
EndSplineSet
Validated: 1
EndChar

StartChar: oslash
Encoding: 248 248 181
Width: 611
Flags: MW
LayerCount: 2
Fore
SplineSet
636 344 m 0
 636 151 505 -23 304 -23 c 0
 233 -23 175 -2 135 36 c 1
 46 -38 l 1
 12 2 l 1
 105 80 l 1
 91 110 84 143 84 178 c 0
 84 369 209 549 417 549 c 0
 490 549 551 527 590 486 c 1
 675 557 l 1
 709 516 l 1
 618 440 l 1
 630 411 636 379 636 344 c 0
328 89 m 0
 461 89 494 266 494 321 c 0
 494 324 494 329 493 336 c 1
 246 129 l 1
 263 104 294 89 328 89 c 0
395 437 m 0
 261 437 227 261 227 208 c 0
 227 199 227 194 228 183 c 1
 478 392 l 1
 460 421 430 437 395 437 c 0
EndSplineSet
Validated: 1
EndChar

StartChar: thorn
Encoding: 254 254 187
Width: 611
Flags: HMW
LayerCount: 2
Fore
SplineSet
352 729 m 1
 295 460 l 1
 341 519 397 549 464 549 c 0
 569 549 637 468 637 343 c 0
 637 142 505 -23 344 -23 c 0
 274 -23 232 5 211 64 c 1
 151 -218 l 1
 11 -218 l 1
 212 729 l 1
 352 729 l 1
406 437 m 0
 320 437 246 327 246 202 c 0
 246 134 281 89 334 89 c 0
 420 89 494 197 494 323 c 0
 494 392 459 437 406 437 c 0
EndSplineSet
Validated: 3073
EndChar

StartChar: Aogonek
Encoding: 260 260 193
Width: 722
Flags: HMW
AnchorPoint: "above" 519 723 basechar 0
LayerCount: 2
Fore
SplineSet
469 -155 m 0
 469 -61 581 -15 625 0 c 1
 550 0 l 1
 532 147 l 1
 260 147 l 1
 179 0 l 1
 26 0 l 1
 433 729 l 1
 606 729 l 1
 703 0 l 1
 625 -32 569 -91 569 -140 c 0
 569 -170 586 -183 624 -183 c 0
 650 -183 672 -180 696 -172 c 1
 685 -224 l 1
 654 -231 633 -233 605 -233 c 0
 518 -233 469 -205 469 -155 c 0
518 272 m 1
 483 555 l 1
 329 272 l 1
 518 272 l 1
EndSplineSet
Validated: 3073
EndChar

StartChar: aogonek
Encoding: 261 261 194
Width: 556
Flags: HMW
AnchorPoint: "above" 391 550 basechar 0
LayerCount: 2
Fore
SplineSet
386 549 m 0
 547 549 578 476 578 428 c 0
 578 416 576 401 572 383 c 2
 509 83 l 1
 507 75 506 68 506 62 c 0
 506 47 512 34 527 17 c 1
 523 0 l 1
 435 -47 392 -93 392 -140 c 0
 392 -169 408 -183 443 -183 c 0
 474 -183 495 -180 519 -172 c 1
 509 -224 l 1
 477 -231 457 -233 428 -233 c 0
 340 -233 293 -206 293 -154 c 0
 293 -92 346 -39 449 0 c 1
 370 0 l 1
 365 11 363 17 363 27 c 0
 363 34 363 39 366 54 c 1
 306 0 257 -23 199 -23 c 0
 110 -23 50 30 50 108 c 0
 50 149 80 282 252 311 c 2
 310 320 l 2
 359 327 436 331 436 394 c 0
 436 424 414 437 363 437 c 0
 299 437 268 417 251 362 c 1
 120 362 l 1
 148 492 229 549 386 549 c 0
400 217 m 1
 408 255 l 1
 391 245 392 247 361 241 c 2
 295 230 l 2
 230 219 193 186 193 139 c 0
 193 106 218 89 266 89 c 0
 334 89 382 135 400 217 c 1
EndSplineSet
Validated: 3073
EndChar

StartChar: Dcroat
Encoding: 272 272 205
Width: 722
Flags: MW
LayerCount: 2
Fore
SplineSet
150 341 m 1
 73 341 l 1
 90 421 l 1
 166 421 l 1
 232 729 l 1
 517 729 l 2
 698 729 776 654 776 479 c 0
 776 361 735 238 664 140 c 0
 591 39 507 0 362 0 c 2
 77 0 l 1
 150 341 l 1
300 341 m 1
 254 125 l 1
 388 125 l 2
 475 125 524 153 567 228 c 0
 601 287 627 390 627 469 c 0
 627 560 582 604 490 604 c 2
 355 604 l 1
 316 421 l 1
 490 421 l 1
 473 341 l 1
 300 341 l 1
EndSplineSet
Validated: 1
EndChar

StartChar: dcroat
Encoding: 273 273 206
Width: 611
Flags: MW
LayerCount: 2
Fore
SplineSet
546 663 m 1
 560 729 l 1
 700 729 l 1
 686 663 l 1
 746 663 l 1
 732 596 l 1
 672 596 l 1
 545 0 l 1
 405 0 l 1
 417 55 l 1
 371 2 318 -23 251 -23 c 0
 147 -23 79 59 79 185 c 0
 79 267 108 357 157 428 c 0
 210 503 291 549 372 549 c 0
 440 549 482 524 505 470 c 1
 532 596 l 1
 392 596 l 1
 406 663 l 1
 546 663 l 1
380 437 m 0
 297 437 222 327 222 206 c 0
 222 134 256 89 309 89 c 0
 394 89 468 197 468 323 c 0
 468 392 434 437 380 437 c 0
EndSplineSet
Validated: 1
EndChar

StartChar: Eogonek
Encoding: 280 280 213
Width: 667
Flags: HMW
AnchorPoint: "above" 519 723 basechar 0
LayerCount: 2
Fore
SplineSet
395 -156 m 0
 395 -98 442 -37 551 0 c 1
 79 0 l 1
 234 729 l 1
 762 729 l 1
 735 604 l 1
 357 604 l 1
 322 439 l 1
 671 439 l 1
 645 314 l 1
 296 314 l 1
 256 125 l 1
 651 125 l 1
 624 0 l 1
 533 -51 495 -93 495 -143 c 0
 495 -170 512 -183 549 -183 c 0
 576 -183 598 -180 622 -172 c 1
 611 -224 l 1
 580 -231 559 -233 531 -233 c 0
 444 -233 395 -205 395 -156 c 0
EndSplineSet
Validated: 3073
EndChar

StartChar: eogonek
Encoding: 281 281 214
Width: 556
Flags: HMW
AnchorPoint: "above" 381 550 basechar 0
LayerCount: 2
Fore
SplineSet
552 152 m 1
 488 19 321 -38 321 -140 c 0
 321 -168 339 -183 372 -183 c 0
 398 -183 423 -179 443 -172 c 1
 432 -224 l 1
 401 -230 380 -233 356 -233 c 0
 271 -233 222 -203 222 -152 c 0
 222 -101 249 -69 335 -17 c 1
 308 -22 295 -24 276 -24 c 0
 150 -24 64 61 64 184 c 0
 64 264 111 549 379 549 c 0
 507 549 591 467 591 351 c 0
 591 313 585 271 573 226 c 1
 210 226 l 1
 207 198 207 190 207 181 c 0
 207 126 245 89 302 89 c 0
 350 89 394 114 414 152 c 1
 552 152 l 1
448 334 m 2
 448 389 432 437 362 437 c 0
 282 437 245 379 228 319 c 1
 448 319 l 1
 448 334 l 2
EndSplineSet
Validated: 3073
EndChar

StartChar: Hbar
Encoding: 294 294 227
Width: 722
Flags: MW
LayerCount: 2
Fore
SplineSet
707 599 m 1
 767 599 l 1
 753 532 l 1
 693 532 l 1
 580 0 l 1
 430 0 l 1
 500 331 l 1
 211 331 l 1
 141 0 l 1
 -9 0 l 1
 104 532 l 1
 44 532 l 1
 58 599 l 1
 118 599 l 1
 145 729 l 1
 295 729 l 1
 268 599 l 1
 556 599 l 1
 583 729 l 1
 734 729 l 1
 707 599 l 1
542 532 m 1
 254 532 l 1
 237 456 l 1
 525 456 l 1
 542 532 l 1
EndSplineSet
Validated: 1
EndChar

StartChar: hbar
Encoding: 295 295 228
Width: 611
Flags: HMW
LayerCount: 2
Fore
SplineSet
482 549 m 0
 542 549 625 523 625 421 c 0
 625 403 623 384 618 362 c 2
 542 0 l 1
 402 0 l 1
 472 330 l 2
 475 346 477 358 477 367 c 0
 477 409 447 430 407 430 c 0
 344 430 290 386 276 324 c 2
 208 0 l 1
 68 0 l 1
 194 596 l 1
 135 596 l 1
 149 663 l 1
 208 663 l 1
 222 729 l 1
 362 729 l 1
 348 663 l 1
 482 663 l 1
 468 596 l 1
 334 596 l 1
 306 462 l 1
 357 521 413 549 482 549 c 0
EndSplineSet
Validated: 3073
EndChar

StartChar: Iogonek
Encoding: 302 302 235
Width: 278
Flags: HMW
AnchorPoint: "above" 297 723 basechar 0
LayerCount: 2
Fore
SplineSet
368 729 m 1
 213 0 l 1
 153 -32 104 -95 104 -139 c 0
 104 -167 121 -183 150 -183 c 0
 164 -183 192 -178 210 -172 c 1
 199 -224 l 1
 165 -231 151 -233 128 -233 c 0
 53 -233 7 -204 7 -155 c 0
 7 -98 49 -50 139 0 c 1
 63 0 l 1
 218 729 l 1
 368 729 l 1
EndSplineSet
Validated: 3073
EndChar

StartChar: iogonek
Encoding: 303 303 236
Width: 278
Flags: HMW
AnchorPoint: "above" 279 723 basechar 0
LayerCount: 2
Fore
SplineSet
311 540 m 1
 196 0 l 1
 132 -45 96 -95 96 -140 c 0
 96 -167 112 -182 143 -182 c 0
 158 -182 163 -181 193 -172 c 1
 182 -224 l 1
 141 -233 138 -233 119 -233 c 0
 45 -233 0 -202 0 -150 c 0
 0 -98 36 -56 129 0 c 1
 56 0 l 1
 171 540 l 1
 311 540 l 1
351 729 m 1
 325 604 l 1
 185 604 l 1
 211 729 l 1
 351 729 l 1
EndSplineSet
Validated: 3073
MultipleSubs2: "Glyph Decomposition of iogonek-subtable" dotlessi ogonekcmb
EndChar

StartChar: dotlessi
Encoding: 305 305 238
Width: 278
Flags: HMW
AnchorPoint: "ogonek" 177 0 basechar 0
AnchorPoint: "below" 140 0 basechar 0
AnchorPoint: "above" 261 550 basechar 0
LayerCount: 2
Fore
SplineSet
322 540 m 1
 207 0 l 1
 67 0 l 1
 182 540 l 1
 322 540 l 1
EndSplineSet
Validated: 3073
EndChar

StartChar: IJ
Encoding: 306 306 239
Width: 595
Flags: HMW
LayerCount: 2
Fore
SplineSet
368 729 m 1
 291 368 l 1
 141 368 l 1
 218 729 l 1
 368 729 l 1
530 729 m 1
 680 729 l 1
 565 190 l 2
 549 114 514 55 465 23 c 0
 422 -5 352 -23 286 -23 c 0
 169 -23 98 36 98 133 c 0
 98 154 100 176 105 198 c 0
 120 270 l 1
 270 270 l 1
 254 193 l 1
 251 180 250 169 250 159 c 0
 250 127 277 105 316 105 c 0
 369 105 403 135 415 190 c 0
 530 729 l 1
EndSplineSet
Validated: 3073
LCarets2: 1 0 
Ligature2: "'liga' Standard Ligatures in Latin for Dutch subtable" I J
EndChar

StartChar: kgreenlandic
Encoding: 312 312 245
Width: 529
Flags: MW
LayerCount: 2
Fore
SplineSet
274 351 m 1
 476 540 l 1
 624 540 l 1
 358 296 l 1
 548 0 l 1
 366 0 l 1
 241 198 l 1
 199 0 l 1
 59 0 l 1
 174 540 l 1
 314 540 l 1
 274 351 l 1
EndSplineSet
Validated: 1
EndChar

StartChar: Lslash
Encoding: 321 321 254
Width: 611
Flags: MW
LayerCount: 2
Fore
SplineSet
338 421 m 1
 525 531 l 1
 505 437 l 1
 318 327 l 1
 275 125 l 1
 624 125 l 1
 597 0 l 1
 98 0 l 1
 154 262 l 1
 54 201 l 1
 74 295 l 1
 174 356 l 1
 253 729 l 1
 403 729 l 1
 338 421 l 1
EndSplineSet
Validated: 1
EndChar

StartChar: lslash
Encoding: 322 322 255
Width: 278
Flags: MW
LayerCount: 2
Fore
SplineSet
296 435 m 1
 372 480 l 1
 355 398 l 1
 279 353 l 1
 204 0 l 1
 64 0 l 1
 126 294 l 1
 50 246 l 1
 67 329 l 1
 143 376 l 1
 219 729 l 1
 359 729 l 1
 296 435 l 1
EndSplineSet
Validated: 1
EndChar

StartChar: OE
Encoding: 338 338 269
Width: 1000
Flags: MW
LayerCount: 2
Fore
SplineSet
692 314 m 1
 652 125 l 1
 997 125 l 1
 971 0 l 1
 481 0 l 1
 493 59 l 1
 437 -1 393 -23 326 -23 c 0
 185 -23 90 84 90 245 c 0
 90 377 146 527 230 619 c 0
 303 700 388 741 482 741 c 0
 548 741 588 723 625 677 c 1
 636 729 l 1
 1107 729 l 1
 1080 604 l 1
 754 604 l 1
 719 439 l 1
 1017 439 l 1
 990 314 l 1
 692 314 l 1
482 613 m 0
 288 613 239 354 239 274 c 0
 239 168 292 105 383 105 c 0
 436 105 474 126 513 178 c 1
 590 540 l 1
 571 591 538 613 482 613 c 0
EndSplineSet
Validated: 1
EndChar

StartChar: oe
Encoding: 339 339 270
Width: 962
Flags: HMW
LayerCount: 2
Fore
SplineSet
789 549 m 0
 919 549 997 461 997 351 c 0
 997 313 991 271 979 226 c 1
 617 226 l 1
 611 200 610 188 610 174 c 0
 610 124 649 89 706 89 c 0
 755 89 800 114 820 152 c 1
 958 152 l 1
 905 45 796 -23 677 -23 c 0
 603 -23 537 6 509 50 c 1
 457 4 380 -23 299 -23 c 0
 165 -23 82 53 82 176 c 0
 82 370 209 549 414 549 c 0
 493 549 560 522 594 477 c 1
 640 522 714 549 789 549 c 0
324 89 m 0
 458 89 491 265 491 320 c 0
 491 391 452 437 391 437 c 0
 301 437 225 332 225 205 c 0
 225 135 264 89 324 89 c 0
854 319 m 1
 854 347 l 2
 854 404 823 437 769 437 c 0
 705 437 659 396 638 319 c 1
 854 319 l 1
EndSplineSet
Validated: 3073
EndChar

StartChar: Scedilla
Encoding: 350 350 281
Width: 667
Flags: MW
LayerCount: 2
Fore
SplineSet
151 472 m 0
 151 621 274 741 473 741 c 0
 631 741 725 677 725 569 c 0
 725 549 723 535 717 507 c 1
 577 507 l 1
 578 516 579 525 579 530 c 0
 579 584 532 613 447 613 c 0
 356 613 300 573 300 509 c 0
 300 471 327 455 421 436 c 2
 530 414 l 2
 632 394 687 342 687 265 c 0
 687 153 621 -20 347 -23 c 1
 320 -62 l 1
 335 -58 349 -56 364 -56 c 0
 403 -56 427 -77 427 -113 c 0
 427 -178 367 -220 277 -220 c 0
 232 -220 200 -213 144 -191 c 1
 174 -140 l 1
 221 -163 244 -170 273 -170 c 0
 310 -170 340 -150 340 -126 c 0
 340 -106 322 -93 296 -93 c 0
 279 -93 267 -96 243 -106 c 1
 298 -22 l 1
 153 0 76 55 76 174 c 0
 76 188 77 198 80 218 c 1
 226 218 l 1
 225 209 224 200 224 196 c 0
 224 138 276 105 367 105 c 0
 471 105 538 149 538 216 c 0
 538 262 509 283 418 301 c 2
 320 321 l 2
 201 345 151 389 151 472 c 0
EndSplineSet
Validated: 1
EndChar

StartChar: scedilla
Encoding: 351 351 282
Width: 556
Flags: MW
LayerCount: 2
Fore
SplineSet
127 345 m 0
 127 460 231 549 387 549 c 0
 513 549 589 494 589 404 c 0
 589 393 588 384 584 366 c 1
 449 366 l 1
 451 375 452 379 452 385 c 0
 452 417 419 437 364 437 c 0
 311 437 276 416 276 384 c 0
 276 364 290 354 341 339 c 2
 437 311 l 2
 520 286 559 247 559 187 c 0
 559 60 454 -22 288 -22 c 1
 262 -62 l 1
 277 -58 290 -56 305 -56 c 0
 344 -56 368 -77 368 -113 c 0
 368 -178 308 -220 218 -220 c 0
 173 -220 142 -213 85 -191 c 1
 115 -140 l 1
 162 -163 185 -170 213 -170 c 0
 251 -170 281 -150 281 -126 c 0
 281 -106 263 -93 237 -93 c 0
 220 -93 208 -96 184 -106 c 1
 238 -21 l 1
 202 -21 60 16 60 127 c 0
 60 135 61 143 64 157 c 1
 201 157 l 1
 204 99 265 89 307 89 c 0
 368 89 411 112 411 144 c 0
 411 167 398 176 335 196 c 2
 256 221 l 2
 168 250 127 289 127 345 c 0
EndSplineSet
Validated: 1
EndChar

StartChar: Tcedilla
Encoding: 354 354 285
Width: 611
Flags: M
LayerCount: 2
Fore
SplineSet
514 604 m 1
 385 0 l 1
 348.339 1.38778e-17 l 1
 308 -61 l 1
 324 -57 336 -55 351 -55 c 0
 391 -55 415 -76 415 -112 c 0
 415 -177 355 -219 265 -219 c 0
 220 -219 188 -212 132 -190 c 1
 162 -139 l 1
 209 -162 232 -169 260 -169 c 0
 298 -169 328 -149 328 -125 c 0
 328 -105 310 -92 284 -92 c 0
 267 -92 255 -95 231 -105 c 1
 298.358 1.11022e-16 l 1
 235 0 l 1
 364 604 l 1
 142 604 l 1
 169 729 l 1
 753 729 l 1
 726 604 l 1
 514 604 l 1
EndSplineSet
Validated: 1
EndChar

StartChar: tcedilla
Encoding: 355 355 286
Width: 333
Flags: HM
LayerCount: 2
Fore
SplineSet
414 529 m 1
 394 436 l 1
 316 436 l 1
 254 142 l 2
 250 125 248 113 248 108 c 0
 248 93 263 83 286 83 c 0
 297 83 305 84 319 86 c 1
 299 -12 l 1
 271 -20 247 -23 214 -23 c 0
 211.006 -23 208.067 -22.9478 205.184 -22.844 c 1
 174 -70 l 1
 190 -66 202 -64 217 -64 c 0
 257 -64 281 -85 281 -121 c 0
 281 -186 221 -228 131 -228 c 0
 86 -228 54 -221 -2 -199 c 1
 28 -148 l 1
 75 -171 98 -178 126 -178 c 0
 164 -178 194 -158 194 -134 c 0
 194 -114 176 -101 150 -101 c 0
 133 -101 121 -104 97 -114 c 1
 160.063 -15.6955 l 1
 121.547 -3.50975 101 23.5811 101 63 c 0
 101 76 103.046 89.9902 106 104 c 2
 176 436 l 1
 107 436 l 1
 127 529 l 1
 196 529 l 1
 227 674 l 1
 367 674 l 1
 336 529 l 1
 414 529 l 1
EndSplineSet
Validated: 3073
EndChar

StartChar: Uogonek
Encoding: 370 370 299
Width: 722
Flags: HMW
AnchorPoint: "above" 519 723 basechar 0
LayerCount: 2
Fore
SplineSet
569 -172 m 1
 558 -224 l 1
 528 -230 506 -233 482 -233 c 0
 393 -233 342 -205 342 -157 c 0
 342 -69 435 -27 473 -10 c 1
 423 -20 400 -23 368 -23 c 0
 215 -23 119 50 119 167 c 0
 119 189 123 222 130 255 c 2
 231 729 l 1
 381 729 l 1
 276 235 l 1
 273 219 271 205 271 190 c 0
 271 137 316 105 394 105 c 0
 485 105 535 145 554 235 c 2
 659 729 l 1
 809 729 l 1
 704 235 l 2
 659 38 553 45 474 -63 c 0
 452 -93 442 -117 442 -139 c 0
 442 -169 460 -183 498 -183 c 0
 524 -183 548 -179 569 -172 c 1
EndSplineSet
Validated: 3073
EndChar

StartChar: uogonek
Encoding: 371 371 300
Width: 611
Flags: HMW
AnchorPoint: "above" 421 550 basechar 0
LayerCount: 2
Fore
SplineSet
656 540 m 1
 541 0 l 1
 461 -41 416 -92 416 -142 c 0
 416 -169 434 -183 469 -183 c 0
 491 -183 515 -179 537 -172 c 1
 526 -224 l 1
 483 -233 482 -233 456 -233 c 0
 364 -233 317 -206 317 -154 c 0
 317 -94 365 -45 466 0 c 1
 401 0 l 1
 416 68 l 1
 362 4 308 -23 234 -23 c 0
 146 -23 88 29 88 109 c 0
 88 127 90 145 94 164 c 2
 174 540 l 1
 314 540 l 1
 244 213 l 1
 240 190 238 178 238 164 c 0
 238 115 264 89 314 89 c 0
 379 89 431 141 448 222 c 0
 516 540 l 1
 656 540 l 1
EndSplineSet
Validated: 3073
EndChar

StartChar: longs
Encoding: 383 383 312
Width: 333
Flags: MW
LayerCount: 2
Fore
SplineSet
230 0 m 1
 90 0 l 1
 183 436 l 1
 106 436 l 1
 126 529 l 1
 202 529 l 1
 216 594 l 2
 236 687 289 729 387 729 c 0
 405 729 422 728 464 726 c 1
 442 621 l 1
 415 624 410 625 400 625 c 0
 375 625 360 611 354 582 c 0
 230 0 l 1
EndSplineSet
Validated: 1
EndChar

StartChar: florin
Encoding: 402 402 313
Width: 333
Flags: HMW
LayerCount: 2
Fore
SplineSet
425.442 529 m 5
 405.675 436 l 5
 322.675 436 l 5
 210.02 -94 l 6
 191.314 -182 147.663 -218 60.6631 -218 c 4
 40.6631 -218 6.08789 -216 -21.2744 -213 c 5
 2.53223 -101 l 5
 11.8945 -104 17.6816 -105 26.6816 -105 c 4
 56.6816 -105 70.0195 -94 76.6094 -63 c 6
 182.675 436 l 5
 106.675 436 l 5
 126.442 529 l 5
 202.442 529 l 5
 216.259 594 l 6
 235.602 685 289.954 729 382.954 729 c 4
 401.954 729 436.741 728 462.316 726 c 5
 439.998 621 l 5
 428.423 623 412.636 624 400.636 624 c 4
 374.636 624 359.659 610 353.708 582 c 6
 342.442 529 l 5
 425.442 529 l 5
EndSplineSet
Validated: 3073
EndChar

StartChar: circumflex
Encoding: 710 710 318
Width: 333
Flags: MW
LayerCount: 2
Fore
SplineSet
274 757 m 1
 382 757 l 1
 453 610 l 1
 375 610 l 1
 314 707 l 1
 211 610 l 1
 135 610 l 1
 274 757 l 1
EndSplineSet
Validated: 1
EndChar

StartChar: caron
Encoding: 711 711 319
Width: 333
Flags: MW
LayerCount: 2
Fore
SplineSet
346 610 m 1
 238 610 l 1
 167 757 l 1
 245 757 l 1
 306 660 l 1
 409 757 l 1
 485 757 l 1
 346 610 l 1
EndSplineSet
Validated: 1
EndChar

StartChar: breve
Encoding: 728 728 320
Width: 333
Flags: MW
LayerCount: 2
Fore
SplineSet
413 754 m 1
 455 754 l 1
 441 672 373 611 294 611 c 0
 231 611 188 653 188 715 c 0
 188 727 189 736 194 754 c 1
 236 754 l 1
 236 746 l 2
 236 710 263 689 310 689 c 0
 361 689 396 711 413 754 c 1
EndSplineSet
Validated: 1
EndChar

StartChar: dotaccent
Encoding: 729 729 321
Width: 333
Flags: MW
LayerCount: 2
Fore
SplineSet
377 741 m 1
 351 621 l 1
 241 621 l 1
 267 741 l 1
 377 741 l 1
EndSplineSet
Validated: 1
EndChar

StartChar: ring
Encoding: 730 730 322
Width: 333
Flags: MW
LayerCount: 2
Fore
SplineSet
326 773 m 0
 368 773 398 743 398 702 c 0
 398 645 344 593 286 593 c 0
 244 593 214 623 214 664 c 0
 214 721 268 773 326 773 c 0
316 723 m 0
 289 723 263 700 263 675 c 0
 263 657 277 643 297 643 c 0
 324 643 349 667 349 692 c 0
 349 710 335 723 316 723 c 0
EndSplineSet
Validated: 1
EndChar

StartChar: ogonek
Encoding: 731 731 323
Width: 333
Flags: MW
LayerCount: 2
Fore
SplineSet
23 -157 m 0
 23 -89 73 -42 174 0 c 1
 248 0 l 1
 217 -18 123 -68 123 -143 c 0
 123 -169 140 -183 173 -183 c 0
 199 -183 224 -179 244 -172 c 1
 234 -224 l 1
 202 -230 181 -233 157 -233 c 0
 74 -233 23 -204 23 -157 c 0
EndSplineSet
Validated: 1
EndChar

StartChar: tilde
Encoding: 732 732 324
Width: 333
Flags: MW
LayerCount: 2
Fore
SplineSet
500 744 m 1
 475 654 420 622 367 622 c 0
 350 622 329 627 316 633 c 2
 266 658 l 2
 251 665 230 672 222 672 c 0
 204 672 188 657 171 624 c 1
 117 624 l 1
 140 699 184 741 238 741 c 0
 263 741 277 738 309 724 c 2
 359 703 l 2
 378 694 380 693 392 693 c 0
 415 693 432 710 446 744 c 1
 500 744 l 1
EndSplineSet
Validated: 1
EndChar

StartChar: hungarumlaut
Encoding: 733 733 325
Width: 333
Flags: MW
LayerCount: 2
Fore
SplineSet
310 757 m 1
 152 610 l 1
 82 610 l 1
 184 757 l 1
 310 757 l 1
498 757 m 1
 340 610 l 1
 270 610 l 1
 372 757 l 1
 498 757 l 1
EndSplineSet
Validated: 1
EndChar

StartChar: gravedblnosp
Encoding: 783 783 337
Width: 0
Flags: HMW
AnchorPoint: "abovecyr" -15 550 mark 0
AnchorPoint: "above" -30 560 mark 0
LayerCount: 2
Fore
SplineSet
-64 757 m 1
 55 757 l 1
 100 607 l 1
 37 607 l 1
 -64 757 l 1
-252 757 m 1
 -133 757 l 1
 -88 607 l 1
 -151 607 l 1
 -252 757 l 1
EndSplineSet
Validated: 3073
EndChar

StartChar: commaabovecmb
Encoding: 787 787 339
Width: 0
Flags: HMW
AnchorPoint: "above" -165 538 mark 0
LayerCount: 2
Fore
SplineSet
-185 740 m 1
 -78 740 l 1
 -93 671 l 2
 -105 614 -163 583 -219 583 c 1
 -210 625 l 1
 -207 625 l 0
 -188 625 -169 626 -159 670 c 1
 -200 670 l 1
 -185 740 l 1
EndSplineSet
Validated: 3073
EndChar

StartChar: uni0374
Encoding: 884 884 341
Width: 208
Flags: MW
LayerCount: 2
Fore
SplineSet
172 706 m 1
 40 575 l 1
 25 649 l 1
 113 789 l 1
 172 706 l 1
EndSplineSet
Validated: 1
EndChar

StartChar: uni0375
Encoding: 885 885 342
Width: 247
Flags: HMW
LayerCount: 2
Fore
SplineSet
82 -182 m 1
 -1 -123 l 1
 139 -35 l 1
 213 -50 l 1
 82 -182 l 1
EndSplineSet
Validated: 1
EndChar

StartChar: ypogegrammeni
Encoding: 890 890 343
Width: 364
Flags: HMW
LayerCount: 2
Fore
SplineSet
223 -163 m 0
 252 -163 246 -157 257 -139 c 1
 282 -139 l 1
 269 -199 218 -200 160 -200 c 0
 118 -200 100 -182 100 -149 c 0
 100 -140 101 -130.999 103 -121 c 2
 115 -61 l 1
 218 -61 l 1
 210 -107 209 -130 209 -150 c 0
 209 -159 213 -163 223 -163 c 0
EndSplineSet
Validated: 3073
EndChar

StartChar: Kappa
Encoding: 922 922 345
Width: 744
Flags: MW
LayerCount: 2
Fore
SplineSet
621 -25 m 1
 432 -25 l 1
 271 323 l 1
 163 237 l 1
 98 -25 l 1
 -46 -25 l 1
 145 741 l 1
 289 741 l 1
 209 423 l 1
 607 741 l 1
 799 741 l 1
 401 423 l 1
 621 -25 l 1
EndSplineSet
Validated: 1
EndChar

StartChar: Lambda
Encoding: 923 923 346
Width: 744
Flags: HMW
LayerCount: 2
Fore
SplineSet
383.635 550.715 m 1
 32 -25 l 1
 -123 -25 l 1
 363 741 l 1
 498 741 l 1
 620 -25 l 1
 460 -25 l 1
 390.653 493.06 398.167 435.478 383.635 550.715 c 1
EndSplineSet
Validated: 1
EndChar

StartChar: Mu
Encoding: 924 924 347
Width: 860
Flags: HMW
LayerCount: 2
Fore
SplineSet
678 -25 m 1
 536 -25 l 1
 654 451 l 1
 371 -25 l 1
 249 -25 l 1
 206 457 l 1
 86 -25 l 1
 -56 -25 l 1
 135 741 l 1
 322 741 l 1
 367.671 188.004 l 1
 698 741 l 1
 869 741 l 1
 678 -25 l 1
EndSplineSet
Validated: 3073
EndChar

StartChar: Nu
Encoding: 925 925 348
Width: 714
Flags: MW
LayerCount: 2
Fore
SplineSet
550 -25 m 1
 415 -25 l 1
 203 479 l 1
 78 -25 l 1
 -64 -25 l 1
 127 741 l 1
 264 741 l 1
 475 237 l 1
 601 741 l 1
 741 741 l 1
 550 -25 l 1
EndSplineSet
Validated: 1
EndChar

StartChar: Xi
Encoding: 926 926 349
Width: 690
Flags: MW
LayerCount: 2
Fore
SplineSet
675 607 m 1
 107 607 l 1
 141 741 l 1
 709 741 l 1
 675 607 l 1
543 301 m 1
 93 301 l 1
 126 435 l 1
 576 435 l 1
 543 301 l 1
534 -25 m 1
 -50 -25 l 1
 -17 109 l 1
 567 109 l 1
 534 -25 l 1
EndSplineSet
Validated: 1
EndChar

StartChar: Omicron
Encoding: 927 927 350
Width: 822
Flags: HMW
LayerCount: 2
Fore
SplineSet
488 763 m 0
 714 763 772 607 772 491 c 0
 772 245.563 592.837 -51 285 -51 c 0
 59 -51 1 105 1 221 c 0
 1 473.497 185.021 763 488 763 c 0
150 244 m 0
 150 114 250 81 318 81 c 0
 577 81 624 395 624 468 c 0
 624 598 524 631 455 631 c 0
 198 631 150 321 150 244 c 0
EndSplineSet
Validated: 3073
EndChar

StartChar: Pi
Encoding: 928 928 351
Width: 781
Flags: MW
LayerCount: 2
Fore
SplineSet
570 -25 m 1
 426 -25 l 1
 583 607 l 1
 261 607 l 1
 104 -25 l 1
 -40 -25 l 1
 151 741 l 1
 761 741 l 1
 570 -25 l 1
EndSplineSet
Validated: 1
EndChar

StartChar: Rho
Encoding: 929 929 352
Width: 698
Flags: HMW
LayerCount: 2
Fore
SplineSet
695 574 m 0
 695 517.054 658.896 267 334 267 c 2
 175 267 l 1
 102 -25 l 1
 -42 -25 l 1
 149 741 l 1
 444 741 l 2
 550 741 695 737 695 574 c 0
369 401 m 2
 517 401 543 482 543 540 c 0
 543 594 516 607 418 607 c 2
 259 607 l 1
 208 401 l 1
 369 401 l 2
EndSplineSet
Validated: 3073
EndChar

StartChar: Sigma
Encoding: 931 931 353
Width: 688
Flags: HMW
LayerCount: 2
Fore
SplineSet
535 -25 m 1
 -81 -25 l 1
 -51 98 l 1
 250 386 l 1
 115 625 l 1
 144 743 l 1
 706 743 l 1
 673 609 l 1
 305 609 l 1
 431 386 l 1
 139 109 l 1
 568 109 l 1
 535 -25 l 1
EndSplineSet
Validated: 3073
EndChar

StartChar: Tau
Encoding: 932 932 354
Width: 688
Flags: MW
LayerCount: 2
Fore
SplineSet
694 607 m 1
 456 607 l 1
 299 -25 l 1
 155 -25 l 1
 312 607 l 1
 76 607 l 1
 110 741 l 1
 728 741 l 1
 694 607 l 1
EndSplineSet
Validated: 1
EndChar

StartChar: Upsilon
Encoding: 933 933 355
Width: 744
Flags: HMW
LayerCount: 2
Fore
SplineSet
814 741 m 1
 394 296 l 1
 314 -25 l 1
 170 -25 l 1
 250 296 l 1
 63 741 l 1
 238 741 l 1
 361 429 l 1
 642 741 l 1
 814 741 l 1
EndSplineSet
Validated: 3073
EndChar

StartChar: Phi
Encoding: 934 934 356
Width: 777
Flags: MW
LayerCount: 2
Fore
SplineSet
499 662 m 1
 647 652 722 551 722 435 c 0
 722 271 582 63 347 49 c 1
 329 -25 l 1
 196 -25 l 1
 214 49 l 1
 72 58 -9 149 -9 269 c 0
 -9 431 130 647 368 662 c 1
 389 745 l 1
 520 745 l 1
 499 662 l 1
378 171 m 1
 508 200 577 311 577 407 c 0
 577 484 521 523 469 536 c 1
 378 171 l 1
336 536 m 1
 195 505 137 393 137 303 c 0
 137 224 190 184 245 171 c 1
 336 536 l 1
EndSplineSet
Validated: 1
EndChar

StartChar: Chi
Encoding: 935 935 357
Width: 783
Flags: HMW
LayerCount: 2
Fore
SplineSet
397 492 m 1
 476.472 571.472 564.707 659.047 647 741 c 1
 813 741 l 1
 451 378 l 1
 641 -25 l 1
 462 -25 l 1
 333 258 l 1
 163.342 81.1734 295 219 61 -25 c 1
 -116 -25 l 1
 280 374 l 1
 110 741 l 1
 283 741 l 1
 320.905 658.375 393.691 499.941 397 492 c 1
EndSplineSet
Validated: 1
EndChar

StartChar: Psi
Encoding: 936 936 358
Width: 805
Flags: HMW
LayerCount: 2
Fore
SplineSet
164 326 m 0
 164 279.749 186.497 254 278 254 c 1
 400 743 l 1
 536 743 l 1
 414 254 l 1
 518.064 254 558.788 284.193 584 380 c 2
 674 742 l 1
 815 746 l 1
 721 368 l 2
 661.475 128.633 417 121 385 121 c 1
 348 -27 l 1
 204 -27 l 1
 242 121 l 1
 103 121 18 153 18 288 c 0
 18 312 22 339 29 368 c 2
 123 746 l 1
 262 742 l 1
 172 380 l 2
 167 359 164 341 164 326 c 0
EndSplineSet
Validated: 3073
EndChar

StartChar: Omega
Encoding: 937 937 359
Width: 780
Flags: MW
LayerCount: 2
Fore
SplineSet
744 475 m 0
 744 325 669 183 544 101 c 1
 662 101 l 1
 631 -25 l 1
 307 -25 l 1
 337 96 l 1
 411 124 600 223 600 446 c 0
 600 518 567 621 433 621 c 0
 265 621 150 433 150 285 c 0
 150 179 203 127 265 97 c 1
 235 -25 l 1
 -79 -25 l 1
 -48 101 l 1
 74 101 l 1
 29 151 11 206 11 271 c 0
 11 467 191 747 462 747 c 0
 687 747 744 597 744 475 c 0
EndSplineSet
Validated: 1
EndChar

StartChar: alpha
Encoding: 945 945 367
Width: 656
Flags: MW
LayerCount: 2
Fore
SplineSet
233 111 m 0
 378 111 403 300 403 338 c 0
 403 411 370 432 319 432 c 0
 181 432 146 250 146 198 c 0
 146 146 168 111 233 111 c 0
430 -12 m 0
 414 -12 376 -6 358 31 c 1
 312 4 260 -11 203 -11 c 0
 71 -11 11 50 11 158 c 0
 11 237 62 552 350 552 c 0
 407 550 447 542 482 502 c 1
 493 543 l 1
 615 543 l 1
 504 119 l 1
 502 113 l 1
 542 136 l 1
 548 20 l 1
 497 -1 458 -12 430 -12 c 0
EndSplineSet
Validated: 1
EndChar

StartChar: beta
Encoding: 946 946 368
Width: 576
Flags: HMW
LayerCount: 2
Fore
SplineSet
524 266 m 0
 524 205 463 -22 218 -22 c 0
 140 -22 109 -3 88 12 c 1
 32 -197 l 1
 -107 -197 l 1
 74 478 l 2
 91 540 141 731 372 731 c 0
 519 731 557 653 557 592 c 0
 557 549 539 451 444 389 c 1
 443 389 443 389 442 388 c 1
 507 360 524 311 524 266 c 0
232 95 m 0
 356 95 378 214 378 245 c 0
 378 271 361 311 261 311 c 2
 185 311 l 1
 216 428 l 1
 285 428 l 2
 406 428 427 531 427 558 c 0
 427 604 382 616 354 616 c 0
 238 616 222 510 212 475 c 2
 127 155 l 1
 136.5 99.5 178 95 232 95 c 0
EndSplineSet
Validated: 1
EndChar

StartChar: gamma
Encoding: 947 947 369
Width: 591
Flags: HMW
LayerCount: 2
Fore
SplineSet
650 542 m 1
 326 48 l 1
 264 -193 l 1
 129 -193 l 1
 192 47 l 1
 135 379 l 2
 131.117 401.619 123 433 119 433 c 0
 102.333 433 96 429.667 74 418 c 1
 91 518 l 2
 95 537 135 554 166 554 c 0
 231 554 258 536 268 452 c 2
 301 218 l 1
 510 542 l 1
 650 542 l 1
EndSplineSet
Validated: 3073
EndChar

StartChar: delta
Encoding: 948 948 370
Width: 620
Flags: HMW
LayerCount: 2
Fore
SplineSet
209 118 m 0
 370 118 399 276 399 320 c 0
 399 378 366 412 294 412 c 0
 152 412 115 252 115 204 c 0
 115 147 146 118 209 118 c 0
-33 166 m 0
 -33 298 55 483 247 517 c 1
 116 622 l 1
 143 724 l 1
 596 724 l 1
 565 611 l 1
 346 611 l 1
 439 535 l 2
 469 509 543 458 543 352 c 0
 543 261.425 489.234 -5 175 -5 c 0
 -1 -5 -33 99 -33 166 c 0
EndSplineSet
Validated: 3073
EndChar

StartChar: epsilon
Encoding: 949 949 371
Width: 570
Flags: HMW
LayerCount: 2
Fore
SplineSet
204 104 m 0
 323 104 345 153 354 176 c 1
 484 176 l 1
 417 15 301 -10 177 -10 c 0
 39 -10 -30 29 -30 107 c 0
 -30 205 45 254 75 271 c 1
 60 282 34 302 34 348 c 0
 34 432 90.981 552 328 552 c 0
 465 552 537 522.6 537 405 c 0
 537 393 536 380 535 366 c 1
 405 366 l 1
 406 370 406 374 406 377 c 0
 406 412 378 438 294 438 c 0
 192 438 173 398 173 372 c 0
 173 340 191 323 262 323 c 2
 335 323 l 1
 306 219 l 1
 234 219 l 2
 130.494 219 112 175.8 112 147 c 0
 112 118 142 104 204 104 c 0
EndSplineSet
Validated: 3073
EndChar

StartChar: zeta
Encoding: 950 950 372
Width: 522
Flags: MW
LayerCount: 2
Fore
SplineSet
-14 160 m 0
 -14 234 47 453 294 616 c 1
 116 616 l 1
 147 735 l 1
 565 735 l 1
 539 638 l 1
 243 500 141 290 141 204 c 0
 141 102 271 115 325 102 c 0
 344 99 400 85 400 13 c 0
 400 -31 378 -87 297 -205 c 1
 181 -160 l 1
 235 -90 258 -57 258 -31 c 0
 258 -17 250 -14 222 -14 c 0
 175 -14 -14 21 -14 160 c 0
EndSplineSet
Validated: 1
EndChar

StartChar: eta
Encoding: 951 951 373
Width: 586
Flags: HMW
LayerCount: 2
Fore
SplineSet
182 556 m 0
 238 556 251 509 252 494 c 1
 290.501 541.056 382.836 555 416 555 c 0
 554 555 578 473 578 419 c 0
 578 397 574 373 561 320 c 2
 427 -215 l 1
 299 -177 l 1
 422 316 l 2
 428 340 431 359 431 374 c 0
 431 405 415 429 367 429 c 0
 292 429 242 381 218 284 c 2
 141 -25 l 1
 3 -25 l 1
 112 414 l 2
 112.8 417.22 113.113 419.661 113.113 421.471 c 0
 113.113 424.801 112.053 426 111 426 c 0
 107.75 426 94.8333 422.833 80 418 c 1
 87 536 l 1
 126 549 158 556 182 556 c 0
EndSplineSet
Validated: 3073
EndChar

StartChar: theta
Encoding: 952 952 374
Width: 586
Flags: HMW
LayerCount: 2
Fore
SplineSet
368 731 m 0
 512 731 548 630 548 549 c 0
 548 405.993 471.8 -12 167 -12 c 0
 30 -12 -15 59 -15 164 c 0
 -15 288 61 731 368 731 c 0
414 526 m 0
 414 580 403 617 337 617 c 0
 266 617 211 554 170 424 c 1
 400 424 l 1
 409 462 414 496 414 526 c 0
122 192 m 0
 122 122 158 104 199 104 c 0
 301 104 343 224 369 309 c 1
 140 309 l 1
 128 262 122 212 122 192 c 0
EndSplineSet
Validated: 3073
EndChar

StartChar: iota
Encoding: 953 953 375
Width: 346
Flags: HMW
LayerCount: 2
Fore
SplineSet
137 131 m 0
 137 120 145.5 117 155 117 c 0
 165.25 117 187 126 223 142 c 1
 239 15 l 1
 183 -5 138 -16 106 -16 c 0
 55 -16 -12 4 -12 86 c 0
 -12 103 -8.43269 128.114 -4 145 c 2
 101 545 l 1
 242 545 l 1
 141 162 l 2
 137.974 150.525 137 142.5 137 131 c 0
EndSplineSet
Validated: 3073
EndChar

StartChar: kappa
Encoding: 954 954 376
Width: 576
Flags: MW
LayerCount: 2
Fore
SplineSet
470 -14 m 1
 303 -14 l 1
 204 233 l 1
 165 203 l 1
 110 -14 l 1
 -27 -14 l 1
 113 543 l 1
 250 543 l 1
 207 372 l 1
 420 543 l 1
 604 543 l 1
 326 327 l 1
 470 -14 l 1
EndSplineSet
Validated: 1
EndChar

StartChar: lambda
Encoding: 955 955 377
Width: 620
Flags: HMW
LayerCount: 2
Fore
SplineSet
437 119 m 0
 451 119 467 128 494 139 c 1
 498 29 l 1
 445 6 404 -5 377 -5 c 0
 302 -5 301.197 42.1561 296 82 c 2
 263 335 l 1
 46 6 l 1
 -106 6 l 1
 241 512 l 1
 236.902 561.17 230 605 184 605 c 0
 155 605 140 598 97 594 c 1
 146 714 l 1
 183 726 211 732 230 732 c 0
 352 732 362 641 376 529 c 2
 426 148 l 18
 428.322 130.31 432.6 119 437 119 c 0
EndSplineSet
Validated: 3073
EndChar

StartChar: uni03BC
Encoding: 956 956 378
Width: 667
Flags: HMW
LayerCount: 2
Fore
SplineSet
523 118 m 1
 542 109 l 1
 558 33 l 1
 536 21 499 -2 464 -2 c 0
 417 -2 393 18 387 43 c 1
 349 9 296 -12 246 -12 c 0
 188 -12 165 8 149 19 c 1
 94 -194 l 1
 -44 -194 l 1
 147 543 l 1
 285 543 l 1
 202 221 l 2
 199 210 198 199 198 189 c 0
 198 158 215 107 280 107 c 0
 338.051 107 391.424 146.695 410 221 c 2
 493 543 l 1
 629 543 l 1
 532 167 l 2
 525.712 142.896 523 127.8 523 118 c 1
EndSplineSet
Validated: 3073
EndChar

StartChar: nu
Encoding: 957 957 379
Width: 564
Flags: MW
LayerCount: 2
Fore
SplineSet
450 542 m 1
 594 542 l 1
 238 -9 l 1
 122 -9 l 1
 48 542 l 1
 194 542 l 1
 235 205 l 1
 450 542 235 205 450 542 c 1
EndSplineSet
Validated: 1
EndChar

StartChar: xi
Encoding: 958 958 380
Width: 530
Flags: HMW
LayerCount: 2
Fore
SplineSet
222 100 m 0
 358 100 398 85 398 12 c 0
 398 -33 375 -95 296 -212 c 1
 188 -168 l 1
 205 -141 264 -49 264 -28 c 0
 264 -19.2 252.7 -17 180 -17 c 0
 0 -17 -34 68 -34 130 c 0
 -34 277 86 348 139 374 c 1
 113 391 96 427 96 463 c 0
 96 552 147 590 164 612 c 1
 104 612 l 1
 134 728 l 1
 556 728 l 1
 526 612 l 1
 335 612 l 2
 286 612 225 538 225 490 c 0
 225 462 243 424 345 424 c 2
 452 424 l 1
 424 313 l 1
 289 313 l 2
 146 313 107 208 107 176 c 0
 107 129 158 100 222 100 c 0
EndSplineSet
Validated: 3073
EndChar

StartChar: omicron
Encoding: 959 959 381
Width: 610
Flags: MW
LayerCount: 2
Fore
SplineSet
564 370 m 0
 564 275 488 -10 198 -10 c 0
 105 -10 -14 28 -14 178 c 0
 -14 258 45 552 349 552 c 0
 443 552 564 516 564 370 c 0
230 108 m 0
 386 108 415 299 415 343 c 0
 413 384 396 436 318 436 c 0
 171 436 133 256 133 203 c 0
 133 164 148 108 230 108 c 0
EndSplineSet
Validated: 1
EndChar

StartChar: pi
Encoding: 960 960 382
Width: 721
Flags: HMW
LayerCount: 2
Fore
SplineSet
472 -29 m 0
 405 -29 382 0 382 47 c 0
 382 66 385 88 392 114 c 2
 470 425 l 1
 284 425 l 1
 172 -24 l 1
 27 -28 l 1
 141 425 l 1
 71 425 l 1
 100 545 l 1
 702 545 l 1
 672 425 l 1
 608 425 l 1
 531 116 l 2
 525.621 90.8986 524.875 89.125 523.125 82.75 c 1
 541.75 94.3789 563.331 107.425 582 119 c 1
 583 -1 l 1
 519 -22 496 -29 472 -29 c 0
EndSplineSet
Validated: 1
EndChar

StartChar: rho
Encoding: 961 961 383
Width: 626
Flags: HMW
LayerCount: 2
Fore
SplineSet
395 557 m 0
 562 557 604 443 604 362 c 0
 604 181.847 477.755 -35 247 -35 c 0
 176 -35 146 -10 129 2 c 1
 73 -225 l 1
 -65 -225 l 1
 58 270 l 2
 111 483 267 557 395 557 c 0
278 89 m 0
 424 89 461 280 461 331 c 0
 461 414 404 435 364 435 c 0
 220 435 184 247 184 189 c 0
 184 109 237 89 278 89 c 0
EndSplineSet
Validated: 3073
EndChar

StartChar: sigma1
Encoding: 962 962 384
Width: 595
Flags: HMW
LayerCount: 2
Fore
SplineSet
375 561 m 0
 460 561 570 527 570 390 c 0
 570 363 566 332 558 299 c 1
 417 299 l 1
 423 323 426 344 426 361 c 0
 426 399 408 433 335 433 c 0
 198 433 161 271 161 225 c 0
 161 164 215 121 302 117 c 0
 442 105 481 78 481 14 c 0
 481 -32 457 -76 447 -93 c 2
 371 -214 l 1
 243 -165 l 1
 272 -124 300 -80 327 -34 c 1
 327 -31 320.5 -30 310 -29 c 0
 249.322 -23.2211 12 -30.5637 12 197 c 0
 12 342.769 132.538 561 375 561 c 0
EndSplineSet
Validated: 3073
EndChar

StartChar: sigma
Encoding: 963 963 385
Width: 676
Flags: HMW
LayerCount: 2
Fore
SplineSet
-4 161 m 0
 -4 242 53 555 349 555 c 2
 349 555 574.333 555 687 555 c 1
 654 419 l 1
 540 419 l 1
 549 394 553 367 553 338 c 0
 553 256 481 -37 202 -37 c 0
 112 -37 -4 3 -4 161 c 0
233 87 m 0
 385 87 413 288 413 335 c 0
 411 378 394 433 319 433 c 0
 176 433 139 243 139 187 c 0
 139 102 195 87 233 87 c 0
EndSplineSet
Validated: 3073
EndChar

StartChar: tau
Encoding: 964 964 386
Width: 592
Flags: HMW
LayerCount: 2
Fore
SplineSet
257 -29 m 0
 157 -29 139 23 139 62 c 0
 139 94 148 125 153 144 c 2
 223 425 l 1
 59 425 l 1
 88 543 l 1
 590 543 l 1
 561 425 l 1
 361 425 l 1
 293 152 l 2
 288 131 285 118 285 114 c 0
 285 110 293 105 306 105 c 0
 317 105 355.463 113.77 361 115 c 1
 359 -13 l 1
 288 -28 279 -29 257 -29 c 0
EndSplineSet
Validated: 3073
EndChar

StartChar: upsilon
Encoding: 965 965 387
Width: 575
Flags: HMW
LayerCount: 2
Fore
SplineSet
132 139 m 0
 135 90 185 87 219 87 c 0
 329 87 339 152 360 232 c 2
 437 543 l 1
 575 543 l 1
 489 198 l 2
 450 39 370 -39 189 -39 c 0
 69.1277 -39 -14 -10.8 -14 102 c 0
 -14 125 -9 157 1 198 c 2
 87 543 l 1
 225 543 l 1
 148 232 l 2
 138 191 133 160 132 139 c 0
EndSplineSet
Validated: 3073
EndChar

StartChar: phi
Encoding: 966 966 388
Width: 801
Flags: HMW
LayerCount: 2
Fore
SplineSet
429 96 m 1
 471 96 616 139 616 298 c 0
 616 385 550 407 506 407 c 1
 429 96 l 1
34 174 m 0
 34 254 73 421 272 528 c 1
 326 424 l 1
 241 373 173 300 173 217 c 0
 173 146 220 96 297 96 c 1
 409 547 l 1
 517 547 l 2
 707 547 754 418 754 327 c 0
 754 176.465 627.617 -35 397 -35 c 1
 350 -225 l 1
 212 -225 l 1
 259 -35 l 1
 174 -35 34 7 34 174 c 0
EndSplineSet
Validated: 3073
EndChar

StartChar: chi
Encoding: 967 967 389
Width: 632
Flags: HMW
LayerCount: 2
Fore
SplineSet
503 -217 m 1
 452.682 -236.822 431.8 -237 414 -237 c 0
 369 -237 325 -209 303 -134 c 2
 264 24 l 1
 35 -225 l 1
 -129 -225 l 1
 218 161 l 1
 138 408 l 2
 129 432 127 433 111 433 c 0
 100 433 82 431 58 429 c 1
 89 554 l 1
 138.373 561.261 163.073 563 172 563 c 0
 250 563 267 510 273 491 c 2
 333 287 l 1
 534 543 l 1
 687 543 l 1
 383 160 l 1
 448 -79 l 2
 453.742 -100.114 458 -102 473 -102 c 0
 485.6 -102 511.582 -93.262 536 -84 c 1
 503 -217 l 1
EndSplineSet
Validated: 3073
EndChar

StartChar: psi
Encoding: 968 968 390
Width: 722
Flags: MW
LayerCount: 2
Fore
SplineSet
217 -26 m 1
 138 -23 20 7 20 140 c 0
 20 163 23 187 30 214 c 0
 112 543 l 1
 252 543 l 1
 177 242 l 2
 170 214 167 190 167 171 c 0
 167 113 209 102 247 98 c 1
 354 525 l 1
 490 525 l 1
 383 98 l 1
 416 101 494 108 525 242 c 2
 600 543 l 1
 740 543 l 1
 658 214 l 2
 631 106 548 -18 353 -26 c 1
 303 -225 l 1
 167 -225 l 1
 217 -26 l 1
EndSplineSet
Validated: 1
EndChar

StartChar: omega
Encoding: 969 969 391
Width: 800
Flags: HMW
LayerCount: 2
Fore
SplineSet
670 555 m 1
 697.686 526.056 736 464.393 736 341 c 0
 736 160.613 616 -34 441 -34 c 0
 415 -34 345 -29 313 34 c 1
 267 -12 212 -34 153 -34 c 0
 77.1424 -34 -7 1.4 -7 143 c 0
 -7 325 138 504 217 554 c 1
 336 513 l 1
 224 417 129 304 129 163 c 0
 129 118 140 88 185 88 c 0
 216 88 263.529 103.118 276 153 c 2
 338 401 l 1
 472 401 l 1
 410 153 l 2
 409 148 408 140.938 408 137 c 0
 408 96 444 88 468 88 c 0
 573 88 598 267 600 317 c 0
 600 400 575 445 531 512 c 1
 670 555 l 1
EndSplineSet
Validated: 3073
EndChar

StartChar: Djecyrillic
Encoding: 1026 1026 399
Width: 790
Flags: HMW
AnchorPoint: "abovecyr" 375 728 basechar 0
LayerCount: 2
Fore
SplineSet
587 504 m 2
 697 504 770 439 770 356 c 0
 770 341 768 329 767 323 c 2
 698 0 l 1
 680 -54 670.262 -120.147 582.417 -146.667 c 0
 529.417 -162.667 498.75 -165 448.75 -165 c 0
 373 -165 l 1
 393 -70 l 1
 453 -70 l 1
 502 -69 537 -52 548 0 c 0
 615 317 l 2
 616 322 617 327 617 332 c 0
 617 355 602 370 573 376 c 1
 549 379 l 1
 374 379 l 1
 293 0 l 1
 142 0 l 1
 271 605 l 1
 83 605 l 1
 109 729 l 1
 631 729 l 1
 605 605 l 1
 421 605 l 1
 399 504 l 1
 587 504 l 2
EndSplineSet
Validated: 1
EndChar

StartChar: Ecyrillic
Encoding: 1028 1028 401
Width: 731
Flags: HMW
AnchorPoint: "abovecyr" 533 728 basechar 0
LayerCount: 2
Fore
SplineSet
644 482 m 1
 642 550 622 613 516 613 c 0
 419 613 336 548 292 436 c 1
 583 436 l 1
 557 311 l 1
 265 311 l 1
 263 295 262 279 262 264 c 0
 262 161 311 103 403 103 c 0
 496 103 566 156 595 249 c 1
 741 249 l 1
 696 82 553 -23 372 -23 c 0
 205 -23 110 77 110 243 c 0
 110 538.522 308.157 741 538 741 c 4
 689 741 791 659 791 535 c 0
 791 519 790 502 787 482 c 1
 644 482 l 1
EndSplineSet
Validated: 3073
EndChar

StartChar: Ljecyrillic
Encoding: 1033 1033 406
Width: 1110
Flags: HMW
AnchorPoint: "abovecyr" 636 728 basechar 0
LayerCount: 2
Fore
SplineSet
859 435 m 2
 1000 435 1035 339 1035 262 c 0
 1035 52 872 0 752 0 c 2
 430 0 l 1
 558 604 l 1
 336 604 l 1
 296 414 l 2
 257 235 177 0 -31 0 c 1
 -1 145 l 1
 93.2 145 136.828 374.728 156 461 c 2
 212 729 l 1
 734 729 l 1
 672 435 l 1
 859 435 l 2
766 125 m 2
 813 125 883 134 883 234 c 0
 883 280 855 310 801 310 c 2
 645 310 l 1
 606 125 l 1
 766 125 l 2
EndSplineSet
Validated: 3073
EndChar

StartChar: Njecyrillic
Encoding: 1034 1034 407
Width: 1088
Flags: MW
AnchorPoint: "abovecyr" 660 728 basechar 0
LayerCount: 2
Fore
SplineSet
1043 294 m 0
 1043 119 926 0 752 0 c 2
 430 0 l 1
 496 311 l 1
 207 311 l 1
 141 0 l 1
 -9 0 l 1
 145 729 l 1
 295 729 l 1
 233 436 l 1
 521 436 l 1
 583 729 l 1
 734 729 l 1
 679 469 l 1
 866 469 l 2
 978 469 1043 403 1043 294 c 0
746 125 m 2
 861 125 890 209 890 270 c 0
 890 320 859 344 793 344 c 2
 653 344 l 1
 606 125 l 1
 746 125 l 2
EndSplineSet
Validated: 3073
EndChar

StartChar: Tshecyrillic
Encoding: 1035 1035 408
Width: 790
Flags: HMW
AnchorPoint: "abovecyr" 356 728 basechar 0
LayerCount: 2
Fore
SplineSet
570 504 m 2
 680 504 753 439 753 356 c 0
 753 341 751 329 749 323 c 2
 681 0 l 1
 531 0 l 1
 598 317 l 2
 599 322 600 327 600 332 c 0
 600 365.053 569.724 379 531 379 c 2
 356 379 l 1
 276 0 l 1
 125 0 l 1
 253 605 l 1
 65 605 l 1
 91 729 l 1
 613 729 l 1
 587 605 l 1
 403 605 l 1
 382 504 l 1
 570 504 l 2
EndSplineSet
Validated: 3073
EndChar

StartChar: Dzhecyrillic
Encoding: 1039 1039 412
Width: 722
Flags: MW
AnchorPoint: "abovecyr" 510 728 basechar 0
LayerCount: 2
Fore
SplineSet
245 125 m 1
 534 125 l 1
 662 729 l 1
 812 729 l 1
 657 0 l 1
 68 0 l 1
 223 729 l 1
 373 729 l 1
 245 125 l 1
EndSplineSet
Validated: 3073
EndChar

StartChar: Becyrillic
Encoding: 1041 1041 414
Width: 722
Flags: MW
AnchorPoint: "abovecyr" 480 728 basechar 0
LayerCount: 2
Fore
SplineSet
488 439 m 2
 674 439 715 330 715 252 c 0
 715 175 666 96 605 53 c 0
 553 16 494 0 410 0 c 2
 82 0 l 1
 237 729 l 1
 749 729 l 1
 722 604 l 1
 360 604 l 1
 325 439 l 1
 488 439 l 2
438 125 m 2
 546 125 572 198 572 245 c 0
 572 290 540 314 478 314 c 2
 299 314 l 1
 259 125 l 1
 438 125 l 2
EndSplineSet
Validated: 3073
EndChar

StartChar: Gecyrillic
Encoding: 1043 1043 416
Width: 617
Flags: HMW
AnchorPoint: "abovecyr" 453 728 basechar 0
LayerCount: 2
Fore
SplineSet
230 0 m 1
 80 0 l 1
 235 729 l 1
 747 729 l 1
 720 604 l 1
 358 604 l 1
 230 0 l 1
EndSplineSet
Validated: 3073
EndChar

StartChar: Decyrillic
Encoding: 1044 1044 417
Width: 876
Flags: HMW
AnchorPoint: "abovecyr" 624 728 basechar 0
LayerCount: 2
Fore
SplineSet
148 108 m 2
 201 108 271 255 314 461 c 6
 371 729 l 1
 893 729 l 1
 761 108 l 1
 876 108 l 1
 822 -150 l 1
 692 -150 l 1
 723 0 l 1
 153 0 l 1
 122 -150 l 1
 -8 -150 l 1
 46 108 l 1
 148 108 l 2
346 125 m 1
 615 125 l 1
 717 604 l 1
 495 604 l 1
 454 414 l 6
 434 319 404 209 346 125 c 1
EndSplineSet
Validated: 3073
EndChar

StartChar: Zhecyrillic
Encoding: 1046 1046 419
Width: 1100
Flags: MW
AnchorPoint: "abovecyr" 701 728 basechar 0
LayerCount: 2
Fore
SplineSet
536 285 m 1
 201 0 l 1
 22 0 l 1
 459 378 l 1
 221 729 l 1
 385 729 l 1
 571 450 l 1
 630 729 l 1
 780 729 l 1
 721 450 l 1
 1025 729 l 1
 1189 729 l 1
 801 378 l 1
 1078 0 l 1
 899 0 l 1
 686 285 l 1
 625 0 l 1
 475 0 l 1
 536 285 l 1
EndSplineSet
Validated: 3073
EndChar

StartChar: Zecyrillic
Encoding: 1047 1047 420
Width: 670
Flags: HMW
AnchorPoint: "abovecyr" 481 728 basechar 0
LayerCount: 2
Fore
SplineSet
364 97 m 0
 435 97 534 122 534 223 c 0
 534 270 504 308 419 308 c 2
 317 308 l 1
 342 428 l 1
 418 428 l 2
 548 428 580 504 580 549 c 0
 580 593 539 621 471 621 c 0
 376 621 315 581 294 507 c 1
 154 507 l 1
 167 569 221 741 490 741 c 0
 641 741 724 680 724 571 c 0
 724 495 691 419 625 377 c 1
 666 352 685 317 685 268 c 0
 685 99 547 -23 330 -23 c 0
 164 -23 75 45 75 170 c 0
 75 185 76 201 79 218 c 1
 225 218 l 1
 224 211 223 204 223 197 c 0
 223 132 272 97 364 97 c 0
EndSplineSet
Validated: 3073
EndChar

StartChar: Iicyrillic
Encoding: 1048 1048 421
Width: 757
Flags: HMW
AnchorPoint: "abovecyr" 523 728 basechar 0
LayerCount: 2
Fore
SplineSet
232 0 m 1
 82 0 l 1
 237 729 l 1
 387 729 l 1
 282 233 l 1
 676 729 l 1
 830 729 l 1
 675 0 l 1
 525 0 l 1
 632 504 l 1
 232 0 l 1
EndSplineSet
Validated: 3073
EndChar

StartChar: Elcyrillic
Encoding: 1051 1051 424
Width: 715
Flags: HMW
AnchorPoint: "abovecyr" 517 728 basechar 0
LayerCount: 2
Fore
SplineSet
611 604 m 1
 389 604 l 1
 349 414 l 6
 311 237 234 0 22 0 c 1
 52 145 l 1
 124.294 145 166.326 257.556 209 461 c 2
 265 729 l 1
 787 729 l 1
 633 0 l 1
 483 0 l 1
 611 604 l 1
EndSplineSet
Validated: 3073
EndChar

StartChar: Encyrillic
Encoding: 1053 1053 426
Width: 753
Flags: HMW
AnchorPoint: "abovecyr" 529 728 basechar 0
LayerCount: 2
Fore
SplineSet
587 311 m 1
 298 311 l 1
 232 0 l 1
 82 0 l 1
 237 729 l 1
 387 729 l 1
 325 436 l 1
 613 436 l 1
 675 729 l 1
 826 729 l 1
 671 0 l 1
 521 0 l 1
 587 311 l 1
EndSplineSet
Validated: 3073
EndChar

StartChar: Pecyrillic
Encoding: 1055 1055 428
Width: 753
Flags: HMW
AnchorPoint: "abovecyr" 522 728 basechar 0
LayerCount: 2
Fore
SplineSet
649 604 m 1
 360 604 l 1
 232 0 l 1
 82 0 l 1
 237 729 l 1
 826 729 l 1
 671 0 l 1
 521 0 l 1
 649 604 l 1
EndSplineSet
Validated: 3073
EndChar

StartChar: Ucyrillic
Encoding: 1059 1059 432
Width: 698
Flags: HMW
AnchorPoint: "abovecyr" 485 728 basechar 0
LayerCount: 2
Fore
SplineSet
317 0 m 1
 143 0 l 1
 305 226 l 1
 159 729 l 1
 322 729 l 1
 421 384 l 1
 666 729 l 1
 840 729 l 1
 317 0 l 1
EndSplineSet
Validated: 3073
EndChar

StartChar: Efcyrillic
Encoding: 1060 1060 433
Width: 909
Flags: HMW
AnchorPoint: "abovecyr" 609 728 basechar 0
LayerCount: 2
Fore
SplineSet
959 450 m 0
 959 321 891 94 584 94 c 0
 570 94 558 94 550 94 c 1
 530 0 l 1
 380 0 l 1
 400 94 l 1
 392 94 380 94 366 94 c 0
 280 94 109 107 109 292 c 0
 109 422 165 638 487 638 c 0
 497 638 507 638 515 638 c 1
 535 729 l 1
 685 729 l 1
 665 638 l 1
 673 638 683 638 693 638 c 0
 786 638 959 629 959 450 c 0
478 540 m 0
 277 540 244 396 244 307 c 0
 244 197 327 188 387 188 c 0
 399 188 411 188 420 188 c 1
 494 540 l 1
 489 540 484 540 478 540 c 0
603 188 m 0
 777 188 821 332 821 422 c 0
 821 535 717 540 660 540 c 0
 654 540 649 540 644 540 c 1
 570 188 l 1
 579 188 591 188 603 188 c 0
EndSplineSet
Validated: 3073
EndChar

StartChar: Khacyrillic
Encoding: 1061 1061 434
Width: 657
Flags: HMW
AnchorPoint: "abovecyr" 479 728 basechar 0
LayerCount: 2
Fore
SplineSet
491 372 m 1
 646 0 l 1
 468 0 l 1
 382 253 l 1
 189 0 l 1
 15 0 l 1
 323 367 l 1
 178 729 l 1
 356 729 l 1
 433 489 l 1
 618 729 l 1
 792 729 l 1
 491 372 l 1
EndSplineSet
Validated: 3073
EndChar

StartChar: Tsecyrillic
Encoding: 1062 1062 435
Width: 845
Flags: HMW
AnchorPoint: "abovecyr" 530 728 basechar 0
LayerCount: 2
Fore
SplineSet
548 125 m 1
 676 729 l 1
 826 729 l 1
 694 108 l 1
 834 108 l 1
 779 -150 l 1
 649 -150 l 1
 681 0 l 1
 82 0 l 1
 237 729 l 1
 387 729 l 1
 259 125 l 1
 548 125 l 1
EndSplineSet
Validated: 3073
EndChar

StartChar: Checyrillic
Encoding: 1063 1063 436
Width: 688
Flags: MW
AnchorPoint: "abovecyr" 480 728 basechar 0
LayerCount: 2
Fore
SplineSet
514 274 m 1
 268 274 l 2
 198 275 141 313 141 371 c 0
 141 378 141 385 143 392 c 2
 215 729 l 1
 365 729 l 1
 295 399 l 1
 540 399 l 1
 610 729 l 1
 761 729 l 1
 606 0 l 1
 456 0 l 1
 514 274 l 1
EndSplineSet
Validated: 3073
EndChar

StartChar: Shacyrillic
Encoding: 1064 1064 437
Width: 1132
Flags: HMW
AnchorPoint: "abovecyr" 725 728 basechar 0
LayerCount: 2
Fore
SplineSet
1050 0 m 1
 82 0 l 1
 237 729 l 1
 387 729 l 1
 259 125 l 1
 518 125 l 1
 646 729 l 1
 796 729 l 1
 668 125 l 1
 927 125 l 1
 1055 729 l 1
 1205 729 l 1
 1050 0 l 1
EndSplineSet
Validated: 3073
EndChar

StartChar: Shchacyrillic
Encoding: 1065 1065 438
Width: 1217
Flags: HMW
AnchorPoint: "abovecyr" 719 728 basechar 0
LayerCount: 2
Fore
SplineSet
1060 0 m 1
 82 0 l 1
 237 729 l 1
 387 729 l 1
 259 125 l 1
 518 125 l 1
 646 729 l 1
 796 729 l 1
 668 125 l 1
 927 125 l 1
 1055 729 l 1
 1205 729 l 1
 1073 108 l 1
 1213 108 l 1
 1158 -150 l 1
 1028 -150 l 1
 1060 0 l 1
EndSplineSet
Validated: 3073
EndChar

StartChar: Hardsigncyrillic
Encoding: 1066 1066 439
Width: 835
Flags: MW
AnchorPoint: "abovecyr" 636 728 basechar 0
LayerCount: 2
Fore
SplineSet
856 296 m 0
 856 120 740 0 565 0 c 2
 243 0 l 1
 372 604 l 1
 142 605 l 1
 168 729 l 1
 548 729 l 1
 493 469 l 1
 680 469 l 2
 792 469 856 403 856 296 c 0
560 125 m 2
 675 125 704 210 704 270 c 0
 704 320 672 344 606 344 c 2
 466 344 l 1
 420 125 l 1
 560 125 l 2
EndSplineSet
Validated: 3073
EndChar

StartChar: Yericyrillic
Encoding: 1067 1067 440
Width: 980
Flags: HMW
AnchorPoint: "abovecyr" 653 728 basechar 0
LayerCount: 2
Fore
SplineSet
1053 729 m 1
 898 0 l 1
 748 0 l 1
 903 729 l 1
 1053 729 l 1
695 296 m 0
 695 120 579 0 404 0 c 2
 82 0 l 1
 237 729 l 1
 387 729 l 1
 332 469 l 1
 519 469 l 2
 631 469 695 403 695 296 c 0
399 125 m 2
 514 125 543 210 543 270 c 0
 543 320 511 344 445 344 c 2
 305 344 l 1
 259 125 l 1
 399 125 l 2
EndSplineSet
Validated: 3073
EndChar

StartChar: Softsigncyrillic
Encoding: 1068 1068 441
Width: 678
Flags: HMW
AnchorPoint: "abovecyr" 506 728 basechar 0
LayerCount: 2
Fore
SplineSet
695 296 m 0
 695 120 579 0 404 0 c 2
 82 0 l 1
 237 729 l 1
 387 729 l 1
 332 469 l 1
 519 469 l 2
 631 469 695 403 695 296 c 0
399 125 m 2
 514 125 543 210 543 270 c 0
 543 320 511 344 445 344 c 2
 305 344 l 1
 259 125 l 1
 399 125 l 2
EndSplineSet
Validated: 3073
EndChar

StartChar: Ereversedcyrillic
Encoding: 1069 1069 442
Width: 735
Flags: HMW
AnchorPoint: "abovecyr" 503 728 basechar 0
LayerCount: 2
Fore
SplineSet
151 482 m 1
 193 621 315 741 510 741 c 0
 680 741 776 641 776 473 c 0
 776 437 772 399 763 358 c 0
 713 124 555 -23 352 -23 c 0
 191 -23 95 60 95 197 c 0
 95 213 96 231 99 249 c 1
 245 249 l 1
 244 240 243 232 243 224 c 0
 243 146 291 103 375 103 c 0
 479 103 561 179 601 311 c 1
 309 311 l 1
 336 436 l 1
 627 436 l 1
 627 445 l 0
 627 551 572 613 478 613 c 0
 400 613 338 578 294 482 c 1
 151 482 l 1
EndSplineSet
Validated: 3073
EndChar

StartChar: IUcyrillic
Encoding: 1070 1070 443
Width: 1142
Flags: HMW
AnchorPoint: "abovecyr" 641 728 basechar 0
LayerCount: 2
Fore
SplineSet
751 -23 m 4
 527 -23 471 137 471 258 c 0
 471 275 472 293 474 311 c 1
 298 311 l 1
 231 0 l 1
 81 0 l 1
 236 729 l 1
 386 729 l 1
 324 436 l 1
 503 436 l 1
 535 521 651 741 912 741 c 0
 1137 741 1193 584 1193 457 c 0
 1193 199.74 1000 -23 751 -23 c 4
886 613 m 0
 675 613 622 358 622 280 c 0
 622 172 679 105 778 105 c 0
 917.048 105 1042 250.381 1042 439 c 0
 1042 548 985 613 886 613 c 0
EndSplineSet
Validated: 3073
EndChar

StartChar: IAcyrillic
Encoding: 1071 1071 444
Width: 708
Flags: HMW
AnchorPoint: "abovecyr" 513 728 basechar 0
LayerCount: 2
Fore
SplineSet
168 435 m 0
 168 608 282 729 459 729 c 2
 781 729 l 1
 626 0 l 1
 476 0 l 1
 531 260 l 1
 498 260 l 1
 194 0 l 1
 15 0 l 1
 316 261 l 1
 224 270 168 334 168 435 c 0
464 604 m 2
 349 604 320 519 320 459 c 0
 320 409 352 385 418 385 c 2
 558 385 l 1
 604 604 l 1
 464 604 l 2
EndSplineSet
Validated: 3073
EndChar

StartChar: becyrillic
Encoding: 1073 1073 446
Width: 591
Flags: HMW
AnchorPoint: "abovecyr" 431 752 basechar 0
LayerCount: 2
Fore
SplineSet
627 342 m 0
 627 264 578 -23 298 -23 c 0
 170 -23 94 23 94 162 c 4
 94 199 99 242 110 292 c 0
 139 428 194 603 339 684 c 0
 390 712 471 716 538 724 c 0
 586 730 601 776 601 776 c 1
 705 777 l 1
 696 736 686 690 648 666 c 0
 552 606 481 655 387 592 c 0
 334 557 287 470 287 470 c 1
 332 524 385 549 452 549 c 0
 526 549 627 508 627 342 c 0
325 94 m 0
 450 94 485 269 485 319 c 0
 485 388 452 432 397 432 c 0
 270 432 236 256 236 206 c 0
 236 137 269 94 325 94 c 0
EndSplineSet
Validated: 3073
Substitution2: "'locl' Localized Forms for Serbian-Macedonian-1" cyrillic_serb_be
EndChar

StartChar: vecyrillic
Encoding: 1074 1074 447
Width: 574
Flags: MW
AnchorPoint: "abovecyr" 374 545 basechar 0
LayerCount: 2
Fore
SplineSet
576 182 m 0
 576 83 488 0 351 0 c 2
 60 0 l 1
 175 540 l 1
 463 540 l 2
 589 540 612 470 612 423 c 0
 612 341 540 302 512 286 c 1
 555 257 576 223 576 182 c 0
387 333 m 2
 437 333 473 342 473 395 c 0
 473 423 451 430 407 430 c 2
 291 430 l 1
 271 333 l 1
 387 333 l 2
345 110 m 2
 397 110 439 128 439 188 c 0
 439 218 415 223 369 223 c 2
 247 223 l 1
 223 110 l 1
 345 110 l 2
EndSplineSet
Validated: 3073
EndChar

StartChar: gecyrillic
Encoding: 1075 1075 448
Width: 429
Flags: MW
AnchorPoint: "abovecyr" 342 545 basechar 0
LayerCount: 2
Fore
SplineSet
523 540 m 1
 499 427 l 1
 291 427 l 1
 200 0 l 1
 60 0 l 1
 175 540 l 1
 523 540 l 1
EndSplineSet
Validated: 3073
EndChar

StartChar: decyrillic
Encoding: 1076 1076 449
Width: 745
Flags: HMW
AnchorPoint: "abovecyr" 527 545 basechar 0
LayerCount: 2
Fore
SplineSet
654 101 m 1
 746 101 l 1
 698 -125 l 1
 588 -125 l 1
 615 0 l 1
 131 0 l 1
 104 -125 l 1
 -6 -125 l 1
 42 101 l 1
 138 101 l 2
 192 102 246 252 276 388 c 6
 309 540 l 1
 748 540 l 1
 654 101 l 1
319 113 m 1
 517 113 l 1
 584 427 l 1
 425 427 l 1
 414 376 l 2
 389 259 359 174 319 113 c 1
EndSplineSet
Validated: 3073
EndChar

StartChar: zhecyrillic
Encoding: 1078 1078 451
Width: 792
Flags: HMW
AnchorPoint: "abovecyr" 505 545 basechar 0
LayerCount: 2
Fore
SplineSet
368 198 m 1
 189 0 l 1
 10 0 l 1
 286 296 l 1
 161 540 l 1
 309 540 l 1
 401 351 l 1
 441 540 l 1
 581 540 l 1
 541 351 l 1
 713 540 l 1
 861 540 l 1
 632 296 l 1
 782 0 l 1
 603 0 l 1
 508 198 l 1
 466 0 l 1
 326 0 l 1
 368 198 l 1
EndSplineSet
Validated: 3073
EndChar

StartChar: zecyrillic
Encoding: 1079 1079 452
Width: 554
Flags: HMW
AnchorPoint: "abovecyr" 397 545 basechar 0
LayerCount: 2
Fore
SplineSet
298 87 m 0
 387 87 416 120 416 163 c 0
 416 185 405 208 345 208 c 2
 253 208 l 1
 277 318 l 1
 371 318 l 2
 438 318 452 371 452 397 c 0
 452 422 425 439 380 439 c 0
 313 439 275 415 264 366 c 1
 129 366 l 1
 155 480 258 549 403 549 c 0
 523 549 591 496 591 409 c 0
 591 354 567 298 522 271 c 1
 548 252 561 229 561 196 c 0
 561 73 449 -23 282 -23 c 0
 137 -23 62 26 62 119 c 0
 62 131 63 143 66 157 c 1
 203 157 l 1
 203 154 203 152 203 149 c 0
 203 112 222 87 298 87 c 0
EndSplineSet
Validated: 3073
EndChar

StartChar: iicyrillic
Encoding: 1080 1080 453
Width: 603
Flags: MW
AnchorPoint: "abovecyr" 418 545 basechar 0
LayerCount: 2
Fore
SplineSet
175 540 m 1
 315 540 l 1
 242 197 l 1
 503 540 l 1
 658 540 l 1
 543 0 l 1
 403 0 l 1
 476 343 l 1
 215 0 l 1
 60 0 l 1
 175 540 l 1
EndSplineSet
Validated: 3073
EndChar

StartChar: kacyrillic
Encoding: 1082 1082 455
Width: 559
Flags: HMW
AnchorPoint: "abovecyr" 382 545 basechar 0
LayerCount: 2
Fore
SplineSet
275 351 m 1
 477 540 l 1
 625 540 l 1
 359 296 l 1
 549 0 l 1
 367 0 l 1
 242 198 l 1
 200 0 l 1
 60 0 l 1
 175 540 l 1
 315 540 l 1
 275 351 l 1
EndSplineSet
Validated: 3073
EndChar

StartChar: elcyrillic
Encoding: 1083 1083 456
Width: 583
Flags: HMW
AnchorPoint: "abovecyr" 421 545 basechar 0
LayerCount: 2
Fore
SplineSet
199 540 m 1
 638 540 l 1
 524 0 l 1
 384 0 l 1
 474 427 l 1
 315 427 l 1
 305 376 l 6
 248 112 163 0 10 0 c 1
 38 135 l 1
 112 136 138 252 167 388 c 2
 199 540 l 1
EndSplineSet
Validated: 3073
EndChar

StartChar: emcyrillic
Encoding: 1084 1084 457
Width: 664
Flags: MW
AnchorPoint: "abovecyr" 441 545 basechar 0
LayerCount: 2
Fore
SplineSet
313 74 m 1
 255 257 l 1
 200 0 l 1
 60 0 l 1
 175 540 l 1
 315 540 l 1
 394 289 l 1
 579 540 l 1
 719 540 l 1
 604 0 l 1
 464 0 l 1
 519 257 l 1
 383 74 l 1
 313 74 l 1
EndSplineSet
Validated: 3073
EndChar

StartChar: encyrillic
Encoding: 1085 1085 458
Width: 603
Flags: MW
AnchorPoint: "abovecyr" 419 545 basechar 0
LayerCount: 2
Fore
SplineSet
175 540 m 1
 315 540 l 1
 275 352 l 1
 478 352 l 1
 518 540 l 1
 658 540 l 1
 543 0 l 1
 403 0 l 1
 456 237 l 1
 253 237 l 1
 200 0 l 1
 60 0 l 1
 175 540 l 1
EndSplineSet
Validated: 3073
EndChar

StartChar: pecyrillic
Encoding: 1087 1087 460
Width: 603
Flags: MW
AnchorPoint: "abovecyr" 407 545 basechar 0
LayerCount: 2
Fore
SplineSet
175 540 m 1
 658 540 l 1
 543 0 l 1
 403 0 l 1
 494 427 l 1
 291 427 l 1
 200 0 l 1
 60 0 l 1
 175 540 l 1
EndSplineSet
Validated: 3073
EndChar

StartChar: tecyrillic
Encoding: 1090 1090 463
Width: 440
Flags: HMW
AnchorPoint: "abovecyr" 325 545 basechar 0
LayerCount: 2
Fore
SplineSet
540 540 m 1
 516 427 l 1
 381 427 l 1
 290 0 l 1
 150 0 l 1
 241 427 l 1
 106 427 l 1
 130 540 l 1
 540 540 l 1
EndSplineSet
Validated: 3073
EndChar

StartChar: ucyrillic
Encoding: 1091 1091 464
Width: 541
Flags: HMW
AnchorPoint: "abovecyr" 379 545 basechar 0
LayerCount: 2
Fore
SplineSet
505 540 m 1
 649 540 l 1
 291 -99 l 2
 251 -169 212 -219 86 -219 c 0
 69 -219 57 -218 37 -215 c 1
 59 -110 l 1
 76 -115 84 -116 95 -116 c 0
 144 -116 190 -77 201 -26 c 1
 120 540 l 1
 274 540 l 1
 309 147 l 1
 505 540 l 1
EndSplineSet
Validated: 3073
EndChar

StartChar: efcyrillic
Encoding: 1092 1092 465
Width: 948
Flags: HMW
AnchorPoint: "abovecyr" 623 695 basechar 0
LayerCount: 2
Fore
SplineSet
985 346 m 0
 985 112 809 -24 689 -24 c 0
 621 -24 579 4 558 64 c 1
 498 -218 l 1
 358 -218 l 1
 418 64 l 1
 371 4 317 -24 249 -24 c 0
 142 -24 75 59 75 181 c 0
 75 311.505 183.893 549 371 549 c 4
 439 549 481 520 502 460 c 1
 557 719 l 1
 697 719 l 1
 642 460 l 1
 689 520 743 549 811 549 c 0
 885 549 985 508 985 346 c 0
306 93 m 0
 433 93 466 269 466 319 c 0
 466 388 434 432 378 432 c 0
 252 432 218 255 218 205 c 0
 218 137 251 93 306 93 c 0
754 432 m 0
 627 432 594 254 594 205 c 0
 594 136 626 93 682 93 c 0
 763.865 93 842 195.141 842 318 c 0
 842 388 811 432 754 432 c 0
EndSplineSet
Validated: 3073
EndChar

StartChar: khacyrillic
Encoding: 1093 1093 466
Width: 539
Flags: HMW
AnchorPoint: "abovecyr" 384 545 basechar 0
LayerCount: 2
Fore
SplineSet
407 272 m 1
 529 0 l 1
 361 0 l 1
 306 168 l 1
 178 0 l 1
 10 0 l 1
 248 272 l 1
 129 540 l 1
 297 540 l 1
 350 377 l 1
 472 540 l 1
 640 540 l 1
 407 272 l 1
EndSplineSet
Validated: 3073
EndChar

StartChar: tsecyrillic
Encoding: 1094 1094 467
Width: 690
Flags: MW
AnchorPoint: "abovecyr" 417 545 basechar 0
LayerCount: 2
Fore
SplineSet
60 0 m 1
 175 540 l 1
 315 540 l 1
 224 113 l 1
 427 113 l 1
 518 540 l 1
 658 540 l 1
 564 101 l 1
 684 101 l 1
 636 -125 l 1
 526 -125 l 1
 553 0 l 1
 60 0 l 1
EndSplineSet
Validated: 3073
EndChar

StartChar: checyrillic
Encoding: 1095 1095 468
Width: 564
Flags: HMW
AnchorPoint: "abovecyr" 387 545 basechar 0
LayerCount: 2
Fore
SplineSet
161 540 m 1
 301 540 l 1
 245 278 l 1
 423 278 l 1
 479 540 l 1
 619 540 l 1
 504 0 l 1
 364 0 l 1
 399 165 l 1
 221 165 l 2
 159 165 103 181 103 248 c 0
 103 258 104 268 106 279 c 6
 161 540 l 1
EndSplineSet
Validated: 3073
EndChar

StartChar: shacyrillic
Encoding: 1096 1096 469
Width: 901
Flags: MW
AnchorPoint: "abovecyr" 564 545 basechar 0
LayerCount: 2
Fore
SplineSet
841 0 m 1
 60 0 l 1
 175 540 l 1
 315 540 l 1
 224 113 l 1
 403 113 l 1
 494 540 l 1
 634 540 l 1
 543 113 l 1
 725 113 l 1
 816 540 l 1
 956 540 l 1
 841 0 l 1
EndSplineSet
Validated: 3073
EndChar

StartChar: shchacyrillic
Encoding: 1097 1097 470
Width: 987
Flags: MW
AnchorPoint: "abovecyr" 563 545 basechar 0
LayerCount: 2
Fore
SplineSet
851 0 m 1
 60 0 l 1
 174 540 l 1
 314 540 l 1
 224 113 l 1
 403 113 l 1
 493 540 l 1
 633 540 l 1
 543 113 l 1
 725 113 l 1
 815 540 l 1
 955 540 l 1
 862 101 l 1
 982 101 l 1
 934 -125 l 1
 824 -125 l 1
 851 0 l 1
EndSplineSet
Validated: 3073
EndChar

StartChar: hardsigncyrillic
Encoding: 1098 1098 471
Width: 692
Flags: MW
AnchorPoint: "abovecyr" 498 545 basechar 0
LayerCount: 2
Fore
SplineSet
699 202 m 0
 699 126 653 0 472 0 c 2
 181 0 l 1
 271 427 l 1
 100 427 l 1
 124 540 l 1
 435 540 l 1
 391 333 l 1
 507 333 l 2
 633 333 699 288 699 202 c 0
457 110 m 2
 544 110 560 154 560 184 c 0
 560 217 529 223 481 223 c 2
 368 223 l 1
 344 110 l 1
 457 110 l 2
EndSplineSet
Validated: 3073
EndChar

StartChar: yericyrillic
Encoding: 1099 1099 472
Width: 806
Flags: MW
AnchorPoint: "abovecyr" 527 545 basechar 0
LayerCount: 2
Fore
SplineSet
861 540 m 1
 746 0 l 1
 606 0 l 1
 721 540 l 1
 861 540 l 1
577 196 m 0
 577 125 532 0 351 0 c 2
 60 0 l 1
 175 540 l 1
 315 540 l 1
 271 333 l 1
 387 333 l 2
 515 333 577 283 577 196 c 0
346 110 m 2
 401 110 439 129 439 188 c 0
 439 218 416 223 370 223 c 2
 248 223 l 1
 224 110 l 1
 346 110 l 2
EndSplineSet
Validated: 3073
EndChar

StartChar: softsigncyrillic
Encoding: 1100 1100 473
Width: 572
Flags: MW
AnchorPoint: "abovecyr" 404 545 basechar 0
LayerCount: 2
Fore
SplineSet
577 196 m 0
 577 78 487 0 351 0 c 2
 60 0 l 1
 175 540 l 1
 315 540 l 1
 271 333 l 1
 387 333 l 2
 515 333 577 283 577 196 c 0
345 110 m 2
 401 110 439 130 439 188 c 0
 439 218 415 223 369 223 c 2
 247 223 l 1
 223 110 l 1
 345 110 l 2
EndSplineSet
Validated: 3073
EndChar

StartChar: ereversedcyrillic
Encoding: 1101 1101 474
Width: 546
Flags: HMW
AnchorPoint: "abovecyr" 386 545 basechar 0
LayerCount: 2
Fore
SplineSet
585 351 m 0
 585 151 461 -23 262 -23 c 0
 142 -23 70 45 70 155 c 0
 70 165 71 176 72 187 c 1
 206 187 l 1
 209 117 231 90 285 90 c 0
 344 90 393 133 421 207 c 1
 245 207 l 1
 269 320 l 1
 443 320 l 1
 443 324 443 329 443 333 c 0
 443 396 426 436 359 436 c 0
 302 436 269 409 238 338 c 1
 104 338 l 1
 142 470 247 549 382 549 c 0
 514 549 585 478 585 351 c 0
EndSplineSet
Validated: 3073
EndChar

StartChar: iucyrillic
Encoding: 1102 1102 475
Width: 893
Flags: MW
AnchorPoint: "abovecyr" 507 545 basechar 0
LayerCount: 2
Fore
SplineSet
931 347 m 0
 931 156 804 -23 594 -23 c 0
 455 -23 379 53 379 181 c 0
 379 189 379 198 380 207 c 1
 244 207 l 1
 200 0 l 1
 60 0 l 1
 175 540 l 1
 315 540 l 1
 268 320 l 1
 404 320 l 1
 454 463 568 549 715 549 c 0
 855 549 931 476 931 347 c 0
618 90 m 0
 753 90 788 267 788 321 c 0
 788 392 753 436 692 436 c 0
 558 436 522 259 522 207 c 0
 522 135 557 90 618 90 c 0
EndSplineSet
Validated: 3073
EndChar

StartChar: iacyrillic
Encoding: 1103 1103 476
Width: 586
Flags: HMW
AnchorPoint: "abovecyr" 421 545 basechar 0
LayerCount: 2
Fore
SplineSet
123 344 m 0
 123 458 212 540 350 540 c 2
 641 540 l 1
 526 0 l 1
 386 0 l 1
 430 207 l 1
 386 207 l 1
 199 0 l 1
 20 0 l 1
 222 218 l 1
 157 237 123 284 123 344 c 0
356 430 m 2
 300 430 262 410 262 352 c 0
 262 322 286 317 332 317 c 2
 454 317 l 1
 478 430 l 1
 356 430 l 2
EndSplineSet
Validated: 3073
EndChar

StartChar: djecyrillic
Encoding: 1106 1106 479
Width: 616
Flags: HMW
LayerCount: 2
Fore
SplineSet
419 421 m 0
 344 421 299 365 288 315 c 2
 221 0 l 1
 81 0 l 1
 201 567 l 1
 131 567 l 1
 154 671 l 1
 224 671 l 1
 236 729 l 1
 376 729 l 1
 364 671 l 1
 534 671 l 1
 511 567 l 1
 341 567 l 1
 317 453 l 1
 368 511 428 540 495 540 c 0
 556 540 638 514 638 412 c 0
 638 394 636 375 631 354 c 2
 585 132 l 2
 537 -48 306 -173 231 -173 c 0
 227 -173 223 -173 220 -172 c 1
 234 -110 l 1
 290 -108 407 -25 441 112 c 1
 484 321 l 2
 487 334 488 346 488 356 c 0
 488 411 447 421 419 421 c 0
EndSplineSet
Validated: 3073
EndChar

StartChar: ecyrillic
Encoding: 1108 1108 481
Width: 549
Flags: HMW
AnchorPoint: "abovecyr" 395 545 basechar 0
LayerCount: 2
Fore
SplineSet
72 172 m 0
 72 366 197 549 399 549 c 0
 520 549 590 485 590 377 c 0
 590 365 589 352 587 338 c 1
 453 338 l 1
 452 409 431 436 374 436 c 0
 294 436 261 376 240 320 c 1
 414 320 l 1
 390 207 l 1
 215 207 l 1
 215 195 l 0
 215 128 245 90 300 90 c 0
 354 90 388 117 421 187 c 1
 555 187 l 1
 514 58 406 -23 275 -23 c 0
 143 -23 72 47 72 172 c 0
EndSplineSet
Validated: 3073
EndChar

StartChar: ljecyrillic
Encoding: 1113 1113 486
Width: 888
Flags: HMW
AnchorPoint: "abovecyr" 569 545 basechar 0
LayerCount: 2
Fore
SplineSet
709 319 m 2
 823 319 894 267 894 199 c 0
 894 89 813 0 677 0 c 2
 394 0 l 1
 484 427 l 1
 325 427 l 1
 315 376 l 2
 278 204 216 11 36 0 c 2
 20 0 l 1
 48 135 l 1
 123 136 152 269 177 388 c 2
 209 540 l 1
 648 540 l 1
 601 319 l 1
 709 319 l 2
765 173 m 0
 765 193 746 209 682 209 c 2
 578 209 l 1
 557 110 l 1
 666 110 l 2
 738 110 765 119 765 173 c 0
EndSplineSet
Validated: 3073
EndChar

StartChar: njecyrillic
Encoding: 1114 1114 487
Width: 897
Flags: HMW
AnchorPoint: "abovecyr" 586 545 basechar 0
LayerCount: 2
Fore
SplineSet
718 319 m 2
 832 319 903 267 903 199 c 0
 903 89 822 0 686 0 c 2
 403 0 l 1
 447 207 l 1
 244 207 l 1
 200 0 l 1
 60 0 l 1
 174 540 l 1
 314 540 l 1
 268 320 l 1
 471 320 l 1
 517 540 l 1
 657 540 l 1
 610 319 l 1
 718 319 l 2
774 173 m 0
 774 193 755 209 691 209 c 2
 587 209 l 1
 566 110 l 1
 675 110 l 2
 747 110 774 119 774 173 c 0
EndSplineSet
Validated: 3073
EndChar

StartChar: tshecyrillic
Encoding: 1115 1115 488
Width: 606
Flags: HMW
LayerCount: 2
Fore
SplineSet
490 356 m 0
 490 411 449 421 421 421 c 0
 342 421 300 363 289 315 c 2
 223 0 l 1
 83 0 l 1
 203 567 l 1
 133 567 l 1
 155 671 l 1
 225 671 l 1
 237 729 l 1
 377 729 l 1
 365 671 l 1
 535 671 l 1
 513 567 l 1
 343 567 l 1
 319 453 l 1
 370 511 430 540 496 540 c 0
 559 540 639 514 639 412 c 0
 639 388 635 367 633 353 c 2
 557 0 l 1
 417 0 l 1
 486 321 l 2
 489 334 490 346 490 356 c 0
EndSplineSet
Validated: 3073
EndChar

StartChar: dzhecyrillic
Encoding: 1119 1119 492
Width: 603
Flags: MW
AnchorPoint: "abovecyr" 417 545 basechar 0
LayerCount: 2
Fore
SplineSet
543 0 m 1
 60 0 l 1
 175 540 l 1
 315 540 l 1
 224 113 l 1
 427 113 l 1
 518 540 l 1
 658 540 l 1
 543 0 l 1
EndSplineSet
Validated: 3073
EndChar

StartChar: uni048C
Encoding: 1164 1164 493
Width: 639
Flags: MW
LayerCount: 2
Fore
SplineSet
289 344 m 1
 243 125 l 1
 383 125 l 2
 476 125 527 188 527 270 c 0
 527 320 495 344 429 344 c 2
 289 344 l 1
350 631 m 1
 425 631 l 1
 408 551 l 1
 333 551 l 1
 316 469 l 1
 503 469 l 2
 615 469 679 403 679 296 c 0
 679 127 562 0 388 0 c 2
 66 0 l 1
 183 551 l 1
 108 551 l 1
 125 631 l 1
 200 631 l 1
 221 729 l 1
 371 729 l 1
 350 631 l 1
EndSplineSet
Validated: 1
EndChar

StartChar: uni048D
Encoding: 1165 1165 494
Width: 581
Flags: HMW
LayerCount: 2
Fore
SplineSet
282 223 m 1
 258 110 l 1
 355 110 l 2
 417 110 449 140 449 188 c 0
 449 218 425 223 379 223 c 2
 282 223 l 1
337 478 m 1
 420 478 l 1
 405 398 l 1
 320 398 l 1
 306 333 l 1
 397 333 l 2
 525 333 587 283 587 196 c 0
 587 76 495 0 361 0 c 2
 95 0 l 1
 180 398 l 1
 107 398 l 1
 122 478 l 1
 197 478 l 1
 210 540 l 1
 350 540 l 1
 337 478 l 1
EndSplineSet
Validated: 3073
EndChar

StartChar: uni048E
Encoding: 1166 1166 495
Width: 670
Flags: HMW
LayerCount: 2
Fore
SplineSet
571 439 m 1
 582 457 596 494 596 529 c 0
 596 580 564 604 498 604 c 2
 358 604 l 1
 311 385 l 1
 451 385 l 2
 471 385 489 387 505 392 c 1
 446 451 l 1
 515 495 l 1
 571 439 l 1
751 568 m 0
 751 524 736 419 665 345 c 1
 727 283 l 1
 658 239 l 1
 603 294 l 1
 564 272 520 260 472 260 c 2
 285 260 l 1
 230 0 l 1
 80 0 l 1
 235 729 l 1
 557 729 l 2
 684 729 751 673 751 568 c 0
EndSplineSet
Validated: 3073
EndChar

StartChar: uni048F
Encoding: 1167 1167 496
Width: 649
Flags: HMW
LayerCount: 2
Fore
SplineSet
411 432 m 0
 284 432 250 254 250 205 c 0
 250 136 283 93 339 93 c 0
 372 93 403 108 429 135 c 1
 360 204 l 1
 429 248 l 1
 474 203 l 1
 483 225 499 267 499 320 c 0
 499 389 467 432 411 432 c 0
642 345 m 0
 642 233 594 148 568 109 c 1
 641 36 l 1
 572 -8 l 1
 516 48 l 1
 466 3 407 -24 346 -24 c 0
 278 -24 236 4 214 64 c 1
 154 -218 l 1
 14 -218 l 1
 176 540 l 1
 316 540 l 1
 299 460 l 1
 345 520 400 549 468 549 c 0
 540 549 642 508 642 345 c 0
EndSplineSet
Validated: 3073
EndChar

StartChar: uni0490
Encoding: 1168 1168 497
Width: 623
Flags: HMW
LayerCount: 2
Fore
SplineSet
230 0 m 1
 80 0 l 1
 235 729 l 1
 597 728 l 1
 626 864 l 1
 776 864 l 1
 721 604 l 1
 359 604 l 1
 230 0 l 1
EndSplineSet
Validated: 3073
EndChar

StartChar: uni0491
Encoding: 1169 1169 498
Width: 450
Flags: HMW
LayerCount: 2
Fore
SplineSet
550 666 m 1
 499 427 l 1
 291 427 l 1
 200 0 l 1
 60 0 l 1
 175 540 l 1
 395 540 l 1
 422 666 l 1
 550 666 l 1
EndSplineSet
Validated: 3073
EndChar

StartChar: uni0492
Encoding: 1170 1170 499
Width: 623
Flags: HMW
LayerCount: 2
Fore
SplineSet
335 469 m 1
 409 469 l 1
 392 389 l 1
 318 389 l 1
 236 0 l 1
 86 0 l 1
 169 389 l 1
 92 389 l 1
 109 469 l 1
 186 469 l 1
 241 729 l 1
 753 729 l 1
 726 604 l 1
 364 604 l 1
 335 469 l 1
EndSplineSet
Validated: 3073
EndChar

StartChar: uni0493
Encoding: 1171 1171 500
Width: 472
Flags: HMW
LayerCount: 2
Fore
SplineSet
174 344 m 1
 216 540 l 1
 564 540 l 1
 540 427 l 1
 332 427 l 1
 314 344 l 1
 392 344 l 1
 375 264 l 1
 297 264 l 1
 241 0 l 1
 101 0 l 1
 157 264 l 1
 75 264 l 1
 92 344 l 1
 174 344 l 1
EndSplineSet
Validated: 3073
EndChar

StartChar: uni0494
Encoding: 1172 1172 501
Width: 674
Flags: HMW
LayerCount: 2
Fore
SplineSet
230 0 m 1
 80 0 l 1
 235 729 l 1
 747 729 l 1
 720 604 l 1
 358 604 l 1
 326 455 l 1
 470 455 l 2
 623 455 679 390 679 289 c 0
 679 266 676 241 671 215 c 2
 625 0 l 2
 605 -92 569 -166 416 -166 c 2
 312 -166 l 1
 334 -59 l 1
 389 -59 l 2
 456 -59 468 -34 475 0 c 2
 523 224 l 2
 526 241 529 257 529 271 c 0
 529 307 510 330 443 330 c 2
 300 330 l 1
 230 0 l 1
EndSplineSet
Validated: 3073
EndChar

StartChar: uni0495
Encoding: 1173 1173 502
Width: 528
Flags: MW
LayerCount: 2
Fore
SplineSet
291 427 m 1
 266 299 l 1
 374 299 l 2
 461 299 519 246 519 167 c 0
 519 149 517 131 513 112 c 2
 489 0 l 2
 473 -75 431 -132 344 -132 c 2
 263 -132 l 1
 281 -44 l 1
 328 -44 342 -26 352 22 c 2
 370 94 l 2
 374 115 375 115 375 128 c 0
 375 177 342 187 314 187 c 2
 240 187 l 1
 200 0 l 1
 60 0 l 1
 175 540 l 1
 523 540 l 1
 499 427 l 1
 291 427 l 1
EndSplineSet
Validated: 3073
EndChar

StartChar: uni0496
Encoding: 1174 1174 503
Width: 1091
Flags: HMW
LayerCount: 2
Fore
SplineSet
992 108 m 1
 1094 108 l 1
 1039 -150 l 1
 909 -150 l 1
 941 0 l 1
 892 0 l 1
 679 285 l 1
 618 0 l 1
 468 0 l 1
 529 285 l 1
 194 0 l 1
 15 0 l 1
 452 378 l 1
 214 729 l 1
 378 729 l 1
 564 450 l 1
 623 729 l 1
 773 729 l 1
 714 450 l 1
 1018 729 l 1
 1182 729 l 1
 794 378 l 1
 992 108 l 1
EndSplineSet
Validated: 3073
EndChar

StartChar: uni0497
Encoding: 1175 1175 504
Width: 803
Flags: HMW
LayerCount: 2
Fore
SplineSet
732 101 m 1
 804 101 l 1
 756 -125 l 1
 646 -125 l 1
 673 0 l 1
 604 0 l 1
 509 198 l 1
 467 0 l 1
 327 0 l 1
 369 198 l 1
 190 0 l 1
 11 0 l 1
 287 296 l 1
 162 540 l 1
 310 540 l 1
 402 351 l 1
 442 540 l 1
 582 540 l 1
 542 351 l 1
 714 540 l 1
 862 540 l 1
 633 296 l 1
 732 101 l 1
EndSplineSet
Validated: 3073
EndChar

StartChar: uni0498
Encoding: 1176 1176 505
Width: 659
Flags: MW
LayerCount: 2
Fore
SplineSet
360 -22 m 1
 388 -35 462 -81 462 -157 c 0
 462 -204 411 -233 328 -233 c 0
 304 -233 283 -230 251 -224 c 1
 241 -172 l 1
 261 -179 286 -183 312 -183 c 0
 345 -183 362 -169 362 -143 c 0
 362 -116 345 -64 273 -21 c 1
 138 -8 67 59 67 170 c 0
 67 185 68 201 71 218 c 1
 217 218 l 1
 216 211 215 204 215 197 c 0
 215 132 268 97 356 97 c 0
 455 97 526 142 526 223 c 0
 526 270 496 308 411 308 c 2
 309 308 l 1
 334 428 l 1
 410 428 l 2
 522 428 572 483 572 542 c 0
 572 586 531 621 463 621 c 0
 368 621 307 581 286 507 c 1
 146 507 l 1
 159 569 213 741 482 741 c 0
 633 741 716 680 716 571 c 0
 716 487 674 413 617 377 c 1
 658 352 677 317 677 268 c 0
 677 70 539 -12 360 -22 c 1
EndSplineSet
Validated: 1
EndChar

StartChar: uni0499
Encoding: 1177 1177 506
Width: 548
Flags: MW
LayerCount: 2
Fore
SplineSet
316 -21 m 1
 347 -38 419 -80 419 -157 c 0
 419 -204 368 -233 285 -233 c 0
 261 -233 240 -230 208 -224 c 1
 198 -172 l 1
 218 -179 243 -183 269 -183 c 0
 302 -183 319 -169 319 -143 c 0
 319 -116 302 -64 230 -21 c 1
 115 -11 56 38 56 119 c 0
 56 131 57 143 60 157 c 1
 197 157 l 1
 197 149 l 2
 197 92 247 87 292 87 c 0
 365 87 410 109 410 163 c 0
 410 185 399 208 339 208 c 2
 247 208 l 1
 271 318 l 1
 360 318 l 2
 433 318 441 361 441 391 c 0
 441 416 414 439 369 439 c 0
 302 439 269 415 258 366 c 1
 123 366 l 1
 149 480 247 549 392 549 c 0
 512 549 580 496 580 409 c 0
 580 349 557 296 516 271 c 1
 542 252 555 229 555 196 c 0
 555 75 452 -8 316 -21 c 1
EndSplineSet
Validated: 3073
EndChar

StartChar: uni049A
Encoding: 1178 1178 507
Width: 739
Flags: HMW
LayerCount: 2
Fore
SplineSet
632 108 m 1
 742 108 l 1
 687 -150 l 1
 557 -150 l 1
 589 0 l 1
 540 0 l 1
 291 285 l 1
 230 0 l 1
 80 0 l 1
 235 729 l 1
 385 729 l 1
 326 450 l 1
 670 729 l 1
 847 729 l 1
 406 378 l 1
 632 108 l 1
EndSplineSet
Validated: 3073
EndChar

StartChar: uni049B
Encoding: 1179 1179 508
Width: 569
Flags: HMW
LayerCount: 2
Fore
SplineSet
484 101 m 1
 570 101 l 1
 522 -125 l 1
 412 -125 l 1
 439 0 l 1
 367 0 l 1
 242 198 l 1
 200 0 l 1
 60 0 l 1
 175 540 l 1
 315 540 l 1
 275 351 l 1
 477 540 l 1
 625 540 l 1
 359 296 l 1
 484 101 l 1
EndSplineSet
Validated: 3073
EndChar

StartChar: uni049C
Encoding: 1180 1180 509
Width: 742
Flags: HMW
LayerCount: 2
Fore
SplineSet
316 256 m 1
 291 285 l 1
 230 0 l 1
 80 0 l 1
 235 729 l 1
 385 729 l 1
 326 450 l 1
 364 481 l 1
 398 640 l 1
 508 640 l 1
 497 589 l 1
 670 729 l 1
 847 729 l 1
 462 422 l 1
 443 335 l 1
 731 0 l 1
 544 0 l 1
 405 157 l 1
 393 100 l 1
 283 100 l 1
 316 256 l 1
EndSplineSet
Validated: 3073
EndChar

StartChar: uni049D
Encoding: 1181 1181 510
Width: 560
Flags: HMW
LayerCount: 2
Fore
SplineSet
262 166 m 1
 242 198 l 1
 200 0 l 1
 60 0 l 1
 175 540 l 1
 315 540 l 1
 275 351 l 1
 308 382 l 1
 336 511 l 1
 426 511 l 1
 421 487 l 1
 477 540 l 1
 625 540 l 1
 385 320 l 1
 375 271 l 1
 549 0 l 1
 367 0 l 1
 330 59 l 1
 325 38 l 1
 235 38 l 1
 262 166 l 1
EndSplineSet
Validated: 3073
EndChar

StartChar: uni049E
Encoding: 1182 1182 511
Width: 737
Flags: HMW
LayerCount: 2
Fore
SplineSet
371 662 m 1
 448 662 l 1
 431 582 l 1
 354 582 l 1
 326 450 l 1
 670 729 l 1
 847 729 l 1
 406 378 l 1
 731 0 l 1
 544 0 l 1
 291 285 l 1
 230 0 l 1
 80 0 l 1
 204 582 l 1
 131 582 l 1
 148 662 l 1
 221 662 l 1
 235 729 l 1
 385 729 l 1
 371 662 l 1
EndSplineSet
Validated: 3073
EndChar

StartChar: uni049F
Encoding: 1183 1183 512
Width: 559
Flags: HMW
LayerCount: 2
Fore
SplineSet
307 502 m 1
 348 502 l 1
 331 422 l 1
 290 422 l 1
 275 351 l 1
 477 540 l 1
 625 540 l 1
 359 296 l 1
 549 0 l 1
 367 0 l 1
 242 198 l 1
 200 0 l 1
 60 0 l 1
 150 422 l 1
 100 422 l 1
 117 502 l 1
 167 502 l 1
 175 540 l 1
 315 540 l 1
 307 502 l 1
EndSplineSet
Validated: 3073
EndChar

StartChar: uni04A0
Encoding: 1184 1184 513
Width: 900
Flags: MW
LayerCount: 2
Fore
SplineSet
243 0 m 1
 371 604 l 1
 142 604 l 1
 168 729 l 1
 548 729 l 1
 489 450 l 1
 833 729 l 1
 1010 729 l 1
 569 378 l 1
 894 0 l 1
 707 0 l 1
 454 285 l 1
 393 0 l 1
 243 0 l 1
EndSplineSet
Validated: 3073
EndChar

StartChar: uni04A1
Encoding: 1185 1185 514
Width: 679
Flags: MW
LayerCount: 2
Fore
SplineSet
181 0 m 1
 271 427 l 1
 100 427 l 1
 124 540 l 1
 435 540 l 1
 395 351 l 1
 597 540 l 1
 745 540 l 1
 479 296 l 1
 669 0 l 1
 487 0 l 1
 362 198 l 1
 320 0 l 1
 181 0 l 1
EndSplineSet
Validated: 3073
EndChar

StartChar: uni04A2
Encoding: 1186 1186 515
Width: 808
Flags: HMW
LayerCount: 2
Fore
SplineSet
681 108 m 1
 812 108 l 1
 757 -150 l 1
 627 -150 l 1
 659 0 l 1
 509 0 l 1
 575 311 l 1
 286 311 l 1
 220 0 l 1
 70 0 l 1
 225 729 l 1
 375 729 l 1
 313 436 l 1
 601 436 l 1
 663 729 l 1
 814 729 l 1
 681 108 l 1
EndSplineSet
Validated: 3073
EndChar

StartChar: uni04A3
Encoding: 1187 1187 516
Width: 673
Flags: MW
LayerCount: 2
Fore
SplineSet
564 101 m 1
 674 101 l 1
 626 -125 l 1
 516 -125 l 1
 543 0 l 1
 403 0 l 1
 456 237 l 1
 253 237 l 1
 200 0 l 1
 60 0 l 1
 175 540 l 1
 315 540 l 1
 275 352 l 1
 478 352 l 1
 518 540 l 1
 658 540 l 1
 564 101 l 1
EndSplineSet
Validated: 3073
EndChar

StartChar: uni04A4
Encoding: 1188 1188 517
Width: 1004
Flags: HMW
LayerCount: 2
Fore
SplineSet
667 0 m 1
 519 0 l 1
 585 311 l 1
 296 311 l 1
 230 0 l 1
 80 0 l 1
 235 729 l 1
 385 729 l 1
 323 436 l 1
 611 436 l 1
 672 729 l 1
 1134 729 l 1
 1107 604 l 1
 795 604 l 1
 667 0 l 1
EndSplineSet
Validated: 3073
EndChar

StartChar: uni04A5
Encoding: 1189 1189 518
Width: 761
Flags: MW
LayerCount: 2
Fore
SplineSet
542 0 m 1
 403 0 l 1
 456 237 l 1
 253 237 l 1
 200 0 l 1
 60 0 l 1
 175 540 l 1
 315 540 l 1
 275 352 l 1
 478 352 l 1
 517 540 l 1
 855 540 l 1
 831 427 l 1
 633 427 l 1
 542 0 l 1
EndSplineSet
Validated: 3073
EndChar

StartChar: uni04A6
Encoding: 1190 1190 519
Width: 1114
Flags: HMW
LayerCount: 2
Fore
SplineSet
824 729 m 1
 766 455 l 1
 910 455 l 2
 1063 455 1119 390 1119 289 c 0
 1119 266 1116 241 1111 215 c 2
 1065 0 l 2
 1045 -92 1009 -166 856 -166 c 2
 752 -166 l 1
 774 -59 l 1
 829 -59 l 2
 896 -59 908 -34 915 0 c 2
 963 224 l 2
 966 241 969 257 969 271 c 0
 969 307 950 330 883 330 c 2
 740 330 l 1
 670 0 l 1
 519 0 l 1
 647 604 l 1
 358 604 l 1
 230 0 l 1
 80 0 l 1
 235 729 l 1
 824 729 l 1
EndSplineSet
Validated: 3073
EndChar

StartChar: uni04A7
Encoding: 1191 1191 520
Width: 876
Flags: MW
LayerCount: 2
Fore
SplineSet
609 299 m 1
 717 299 l 2
 804 299 862 246 862 167 c 0
 862 149 860 131 856 112 c 2
 832 0 l 2
 816 -75 774 -132 687 -132 c 2
 606 -132 l 1
 624 -44 l 1
 671 -44 685 -26 695 22 c 2
 713 94 l 2
 717 115 718 115 718 128 c 0
 718 177 685 187 657 187 c 2
 583 187 l 1
 543 0 l 1
 403 0 l 1
 494 427 l 1
 291 427 l 1
 200 0 l 1
 60 0 l 1
 175 540 l 1
 658 540 l 1
 609 299 l 1
EndSplineSet
Validated: 1
EndChar

StartChar: uni04AA
Encoding: 1194 1194 521
Width: 724
Flags: HMW
LayerCount: 2
Fore
SplineSet
403 -21 m 1
 434 -38 506 -80 506 -157 c 0
 506 -204 455 -233 372 -233 c 0
 348 -233 327 -230 295 -224 c 1
 285 -172 l 1
 305 -179 330 -183 356 -183 c 0
 389 -183 406 -169 406 -143 c 0
 406 -120 393 -67 316 -20 c 1
 178 -3 100 93 100 243 c 0
 100 522 289 741 528 741 c 0
 680 741 781 658 781 535 c 0
 781 519 779 501 777 482 c 1
 634 482 l 1
 632 550 612 613 506 613 c 0
 362 613 251 452 251 264 c 0
 251 161 302 103 392 103 c 0
 485 103 556 156 585 249 c 1
 731 249 l 1
 689 95 564 -7 403 -21 c 1
EndSplineSet
Validated: 3073
EndChar

StartChar: uni04AB
Encoding: 1195 1195 522
Width: 554
Flags: MW
LayerCount: 2
Fore
SplineSet
322 -20 m 1
 352 -35 427 -80 427 -157 c 0
 427 -204 376 -233 293 -233 c 0
 269 -233 248 -230 216 -224 c 1
 206 -172 l 1
 226 -179 251 -183 277 -183 c 0
 310 -183 327 -169 327 -143 c 0
 327 -96 287 -50 236 -20 c 1
 133 -4 77 67 77 173 c 0
 77 376 218 549 404 549 c 0
 525 549 595 485 595 377 c 0
 595 365 594 352 592 338 c 1
 458 338 l 1
 457 409 436 436 379 436 c 0
 244 436 220 243 220 197 c 0
 220 129 248 90 306 90 c 0
 360 90 393 117 426 187 c 1
 560 187 l 1
 524 72 434 -5 322 -20 c 1
EndSplineSet
Validated: 1
EndChar

StartChar: uni04AC
Encoding: 1196 1196 523
Width: 611
Flags: MW
LayerCount: 2
Fore
SplineSet
407 108 m 1
 538 108 l 1
 483 -150 l 1
 353 -150 l 1
 385 0 l 1
 235 0 l 1
 363 604 l 1
 142 604 l 1
 169 729 l 1
 753 729 l 1
 726 604 l 1
 513 604 l 1
 407 108 l 1
EndSplineSet
Validated: 1
EndChar

StartChar: uni04AD
Encoding: 1197 1197 524
Width: 454
Flags: MW
LayerCount: 2
Fore
SplineSet
306 101 m 1
 416 101 l 1
 368 -125 l 1
 258 -125 l 1
 285 0 l 1
 145 0 l 1
 236 427 l 1
 101 427 l 1
 125 540 l 1
 535 540 l 1
 511 427 l 1
 376 427 l 1
 306 101 l 1
EndSplineSet
Validated: 1
EndChar

StartChar: uni04AE
Encoding: 1198 1198 525
Width: 667
Flags: MW
LayerCount: 2
Fore
SplineSet
477 270 m 1
 419 0 l 1
 269 0 l 1
 327 270 l 1
 182 729 l 1
 349 729 l 1
 431 414 l 1
 638 729 l 1
 805 729 l 1
 477 270 l 1
EndSplineSet
Validated: 1
EndChar

StartChar: uni04AF
Encoding: 1199 1199 526
Width: 584
Flags: HMW
LayerCount: 2
Fore
SplineSet
422 81 m 1
 384 -189 l 1
 234 -189 l 1
 272 81 l 1
 125 540 l 1
 292 540 l 1
 366 218 l 1
 520 540 l 1
 688 540 l 1
 422 81 l 1
EndSplineSet
Validated: 3073
EndChar

StartChar: uni04B0
Encoding: 1200 1200 527
Width: 652
Flags: HMW
LayerCount: 2
Fore
SplineSet
295 145 m 1
 95 145 l 1
 117 249 l 1
 317 249 l 1
 321 270 l 1
 175 729 l 1
 342 729 l 1
 424 407 l 1
 630 729 l 1
 798 729 l 1
 471 270 l 1
 467 249 l 1
 667 249 l 1
 645 145 l 1
 445 145 l 1
 415 0 l 1
 265 0 l 1
 295 145 l 1
EndSplineSet
Validated: 3073
EndChar

StartChar: uni04B1
Encoding: 1201 1201 528
Width: 632
Flags: HMW
LayerCount: 2
Fore
SplineSet
409 -23 m 1
 385 -189 l 1
 235 -189 l 1
 259 -23 l 1
 59 -23 l 1
 73 81 l 1
 273 81 l 1
 125 540 l 1
 292 540 l 1
 366 218 l 1
 520 540 l 1
 688 540 l 1
 423 81 l 1
 623 81 l 1
 609 -23 l 1
 409 -23 l 1
EndSplineSet
Validated: 3073
EndChar

StartChar: uni04B2
Encoding: 1202 1202 529
Width: 667
Flags: HMW
LayerCount: 2
Fore
SplineSet
602 108 m 1
 670 108 l 1
 615 -150 l 1
 485 -150 l 1
 517 0 l 1
 469 0 l 1
 383 253 l 1
 190 0 l 1
 16 0 l 1
 324 367 l 1
 179 729 l 1
 357 729 l 1
 434 489 l 1
 619 729 l 1
 793 729 l 1
 492 372 l 1
 602 108 l 1
EndSplineSet
Validated: 3073
EndChar

StartChar: uni04B3
Encoding: 1203 1203 530
Width: 550
Flags: HMW
LayerCount: 2
Fore
SplineSet
483 101 m 1
 551 101 l 1
 503 -125 l 1
 393 -125 l 1
 420 0 l 1
 361 0 l 1
 306 168 l 1
 178 0 l 1
 10 0 l 1
 248 272 l 1
 129 540 l 1
 297 540 l 1
 350 377 l 1
 472 540 l 1
 640 540 l 1
 407 272 l 1
 483 101 l 1
EndSplineSet
Validated: 3073
EndChar

StartChar: uni04B4
Encoding: 1204 1204 531
Width: 951
Flags: MW
LayerCount: 2
Fore
SplineSet
481 604 m 1
 379 125 l 1
 668 125 l 1
 796 729 l 1
 946 729 l 1
 814 108 l 1
 954 108 l 1
 899 -150 l 1
 769 -150 l 1
 801 0 l 1
 203 0 l 1
 331 604 l 1
 142 604 l 1
 167 729 l 1
 689 729 l 1
 664 604 l 1
 481 604 l 1
EndSplineSet
Validated: 3073
EndChar

StartChar: uni04B5
Encoding: 1205 1205 532
Width: 748
Flags: MW
LayerCount: 2
Fore
SplineSet
356 427 m 1
 289 113 l 1
 492 113 l 1
 583 540 l 1
 723 540 l 1
 629 101 l 1
 749 101 l 1
 701 -125 l 1
 591 -125 l 1
 618 0 l 1
 125 0 l 1
 216 427 l 1
 101 427 l 1
 125 540 l 1
 495 540 l 1
 471 427 l 1
 356 427 l 1
EndSplineSet
Validated: 3073
EndChar

StartChar: uni04B6
Encoding: 1206 1206 533
Width: 759
Flags: HMW
LayerCount: 2
Fore
SplineSet
612 108 m 1
 752 108 l 1
 697 -150 l 1
 567 -150 l 1
 599 0 l 1
 439 0 l 1
 497 274 l 1
 353 274 l 2
 200 274 144 339 144 440 c 0
 144 463 147 488 152 514 c 2
 198 729 l 1
 348 729 l 1
 300 505 l 2
 297 488 294 472 294 458 c 0
 294 422 313 399 380 399 c 2
 523 399 l 1
 593 729 l 1
 744 729 l 1
 612 108 l 1
EndSplineSet
Validated: 3073
EndChar

StartChar: uni04B7
Encoding: 1207 1207 534
Width: 630
Flags: HMW
LayerCount: 2
Fore
SplineSet
512 101 m 1
 631 101 l 1
 583 -125 l 1
 473 -125 l 1
 500 0 l 1
 350 0 l 1
 385 165 l 1
 300 165 l 2
 166 165 104 214 104 309 c 0
 104 327 106 347 111 369 c 2
 147 540 l 1
 287 540 l 1
 249 363 l 2
 246 349 244 337 244 326 c 0
 244 295 261 278 316 278 c 2
 409 278 l 1
 465 540 l 1
 605 540 l 1
 512 101 l 1
EndSplineSet
Validated: 3073
EndChar

StartChar: uni04B8
Encoding: 1208 1208 535
Width: 669
Flags: HMW
LayerCount: 2
Fore
SplineSet
359 400 m 1
 390 550 l 1
 489 550 l 1
 457 399 l 1
 523 399 l 1
 593 729 l 1
 744 729 l 1
 589 0 l 1
 439 0 l 1
 497 274 l 1
 431 274 l 1
 400 130 l 1
 301 130 l 1
 332 274 l 1
 195 280 144 344 144 440 c 0
 144 463 147 488 152 514 c 2
 198 729 l 1
 348 729 l 1
 300 505 l 2
 297 488 294 472 294 458 c 0
 294 426 309 405 359 400 c 1
EndSplineSet
Validated: 3073
EndChar

StartChar: uni04B9
Encoding: 1209 1209 536
Width: 580
Flags: HMW
LayerCount: 2
Fore
SplineSet
268 167 m 1
 163 177 114 225 114 309 c 0
 114 327 116 347 121 369 c 2
 157 540 l 1
 297 540 l 1
 259 363 l 2
 256 349 254 337 254 326 c 0
 254 303 264 287 292 281 c 1
 311 370 l 1
 390 370 l 1
 370 278 l 1
 419 278 l 1
 475 540 l 1
 615 540 l 1
 500 0 l 1
 360 0 l 1
 395 165 l 1
 346 165 l 1
 326 70 l 1
 247 70 l 1
 268 167 l 1
EndSplineSet
Validated: 3073
EndChar

StartChar: uni04BA
Encoding: 1210 1210 537
Width: 672
Flags: HMW
LayerCount: 2
Fore
SplineSet
327 455 m 1
 471 455 l 2
 624 455 680 390 680 289 c 0
 680 266 677 241 671 215 c 2
 626 0 l 1
 476 0 l 1
 523 224 l 2
 527 241 529 257 529 271 c 0
 529 307 511 330 444 330 c 2
 301 330 l 1
 231 0 l 1
 80 0 l 1
 235 729 l 1
 385 729 l 1
 327 455 l 1
EndSplineSet
Validated: 3073
EndChar

StartChar: uni04BB
Encoding: 1211 1211 538
Width: 576
Flags: HMW
LayerCount: 2
Fore
SplineSet
528 0 m 1
 388 0 l 1
 426 177 l 2
 429 191 431 203 431 214 c 0
 431 245 414 262 359 262 c 2
 266 262 l 1
 210 0 l 1
 70 0 l 1
 185 540 l 1
 325 540 l 1
 290 375 l 1
 375 375 l 2
 509 375 571 326 571 231 c 0
 571 213 569 193 564 171 c 2
 528 0 l 1
EndSplineSet
Validated: 3073
EndChar

StartChar: uni04BC
Encoding: 1212 1212 539
Width: 977
Flags: HMW
LayerCount: 2
Fore
SplineSet
561.689 469 m 1
 893.689 469 l 1
 894.691 477.65 895.186 485.953 895.186 493.9 c 0
 895.186 571.4 848.073 615 763.723 615 c 0
 676.723 615 605.457 562 561.689 469 c 1
137.016 495.289 m 0
 137.016 612.079 201.34 745 346.354 745 c 0
 417.3 745 471.75 714.314 471.75 648.24 c 0
 471.75 638.875 470.656 628.8 468.36 618 c 1
 358.36 618 l 1
 359.028 621.144 359.364 624.198 359.364 627.119 c 0
 359.364 643.709 348.545 656 326.438 656 c 0
 286.438 656 278.485 628 266.37 571 c 0
 263.437 557.203 261.996 544.558 261.996 533.221 c 0
 261.996 492.789 280.325 469 314.689 469 c 2
 408.689 469 l 1
 478.823 639 617.504 741 786.504 741 c 0
 934.872 741 1031.69 659.697 1031.69 488.828 c 0
 1031.69 451.247 1027.01 409.334 1017.16 363 c 1
 526.158 363 l 1
 518.741 328.104 515.112 296.478 515.112 268.29 c 0
 515.112 162.386 566.334 105 660.318 105 c 0
 785.318 105 827.299 199 844.163 236 c 1
 987.163 236 l 1
 939.304 72 793.111 -23 628.111 -23 c 0
 458.463 -23 362.762 76.0189 362.762 245.013 c 0
 362.762 281.224 367.156 320.649 376.158 363 c 1
 204.066 363 137.016 395.906 137.016 495.289 c 0
EndSplineSet
Validated: 3073
EndChar

StartChar: uni04BD
Encoding: 1213 1213 540
Width: 752
Flags: HMW
LayerCount: 2
Fore
SplineSet
458.67 356 m 1
 654.67 356 l 1
 650.998 414 628.675 436 576.675 436 c 0
 497.675 436 468.709 375 458.67 356 c 1
108.024 366.234 m 0
 108.024 495.36 200.861 549 263.693 549 c 0
 311.677 549 357.853 518.206 357.853 465.74 c 0
 357.853 459.161 357.127 452.242 355.588 445 c 1
 271.588 445 l 1
 272.115 447.479 272.37 449.837 272.37 452.06 c 0
 272.37 465.527 262.988 474 247.752 474 c 0
 204.682 474 196.989 406.982 196.989 397.193 c 0
 196.989 367.163 219.515 356 243.67 356 c 2
 315.67 356 l 1
 370.027 480 471.693 549 601.693 549 c 0
 722.836 549 792.61 485.386 792.61 376.945 c 0
 792.61 364.541 791.697 351.55 789.844 338 c 2
 773.265 260 l 1
 425.265 260 l 1
 420.018 235.317 417.448 213.096 417.448 193.486 c 0
 417.448 126.501 447.434 90 503.13 90 c 0
 557.13 90 590.869 117 623.748 187 c 1
 757.748 187 l 1
 717.328 58 609.111 -23 478.111 -23 c 0
 346.299 -23 275.197 47.5817 275.197 171.976 c 0
 275.197 198.86 278.518 228.258 285.265 260 c 1
 161.298 260 108.024 287.32 108.024 366.234 c 0
EndSplineSet
Validated: 3073
EndChar

StartChar: uni04BE
Encoding: 1214 1214 541
Width: 993
Flags: HMW
LayerCount: 2
Fore
SplineSet
561.697 469 m 1
 893.697 469 l 1
 894.181 475.078 894.421 480.985 894.421 486.717 c 0
 894.421 568.701 845.364 615 758.441 615 c 0
 671.441 615 602.096 562 561.697 469 c 1
135.92 503.822 m 0
 135.92 646.258 214.402 745 336.363 745 c 0
 408.893 745 465.344 712.929 465.344 643.76 c 0
 465.344 635.682 464.574 627.098 462.97 618 c 1
 352.97 618 l 1
 353.435 620.641 353.669 623.219 353.669 625.707 c 0
 353.669 643.007 342.401 656 319.671 656 c 0
 272 656 259.587 568.272 259.587 538.303 c 0
 259.587 494.79 278.917 469 314.697 469 c 2
 408.697 469 l 1
 472.673 639 607.658 741 776.658 741 c 0
 929.896 741 1031.29 654.272 1031.29 471.715 c 0
 1031.29 438.64 1027.96 402.42 1021.01 363 c 1
 530.007 363 l 1
 524.747 333.171 522.169 305.732 522.169 280.787 c 0
 522.169 166.908 575.898 105 673.515 105 c 0
 798.515 105 837.089 199 852.613 236 c 1
 995.613 236 l 1
 957.164 86 834.942 -6 687.297 -21 c 1
 656.264 -197 l 1
 564.264 -197 l 1
 595.474 -20 l 1
 451.55 -1.60414 370.542 99.9952 370.542 261.412 c 0
 370.542 293.037 373.652 326.959 380.007 363 c 1
 203.081 363 135.92 397.781 135.92 503.822 c 0
EndSplineSet
Validated: 3073
EndChar

StartChar: uni04BF
Encoding: 1215 1215 542
Width: 761
Flags: HMW
LayerCount: 2
Fore
SplineSet
101.636 372.972 m 0
 101.636 503.143 192.958 549 250.804 549 c 0
 299.782 549 348.039 516.916 348.039 462.449 c 0
 348.039 456.864 347.532 451.045 346.466 445 c 1
 262.466 445 l 1
 262.856 447.213 263.046 449.32 263.046 451.314 c 0
 263.046 465.538 253.366 474 237.579 474 c 0
 198.516 474 189.559 416.286 189.559 399.445 c 0
 189.559 367.719 213.023 356 237.772 356 c 2
 309.772 356 l 1
 359.637 480 458.804 549 588.804 549 c 0
 713.424 549 786.124 481.681 786.124 367.496 c 0
 786.124 357.985 785.619 348.149 784.599 338 c 2
 770.845 260 l 1
 422.845 260 l 1
 419.115 238.848 417.286 219.504 417.286 202.062 c 0
 417.286 129.623 448.841 90 506.869 90 c 0
 560.869 90 593.63 117 623.973 187 c 1
 757.973 187 l 1
 727.225 75 642.823 -1 535.649 -19 c 1
 504.264 -197 l 1
 412.264 -197 l 1
 443.474 -20 l 1
 334.33 -5.8367 275.728 66.6322 275.728 184.106 c 0
 275.728 207.634 278.078 232.968 282.845 260 c 1
 155.413 260 101.636 288.869 101.636 372.972 c 0
452.772 356 m 1
 648.772 356 l 1
 642.999 414 619.879 436 567.879 436 c 0
 488.879 436 462.123 375 452.772 356 c 1
EndSplineSet
Validated: 3073
EndChar

StartChar: uni04C0
Encoding: 1216 1216 543
Width: 318
Flags: HMW
LayerCount: 2
Fore
SplineSet
385 729 m 1
 230 0 l 1
 80 0 l 1
 235 729 l 1
 385 729 l 1
EndSplineSet
Validated: 3073
EndChar

StartChar: uni04C3
Encoding: 1219 1219 546
Width: 726
Flags: HMW
LayerCount: 2
Fore
SplineSet
491 253 m 2
 284 253 l 1
 230 0 l 1
 80 0 l 1
 235 729 l 1
 385 729 l 1
 326 450 l 1
 670 729 l 1
 847 729 l 1
 406 378 l 1
 518 378 l 2
 671 378 727 313 727 212 c 0
 727 189 724 164 719 138 c 2
 690 3 l 2
 670 -89 634 -163 481 -163 c 2
 377 -163 l 1
 399 -56 l 1
 454 -56 l 2
 521 -56 533 -31 540 3 c 2
 571 147 l 2
 574 164 577 180 577 194 c 0
 577 230 558 253 491 253 c 2
EndSplineSet
Validated: 3073
EndChar

StartChar: uni04C4
Encoding: 1220 1220 547
Width: 530
Flags: HMW
LayerCount: 2
Fore
SplineSet
375 297 m 2
 462 297 520 246 520 167 c 0
 520 149 518 131 514 112 c 2
 490 0 l 2
 474 -75 432 -132 345 -132 c 2
 264 -132 l 1
 282 -44 l 1
 329 -44 343 -26 353 22 c 2
 371 94 l 2
 375 115 376 115 376 128 c 0
 376 177 343 187 315 187 c 2
 241 187 l 1
 201 0 l 1
 60 0 l 1
 175 540 l 1
 315 540 l 1
 275 351 l 1
 477 540 l 1
 625 540 l 1
 359 296 l 1
 375 297 l 2
EndSplineSet
Validated: 3073
EndChar

StartChar: uni04C7
Encoding: 1223 1223 548
Width: 749
Flags: HMW
LayerCount: 2
Fore
SplineSet
519 0 m 2
 585 311 l 1
 296 311 l 1
 230 0 l 1
 80 0 l 1
 235 729 l 1
 385 729 l 1
 323 436 l 1
 611 436 l 1
 673 729 l 1
 824 729 l 1
 669 0 l 2
 649 -92 613 -166 460 -166 c 2
 356 -166 l 1
 378 -59 l 1
 433 -59 l 2
 500 -59 512 -34 519 0 c 2
EndSplineSet
Validated: 3073
EndChar

StartChar: uni04C8
Encoding: 1224 1224 549
Width: 603
Flags: MW
LayerCount: 2
Fore
SplineSet
403 0 m 2
 456 237 l 1
 253 237 l 1
 200 0 l 1
 60 0 l 1
 175 540 l 1
 315 540 l 1
 275 352 l 1
 478 352 l 1
 518 540 l 1
 658 540 l 1
 543 0 l 2
 527 -75 487 -132 400 -132 c 2
 319 -132 l 1
 337 -44 l 1
 384 -44 398 -23 403 0 c 2
EndSplineSet
Validated: 3073
EndChar

StartChar: uni04CB
Encoding: 1227 1227 550
Width: 675
Flags: HMW
LayerCount: 2
Fore
SplineSet
435 0 m 1
 403 -150 l 1
 273 -150 l 1
 328 108 l 1
 468 108 l 1
 503 274 l 1
 359 274 l 2
 206 274 150 339 150 440 c 0
 150 463 153 488 158 514 c 2
 204 729 l 1
 354 729 l 1
 306 505 l 2
 303 488 300 472 300 458 c 0
 300 422 319 399 386 399 c 2
 529 399 l 1
 599 729 l 1
 750 729 l 1
 595 0 l 1
 435 0 l 1
EndSplineSet
Validated: 3073
EndChar

StartChar: uni04CC
Encoding: 1228 1228 551
Width: 573
Flags: HMW
LayerCount: 2
Fore
SplineSet
383 101 m 1
 397 165 l 1
 312 165 l 2
 178 165 116 214 116 309 c 0
 116 327 118 347 123 369 c 2
 159 540 l 1
 299 540 l 1
 261 363 l 2
 258 349 256 337 256 326 c 0
 256 295 273 278 328 278 c 2
 421 278 l 1
 477 540 l 1
 617 540 l 1
 502 0 l 1
 352 0 l 1
 325 -125 l 1
 215 -125 l 1
 263 101 l 1
 383 101 l 1
EndSplineSet
Validated: 3073
EndChar

StartChar: uni04D8
Encoding: 1240 1240 560
Width: 738
Flags: HMW
LayerCount: 2
Fore
SplineSet
363 -23 m 0
 205 -23 105 68 105 200 c 0
 105 287 110 320 118 353 c 1
 629 353 l 1
 636 385 640 419 640 454 c 0
 640 557 589 615 499 615 c 0
 406 615 335 562 306 469 c 1
 160 469 l 1
 205 636 348 741 529 741 c 0
 696 741 791 641 791 475 c 0
 791 196 602 -23 363 -23 c 0
257 236 m 1
 259 168 279 105 385 105 c 0
 467 105 538 157 584 236 c 1
 257 236 l 1
EndSplineSet
Validated: 3073
EndChar

StartChar: afii10846
Encoding: 1241 1241 561
Width: 561
Flags: HMW
LayerCount: 2
Fore
SplineSet
77 172 m 0
 77 192 78 239 92 280 c 1
 454 280 l 1
 462 299 463 325 463 344 c 0
 463 350 463 356 463 360 c 0
 463 416 424 442 375 442 c 0
 324 442 280 417 253 374 c 1
 115 374 l 1
 169 480 282 549 403 549 c 0
 529 549 600 477 600 354 c 0
 600 154 457 -23 278 -23 c 0
 159 -23 77 43 77 172 c 0
429 187 m 1
 220 187 l 1
 219.445 180.899 219.041 174.297 219.041 167.485 c 0
 219.041 129.094 231.88 84 303 84 c 0
 365 84 401 124 429 187 c 1
EndSplineSet
Validated: 3073
EndChar

StartChar: hiriqhebrew
Encoding: 1460 1460 594
Width: 0
Flags: HMW
AnchorPoint: "vowel_below_heb" 360 0 mark 0
AnchorPoint: "vowel_below_yiddish" 361 0 mark 0
LayerCount: 2
Fore
SplineSet
310 -60 m 1
 393 -60 l 1
 375 -142 l 1
 293 -142 l 1
 310 -60 l 1
EndSplineSet
Validated: 3073
EndChar

StartChar: patahhebrew
Encoding: 1463 1463 597
Width: 0
Flags: HMW
AnchorPoint: "vowel_below_heb" 370 -0.166992 mark 0
AnchorPoint: "vowel_below_yiddish" 371 -0.333008 mark 0
LayerCount: 2
Fore
SplineSet
266 -60 m 1
 466 -60 l 1
 449 -142 l 1
 249 -142 l 1
 266 -60 l 1
EndSplineSet
Validated: 3073
EndChar

StartChar: qamatshebrew
Encoding: 1464 1464 598
Width: 0
Flags: HMW
AnchorPoint: "vowel_below_heb" 360 0 mark 0
AnchorPoint: "vowel_below_yiddish" 361 0 mark 0
LayerCount: 2
Fore
SplineSet
377 -142 m 1
 354 -248 l 1
 272 -248 l 1
 295 -142 l 1
 236 -142 l 1
 253 -60 l 1
 453 -60 l 1
 436 -142 l 1
 377 -142 l 1
EndSplineSet
Validated: 3073
EndChar

StartChar: holamhebrew
Encoding: 1465 1465 599
Width: 0
Flags: HMW
AnchorPoint: "vowel_above_heb" 240 600 mark 0
LayerCount: 2
Fore
SplineSet
222 742 m 1
 304 742 l 1
 287 660 l 1
 204 660 l 1
 222 742 l 1
EndSplineSet
Validated: 3073
EndChar

StartChar: siluqhebrew
Encoding: 1469 1469 602
Width: 0
Flags: HMW
LayerCount: 2
Fore
SplineSet
350 -60 m 1
 310 -248 l 1
 227 -248 l 1
 267 -60 l 1
 350 -60 l 1
EndSplineSet
Validated: 3073
EndChar

StartChar: maqafhebrew
Encoding: 1470 1470 603
Width: 596
Flags: HMW
LayerCount: 2
Fore
SplineSet
259 485 m 1
 283 600 l 1
 665 600 l 1
 640 485 l 1
 259 485 l 1
EndSplineSet
Validated: 3073
EndChar

StartChar: afii57842
Encoding: 1472 1472 605
Width: 377
Flags: HMW
LayerCount: 2
Fore
SplineSet
18 -100 m 1
 188 700 l 1
 327 700 l 1
 157 -100 l 1
 18 -100 l 1
EndSplineSet
Validated: 3073
EndChar

StartChar: shindothebrew
Encoding: 1473 1473 606
Width: 0
Flags: HMW
LayerCount: 2
Fore
SplineSet
763 721 m 1
 845 721 l 1
 828 639 l 1
 745 639 l 1
 763 721 l 1
EndSplineSet
Validated: 3073
EndChar

StartChar: alefhebrew
Encoding: 1488 1488 610
Width: 714
Flags: HMW
AnchorPoint: "vowel_left_heb" 300 138 basechar 0
AnchorPoint: "vowel_above_heb" 237 600 basechar 0
AnchorPoint: "above_mid_heb" 440 600 basechar 0
AnchorPoint: "vowel_below_heb" 320 0 basechar 0
LayerCount: 2
Fore
SplineSet
306 285 m 1
 257 237 245 207 219 148 c 1
 188 0 l 1
 49 0 l 1
 82 158 l 2
 139 302 205 357 254 388 c 1
 149 600 l 1
 310 600 l 1
 452 315 l 1
 500 362 511 389 536 444 c 1
 570 600 l 1
 709 600 l 1
 673 433 l 2
 619 297 549 241 503 212 c 1
 610 0 l 1
 447 0 l 1
 306 285 l 1
EndSplineSet
Validated: 3073
EndChar

StartChar: bethebrew
Encoding: 1489 1489 611
Width: 651
Flags: HMW
AnchorPoint: "vowel_left_heb" 302 306 basechar 0
AnchorPoint: "vowel_above_heb" 200 600 basechar 0
AnchorPoint: "above_mid_heb" 380 600 basechar 0
AnchorPoint: "vowel_below_heb" 340 0 basechar 0
LayerCount: 2
Fore
SplineSet
346 600 m 2
 502.356 581.406 562.341 488.649 562.341 409.9 c 0
 562.341 397.469 560.847 385.386 558 374 c 2
 503 115 l 1
 595 115 l 1
 570 0 l 1
 37 0 l 1
 61 115 l 1
 364 115 l 1
 418 365 l 2
 416 446 416 464 310 485 c 2
 140 485 l 1
 164 600 l 1
 346 600 l 2
EndSplineSet
Validated: 3073
EndChar

StartChar: gimelhebrew
Encoding: 1490 1490 612
Width: 557
Flags: HMW
AnchorPoint: "vowel_left_heb" 214 306 basechar 0
AnchorPoint: "vowel_above_heb" 235 600 basechar 0
AnchorPoint: "above_mid_heb" 370 600 basechar 0
AnchorPoint: "vowel_below_heb" 286 0 basechar 0
LayerCount: 2
Fore
SplineSet
288 600 m 2
 479 578 497 501 500 378 c 2
 463 0 l 1
 323 0 l 1
 337 138 l 1
 180 0 l 1
 7 0 l 1
 225 194 l 1
 342 194 l 1
 359 361 l 2
 354 451 360 464 251 485 c 2
 179 485 l 1
 203 600 l 1
 288 600 l 2
EndSplineSet
Validated: 3073
EndChar

StartChar: dalethebrew
Encoding: 1491 1491 613
Width: 638
Flags: HMW
AnchorPoint: "vowel_left_heb" 302 306 basechar 0
AnchorPoint: "vowel_above_heb" 198 600 basechar 0
AnchorPoint: "above_mid_heb" 400 600 basechar 0
AnchorPoint: "vowel_below_heb" 384 0 basechar 0
LayerCount: 2
Fore
SplineSet
407 485 m 1
 126 485 l 1
 150 600 l 1
 653 600 l 1
 629 485 l 1
 546 485 l 1
 443 0 l 1
 304 0 l 1
 407 485 l 1
EndSplineSet
Validated: 3073
EndChar

StartChar: hehebrew
Encoding: 1492 1492 614
Width: 682
Flags: HMW
AnchorPoint: "vowel_left_heb" 361 306 basechar 0
AnchorPoint: "vowel_above_heb" 220 600 basechar 0
AnchorPoint: "above_mid_heb" 420 600 basechar 0
AnchorPoint: "vowel_below_heb" 315 0 basechar 0
LayerCount: 2
Fore
SplineSet
439 600 m 2
 526 590 652 562 652 406 c 0
 652 396 652 386 651 374 c 1
 572 0 l 1
 433 0 l 1
 511 365 l 2
 508 453 506 465 403 485 c 2
 142 485 l 1
 167 600 l 1
 439 600 l 2
39 0 m 1
 114 349 l 1
 253 349 l 1
 178 0 l 1
 39 0 l 1
EndSplineSet
Validated: 3073
EndChar

StartChar: vavhebrew
Encoding: 1493 1493 615
Width: 297
Flags: HMW
AnchorPoint: "vowel_left_heb" 80 306 basechar 0
AnchorPoint: "vowel_above_heb" 154 600 basechar 0
AnchorPoint: "above_mid_heb" 237 600 basechar 0
AnchorPoint: "vowel_below_heb" 122 0 basechar 0
LayerCount: 2
Fore
SplineSet
39 0 m 1
 167 600 l 1
 306 600 l 1
 178 0 l 1
 39 0 l 1
EndSplineSet
Validated: 3073
EndChar

StartChar: zayinhebrew
Encoding: 1494 1494 616
Width: 443
Flags: HMW
AnchorPoint: "vowel_left_heb" 141 306 basechar 0
AnchorPoint: "vowel_above_heb" 139 600 basechar 0
AnchorPoint: "above_mid_heb" 300 600 basechar 0
AnchorPoint: "vowel_below_heb" 180 0 basechar 0
LayerCount: 2
Fore
SplineSet
212 485 m 1
 127 485 l 1
 151 600 l 1
 458 600 l 1
 434 485 l 1
 351 485 l 1
 248 0 l 1
 109 0 l 1
 212 485 l 1
EndSplineSet
Validated: 3073
EndChar

StartChar: hethebrew
Encoding: 1495 1495 617
Width: 682
Flags: HMW
AnchorPoint: "vowel_left_heb" 373 306 basechar 0
AnchorPoint: "vowel_above_heb" 222 600 basechar 0
AnchorPoint: "above_mid_heb" 420 600 basechar 0
AnchorPoint: "vowel_below_heb" 315 0 basechar 0
LayerCount: 2
Fore
SplineSet
439 600 m 2
 605.753 592.42 654.531 478.481 654.531 405.536 c 0
 654.531 393.746 653.257 383.026 651 374 c 2
 572 0 l 1
 433 0 l 1
 511 365 l 2
 508 453 507 465 403 485 c 2
 281 485 l 1
 178 0 l 1
 39 0 l 1
 167 600 l 1
 439 600 l 2
EndSplineSet
Validated: 3073
EndChar

StartChar: tethebrew
Encoding: 1496 1496 618
Width: 670
Flags: HMW
AnchorPoint: "vowel_left_heb" 399 306 basechar 0
AnchorPoint: "vowel_above_heb" 233 600 basechar 0
AnchorPoint: "above_mid_heb" 450 600 basechar 0
AnchorPoint: "vowel_below_heb" 306 0 basechar 0
LayerCount: 2
Fore
SplineSet
403 485 m 0
 376 485 354 473 354 473 c 1
 380 595 l 1
 394 597 398 600 433 600 c 0
 601.566 600 650.358 479.671 650.358 401.996 c 0
 650.358 391.807 649.519 382.353 648 374 c 2
 617 226 l 1
 552.569 52.3154 462.642 0 302 0 c 0
 131.987 0 81.7129 121.14 81.7129 198.848 c 0
 81.7129 208.71 82.5225 217.873 84 226 c 2
 163 600 l 1
 302 600 l 1
 225 235 l 1
 225 223 l 2
 225 149.11 268.454 116.673 327 115 c 1
 422 118 456 179 480 235 c 2
 508 365 l 1
 506.002 442.93 474.75 485 403 485 c 0
EndSplineSet
Validated: 3073
EndChar

StartChar: yodhebrew
Encoding: 1497 1497 619
Width: 284
Flags: HMW
AnchorPoint: "vowel_above_heb" 146 600 basechar 0
AnchorPoint: "above_mid_heb" 235 600 basechar 0
AnchorPoint: "vowel_below_heb" 126 0 basechar 0
AnchorPoint: "vowel_below_yiddish" 161 221 basechar 0
LayerCount: 2
Fore
SplineSet
243 333 m 1
 92 276 l 1
 161 600 l 1
 300 600 l 1
 243 333 l 1
EndSplineSet
Validated: 3073
EndChar

StartChar: finalkafhebrew
Encoding: 1498 1498 620
Width: 590
Flags: HMW
AnchorPoint: "vowel_left_heb" 276 306 basechar 0
AnchorPoint: "vowel_above_heb" 191 600 basechar 0
AnchorPoint: "above_mid_heb" 360 600 basechar 0
AnchorPoint: "vowel_below_heb" 220 0 basechar 0
LayerCount: 2
Fore
SplineSet
347 600 m 2
 527.329 579.738 562.084 477.43 562.084 408.99 c 0
 562.084 395.789 560.791 383.849 559 374 c 2
 437 -200 l 1
 298 -200 l 1
 419 365 l 2
 417 446 417 464 311 485 c 2
 125 485 l 1
 150 600 l 1
 347 600 l 2
EndSplineSet
Validated: 3073
EndChar

StartChar: kafhebrew
Encoding: 1499 1499 621
Width: 595
Flags: HMW
AnchorPoint: "vowel_left_heb" 302 306 basechar 0
AnchorPoint: "vowel_above_heb" 213 600 basechar 0
AnchorPoint: "above_mid_heb" 360 600 basechar 0
AnchorPoint: "vowel_below_heb" 286 0 basechar 0
LayerCount: 2
Fore
SplineSet
361 600 m 2
 541.871 579.447 576.054 476.576 576.054 408.751 c 0
 576.054 395.552 574.76 383.68 573 374 c 2
 542 226 l 2
 498 108 428 21 233 0 c 2
 36 0 l 1
 61 115 l 1
 246 115 l 2
 340 132 363 139 405 235 c 2
 433 365 l 2
 430 446 431 464 325 485 c 2
 139 485 l 1
 164 600 l 1
 361 600 l 2
EndSplineSet
Validated: 3073
EndChar

StartChar: lamedhebrew
Encoding: 1500 1500 622
Width: 667
Flags: HMW
AnchorPoint: "vowel_left_heb" 280 306 basechar 0
AnchorPoint: "vowel_above_heb" 355 600 basechar 0
AnchorPoint: "above_mid_heb" 440 600 basechar 0
AnchorPoint: "vowel_below_heb" 304 0 basechar 0
LayerCount: 2
Fore
SplineSet
391 101 m 1
 370 0 l 1
 231 0 l 1
 254 107 l 1
 269 154 275 188 317 233 c 0
 379 299 443 312 465 337 c 0
 490 365 496 379 505 419 c 0
 519 485 l 1
 125 485 l 1
 182 750 l 1
 321 750 l 1
 289 600 l 1
 683 600 l 1
 643 412 l 2
 586 224 470 219 432 183 c 0
 405 157 400 141 391 101 c 1
EndSplineSet
Validated: 3073
EndChar

StartChar: finalmemhebrew
Encoding: 1501 1501 623
Width: 683
Flags: HMW
AnchorPoint: "vowel_left_heb" 379 306 basechar 0
AnchorPoint: "vowel_above_heb" 223 600 basechar 0
AnchorPoint: "above_mid_heb" 420 600 basechar 0
AnchorPoint: "vowel_below_heb" 305 0 basechar 0
LayerCount: 2
Fore
SplineSet
434 600 m 2
 567 600 656 517 656 411 c 0
 656 397 654 383 651 369 c 0
 573 0 l 1
 40 0 l 1
 167 600 l 1
 434 600 l 2
514 389 m 0
 514 448 470 483 410 485 c 2
 282 485 l 1
 203 115 l 1
 458 115 l 1
 512 369 l 1
 513 376 514 382 514 389 c 0
EndSplineSet
Validated: 3073
EndChar

StartChar: memhebrew
Encoding: 1502 1502 624
Width: 694
Flags: HMW
AnchorPoint: "vowel_left_heb" 407 306 basechar 0
AnchorPoint: "vowel_above_heb" 212 600 basechar 0
AnchorPoint: "above_mid_heb" 430 600 basechar 0
AnchorPoint: "vowel_below_heb" 350 0 basechar 0
LayerCount: 2
Fore
SplineSet
536 397 m 0
 536 416 520 485 430 485 c 2
 361 485 l 1
 186 0 l 1
 46 0 l 1
 221 485 l 1
 130 485 l 1
 155 600 l 1
 454 600 l 2
 588 600 677 519 677 419 c 0
 677 400 674 383 671 369 c 0
 593 0 l 1
 323 0 l 1
 347 115 l 1
 478 115 l 1
 532 369 l 1
 535 380 536 389 536 397 c 0
EndSplineSet
Validated: 3073
EndChar

StartChar: finalnunhebrew
Encoding: 1503 1503 625
Width: 297
Flags: HMW
AnchorPoint: "above_mid_heb" 228 600 basechar 0
LayerCount: 2
Fore
SplineSet
-4 -200 m 1
 167 600 l 1
 306 600 l 1
 135 -200 l 1
 -4 -200 l 1
EndSplineSet
Validated: 3073
EndChar

StartChar: nunhebrew
Encoding: 1504 1504 626
Width: 429
Flags: HMW
AnchorPoint: "vowel_left_heb" 201 306 basechar 0
AnchorPoint: "vowel_above_heb" 207 600 basechar 0
AnchorPoint: "above_mid_heb" 320 600 basechar 0
AnchorPoint: "vowel_below_heb" 181 0 basechar 0
LayerCount: 2
Fore
SplineSet
172 600 m 1
 299 600 402 528 402 412 c 0
 402 400 401 388 398 374 c 0
 319 0 l 1
 33 0 l 1
 57 115 l 1
 204 115 l 1
 258 365 l 2
 257 417 255 440 228 461 c 0
 207 475 176 485 147 485 c 1
 172 600 l 1
EndSplineSet
Validated: 3073
EndChar

StartChar: samekhhebrew
Encoding: 1505 1505 627
Width: 670
Flags: HMW
AnchorPoint: "vowel_left_heb" 364 306 basechar 0
AnchorPoint: "vowel_above_heb" 214 600 basechar 0
AnchorPoint: "above_mid_heb" 450 600 basechar 0
AnchorPoint: "vowel_below_heb" 315 0 basechar 0
LayerCount: 2
Fore
SplineSet
436 600 m 2
 611.987 590.667 650.455 474.351 650.455 403.425 c 0
 650.455 392.305 649.509 382.301 648 374 c 2
 617 226 l 1
 551.756 53.8661 463.922 0 306 0 c 0
 180.508 0 80 73.9765 80 189 c 0
 80 200 81 213 84 226 c 0
 163 600 l 1
 436 600 l 2
508 365 m 2
 505 446 506 464 400 485 c 2
 278 485 l 1
 225 235 l 1
 225 223 l 2
 225 149.11 268.454 116.673 327 115 c 0
 423.5 115 455 179 480 235 c 2
 508 365 l 2
EndSplineSet
Validated: 3073
EndChar

StartChar: ayinhebrew
Encoding: 1506 1506 628
Width: 653
Flags: HMW
AnchorPoint: "vowel_left_heb" 398 306 basechar 0
AnchorPoint: "vowel_above_heb" 260 600 basechar 0
AnchorPoint: "above_mid_heb" 445 600 basechar 0
AnchorPoint: "vowel_below_heb" 370 0 basechar 0
LayerCount: 2
Fore
SplineSet
335 136 m 1
 424 169 427 195 456 262 c 2
 528 600 l 1
 667 600 l 1
 593 252 l 2
 545 132 515 83 341 21 c 2
 9 -55 l 1
 34 65 l 1
 194 101 l 1
 187 600 l 1
 328 600 l 1
 335 136 l 1
EndSplineSet
Validated: 3073
EndChar

StartChar: finalpehebrew
Encoding: 1507 1507 629
Width: 661
Flags: HMW
AnchorPoint: "vowel_left_heb" 353 427 basechar 0
AnchorPoint: "vowel_above_heb" 203 600 basechar 0
AnchorPoint: "above_mid_heb" 370 600 basechar 0
AnchorPoint: "vowel_below_heb" 278 0 basechar 0
LayerCount: 2
Fore
SplineSet
415 601 m 2
 550 597 634 518 634 424 c 0
 634 406 632 389 629 373 c 0
 507 -200 l 1
 368 -200 l 1
 489 367 l 1
 491 385 492 396 492 404 c 0
 492 432 471 458 439 476 c 0
 421 486 322 486 274 486 c 1
 258 407 l 1
 255 396 254 386 254 379 c 0
 254 360 267 356 301 356 c 2
 355 356 l 1
 330 241 l 1
 265 241 l 1
 230 246 182 243 142 284 c 0
 117 309 112 336 112 358 c 0
 112 373 115 387 117 398 c 2
 160 601 l 1
 415 601 l 2
EndSplineSet
Validated: 3073
EndChar

StartChar: pehebrew
Encoding: 1508 1508 630
Width: 660
Flags: HMW
AnchorPoint: "vowel_left_heb" 376 423 basechar 0
AnchorPoint: "vowel_above_heb" 234 600 basechar 0
AnchorPoint: "above_mid_heb" 410 600 basechar 0
AnchorPoint: "vowel_below_heb" 338 0 basechar 0
LayerCount: 2
Fore
SplineSet
422 600 m 2
 561 596 641 513 641 421 c 0
 641 404 640 388 636 372 c 0
 605 228 l 2
 548 50 419 10 295 0 c 1
 39 0 l 1
 64 115 l 1
 311 115 l 1
 367.104 121.474 449.348 143.402 468 234 c 2
 496 366 l 1
 498 384 500 394 500 402 c 0
 500 417 491 449 445 475 c 0
 428 485 329 485 281 485 c 1
 264 406 l 1
 262 395 261 386 261 379 c 0
 261 358 273 355 308 355 c 2
 361 355 l 1
 337 240 l 1
 272 240 l 1
 211.356 248.423 118 271.236 118 358 c 4
 118 373 121 386 123 397 c 2
 167 600 l 1
 422 600 l 2
EndSplineSet
Validated: 3073
EndChar

StartChar: finaltsadihebrew
Encoding: 1509 1509 631
Width: 616
Flags: HMW
AnchorPoint: "vowel_above_heb" 180 600 basechar 0
AnchorPoint: "above_mid_heb" 387 600 basechar 0
LayerCount: 2
Fore
SplineSet
374 362 m 1
 408 365 437 384 459 444 c 2
 493 600 l 1
 632 600 l 1
 596 433 l 2
 579 389 523 270 380 249 c 1
 284 -200 l 1
 145 -200 l 1
 249 286 l 1
 114 600 l 1
 272 600 l 1
 374 362 l 1
EndSplineSet
Validated: 3073
EndChar

StartChar: tsadihebrew
Encoding: 1510 1510 632
Width: 671
Flags: HMW
AnchorPoint: "vowel_left_heb" 177 306 basechar 0
AnchorPoint: "vowel_above_heb" 227 600 basechar 0
AnchorPoint: "above_mid_heb" 430 600 basechar 0
AnchorPoint: "vowel_below_heb" 310 0 basechar 0
LayerCount: 2
Fore
SplineSet
410 362 m 1
 444 365 462 383 494 444 c 2
 528 600 l 1
 667 600 l 1
 631 433 l 2
 598 349 534 281 455 258 c 1
 566 0 l 1
 46 0 l 1
 70 115 l 1
 359 115 l 1
 148 600 l 1
 306 600 l 1
 410 362 l 1
EndSplineSet
Validated: 3073
EndChar

StartChar: qofhebrew
Encoding: 1511 1511 633
Width: 672
Flags: HMW
AnchorPoint: "vowel_left_heb" 372 306 basechar 0
AnchorPoint: "vowel_above_heb" 231 600 basechar 0
AnchorPoint: "above_mid_heb" 430 600 basechar 0
AnchorPoint: "vowel_below_heb" 386 0 basechar 0
LayerCount: 2
Fore
SplineSet
305 49 m 1
 330 165 l 1
 355.7 165 393.561 168.594 434 206 c 1
 461 235 465 250 481 285 c 1
 523 485 l 1
 143 485 l 1
 167 600 l 1
 687 600 l 1
 618 276 l 1
 557.114 106.388 458.713 53.521 305 49 c 1
258 371 m 1
 136 -200 l 1
 -3 -200 l 1
 119 371 l 1
 258 371 l 1
EndSplineSet
Validated: 3073
EndChar

StartChar: reshhebrew
Encoding: 1512 1512 634
Width: 600
Flags: HMW
AnchorPoint: "vowel_left_heb" 292 306 basechar 0
AnchorPoint: "vowel_above_heb" 198 600 basechar 0
AnchorPoint: "above_mid_heb" 380 600 basechar 0
AnchorPoint: "vowel_below_heb" 430 0 basechar 0
LayerCount: 2
Fore
SplineSet
357 600 m 2
 444 590 570 562 570 406 c 0
 570 396 570 386 569 374 c 1
 490 0 l 1
 351 0 l 1
 429 365 l 2
 426 453 424 465 321 485 c 2
 126 485 l 1
 150 600 l 1
 357 600 l 2
EndSplineSet
Validated: 3073
EndChar

StartChar: shinhebrew
Encoding: 1513 1513 635
Width: 840
Flags: HMW
AnchorPoint: "vowel_left_heb" 581 306 basechar 0
AnchorPoint: "vowel_above_heb" 229 600 basechar 0
AnchorPoint: "above_mid_heb" 510 600 basechar 0
AnchorPoint: "vowel_below_heb" 389 0 basechar 0
LayerCount: 2
Fore
SplineSet
342 0 m 2
 127 0 87 175 87 218 c 0
 87 234 89 249 92 265 c 2
 163 600 l 1
 302 600 l 1
 244 323 l 1
 312 323 l 2
 360 323 388 357 394 387 c 2
 439 600 l 1
 578 600 l 1
 533 387 l 2
 523 340 454 208 298 208 c 2
 234 208 l 1
 245.987 178.034 278.196 115 366 115 c 2
 445 115 l 2
 532 115 630 194 643 265 c 2
 715 600 l 1
 854 600 l 1
 782 265 l 2
 772 210 719 98 572 34 c 0
 524 11 472 0 421 0 c 2
 342 0 l 2
EndSplineSet
Validated: 3073
EndChar

StartChar: tavhebrew
Encoding: 1514 1514 636
Width: 756
Flags: HMW
AnchorPoint: "vowel_left_heb" 473 306 basechar 0
AnchorPoint: "vowel_above_heb" 270 600 basechar 0
AnchorPoint: "above_mid_heb" 490 600 basechar 0
AnchorPoint: "vowel_below_heb" 389 0 basechar 0
LayerCount: 2
Fore
SplineSet
585 366 m 2
 582 455 573.5 485 477 485 c 2
 392 485 l 1
 337 229 l 1
 311.623 145.947 231.473 0 48 0 c 0
 37 0 23 5 23 5 c 1
 48 121 l 1
 48 121 64 115 76 115 c 0
 118.413 115 147.827 135.827 165 153 c 1
 183 174 189 185 199 233 c 0
 253 485 l 1
 187 485 l 1
 211 600 l 1
 513 600 l 2
 657.482 583.271 729.971 506.942 729.971 412.959 c 0
 729.971 400.26 728.648 387.24 726 374 c 2
 646 0 l 1
 507 0 l 1
 585 366 l 2
EndSplineSet
Validated: 3073
EndChar

StartChar: vavvavhebrew
Encoding: 1520 1520 637
Width: 554
Flags: HMW
AnchorPoint: "vowel_above_heb" 250 600 basechar 0
AnchorPoint: "above_mid_heb" 358 600 basechar 0
AnchorPoint: "vowel_below_heb" 244 0 basechar 0
LayerCount: 2
Fore
SplineSet
296 0 m 1
 424 600 l 1
 563 600 l 1
 435 0 l 1
 296 0 l 1
39 0 m 1
 167 600 l 1
 306 600 l 1
 178 0 l 1
 39 0 l 1
EndSplineSet
Validated: 3073
EndChar

StartChar: vavyodhebrew
Encoding: 1521 1521 638
Width: 550
Flags: HMW
AnchorPoint: "vowel_above_heb" 251 600 basechar 0
AnchorPoint: "above_mid_heb" 360 600 basechar 0
AnchorPoint: "vowel_below_heb" 363 0 basechar 0
LayerCount: 2
Fore
SplineSet
292 0 m 1
 420 600 l 1
 559 600 l 1
 431 0 l 1
 292 0 l 1
243 333 m 1
 92 276 l 1
 161 600 l 1
 300 600 l 1
 243 333 l 1
EndSplineSet
Validated: 3073
EndChar

StartChar: yodyodhebrew
Encoding: 1522 1522 639
Width: 542
Flags: HMW
AnchorPoint: "vowel_above_heb" 226 600 basechar 0
AnchorPoint: "above_mid_heb" 353 600 basechar 0
AnchorPoint: "vowel_below_heb" 249 0 basechar 0
AnchorPoint: "vowel_below_yiddish" 276 221 basechar 0
LayerCount: 2
Fore
SplineSet
501 333 m 1
 350 276 l 1
 419 600 l 1
 558 600 l 1
 501 333 l 1
243 333 m 1
 92 276 l 1
 161 600 l 1
 300 600 l 1
 243 333 l 1
EndSplineSet
Validated: 3073
EndChar

StartChar: gereshhebrew
Encoding: 1523 1523 640
Width: 238
Flags: HMW
LayerCount: 2
Fore
SplineSet
303 729 m 1
 275 599 l 1
 206 470 l 1
 150 470 l 1
 137 599 l 1
 165 729 l 1
 303 729 l 1
EndSplineSet
Validated: 3073
EndChar

StartChar: gershayimhebrew
Encoding: 1524 1524 641
Width: 474
Flags: HMW
LayerCount: 2
Fore
SplineSet
303 729 m 1
 275 599 l 1
 206 470 l 1
 150 470 l 1
 137 599 l 1
 165 729 l 1
 303 729 l 1
539 729 m 1
 511 599 l 1
 442 470 l 1
 386 470 l 1
 373 599 l 1
 401 729 l 1
 539 729 l 1
EndSplineSet
Validated: 3073
EndChar

StartChar: prosgegrammeni
Encoding: 8126 8126 817
Width: 201
Flags: HMW
LayerCount: 2
Fore
SplineSet
141 37 m 0
 170 37 164 43 175 61 c 1
 200 61 l 1
 187 1 136 0 78 0 c 0
 36 0 18 18 18 51 c 0
 18 60 19.543 68.9062 21 79 c 2
 35 176 l 1
 138 176 l 1
 127 111 127 92 127 72 c 0
 127 63 131 37 141 37 c 0
EndSplineSet
Validated: 3073
EndChar

StartChar: psili
Encoding: 8127 8127 818
Width: 147
Flags: MW
LayerCount: 2
Fore
SplineSet
148 740 m 1
 255 741 l 1
 240 672 l 2
 228 615 170 583 114 583 c 1
 123 625 l 1
 126 625 l 0
 145 625 164 626 174 670 c 1
 133 670 l 1
 148 740 l 1
EndSplineSet
Validated: 1
EndChar

StartChar: dialytikavaria
Encoding: 8173 8173 857
Width: 353
Flags: HMW
LayerCount: 2
Fore
SplineSet
347 796 m 1
 381 604 l 1
 311 604 l 1
 221 796 l 1
 347 796 l 1
233 700 m 1
 212.2 604 l 1
 124.2 604 l 1
 145 700 l 1
 233 700 l 1
509.8 700 m 1
 489 604 l 1
 401 604 l 1
 421.8 700 l 1
 509.8 700 l 1
EndSplineSet
Validated: 3073
EndChar

StartChar: dasia
Encoding: 8190 8190 868
Width: 159
Flags: HMW
LayerCount: 2
Fore
SplineSet
305.674 746 m 1
 281.731 676 l 1
 240.731 676 l 1
 237.1 664.965 235.54 656.634 235.54 650.346 c 0
 235.54 631.561 249.462 631 263.697 631 c 0
 266.697 631 l 1
 252.332 589 l 1
 206.096 589 170.253 610.132 170.253 649.583 c 0
 170.253 657.914 171.851 667.062 175.288 677 c 2
 198.674 746 l 1
 305.674 746 l 1
EndSplineSet
Validated: 3073
EndChar

StartChar: dieresistonos
Encoding: 901 901 870
Width: 446
Flags: HMW
LayerCount: 2
Fore
SplineSet
485 782 m 1
 340 590 l 1
 270 590 l 1
 359 782 l 1
 485 782 l 1
257 686 m 1
 236.2 590 l 1
 148.2 590 l 1
 169 686 l 1
 257 686 l 1
533.8 686 m 1
 513 590 l 1
 425 590 l 1
 445.8 686 l 1
 533.8 686 l 1
EndSplineSet
Validated: 3073
EndChar

StartChar: anoteleia
Encoding: 903 903 872
Width: 333
Flags: HMW
LayerCount: 2
Fore
SplineSet
374 520 m 1
 343 374 l 1
 193 374 l 1
 224 520 l 1
 374 520 l 1
EndSplineSet
Validated: 3073
EndChar

StartChar: Alpha
Encoding: 913 913 880
Width: 764
Flags: HMW
LayerCount: 2
Fore
SplineSet
630 -25 m 1
 470 -25 l 1
 440 193 l 1
 175 193 l 1
 43 -25 l 1
 -113 -25 l 1
 373 741 l 1
 508 741 l 1
 630 -25 l 1
394 549 m 1
 253 319 l 1
 423 319 l 1
 394 549 l 1
EndSplineSet
Validated: 3073
EndChar

StartChar: Beta
Encoding: 914 914 881
Width: 688
Flags: MW
LayerCount: 2
Fore
SplineSet
542 386 m 1
 556 372 611 344 611 263 c 0
 611 182 552 79 473 28 c 0
 419 -7 345 -25 251 -25 c 2
 -46 -25 l 1
 145 741 l 1
 438 741 l 2
 621 741 656 649 656 588 c 0
 656 507 610 431 542 386 c 1
505 546 m 0
 505 595 479 607 374 607 c 2
 255 607 l 1
 214 441 l 1
 345 441 l 2
 440 441 505 456 505 546 c 0
284 109 m 2
 432 109 458 188 458 236 c 0
 458 291 406 305 321 305 c 2
 180 305 l 1
 131 109 l 1
 284 109 l 2
EndSplineSet
Validated: 1
EndChar

StartChar: Gamma
Encoding: 915 915 882
Width: 642
Flags: MW
LayerCount: 2
Fore
SplineSet
653 607 m 1
 265 607 l 1
 108 -25 l 1
 -38 -25 l 1
 153 741 l 1
 687 741 l 1
 653 607 l 1
EndSplineSet
Validated: 1
EndChar

StartChar: Delta
Encoding: 916 916 883
Width: 744
Flags: HMW
LayerCount: 2
Fore
SplineSet
626 -26 m 1
 486 -23 l 1
 -119 -26 l 1
 368 741 l 1
 503 741 l 1
 626 -26 l 1
388.708 549.257 m 1
 366.692 509.232 372.732 520.056 121 109 c 1
 447 109 l 1
 427.19 257.182 390.372 531.486 388.708 549.257 c 1
EndSplineSet
Validated: 3073
EndChar

StartChar: Epsilon
Encoding: 917 917 884
Width: 710
Flags: MW
LayerCount: 2
Fore
SplineSet
544 -25 m 1
 -40 -25 l 1
 151 741 l 1
 719 741 l 1
 685 607 l 1
 261 607 l 1
 219 437 l 1
 615 437 l 1
 582 303 l 1
 186 303 l 1
 137 109 l 1
 577 109 l 1
 544 -25 l 1
EndSplineSet
Validated: 1
EndChar

StartChar: Zeta
Encoding: 918 918 885
Width: 688
Flags: HMW
LayerCount: 2
Fore
SplineSet
531 -25 m 1
 -85 -25 l 1
 -55 97 l 1
 470.387 596.601 478.282 604.212 482 607 c 1
 114 607 l 1
 148 741 l 1
 710 741 l 1
 680 623 l 1
 135 109 l 1
 564 109 l 1
 531 -25 l 1
EndSplineSet
Validated: 3073
EndChar

StartChar: Eta
Encoding: 919 919 886
Width: 743
Flags: MW
LayerCount: 2
Fore
SplineSet
555 -25 m 1
 411 -25 l 1
 495 313 l 1
 173 313 l 1
 89 -25 l 1
 -55 -25 l 1
 136 741 l 1
 280 741 l 1
 206 447 l 1
 528 447 l 1
 602 741 l 1
 746 741 l 1
 555 -25 l 1
EndSplineSet
Validated: 1
EndChar

StartChar: Theta
Encoding: 920 920 887
Width: 810
Flags: HMW
LayerCount: 2
Fore
SplineSet
485 755 m 0
 606 755 770 699 770 482 c 0
 770 226.822 566.151 -37 288 -37 c 0
 171 -37 0 16 0 228 c 0
 0 413 140.527 755 485 755 c 0
152 265 m 0
 152 129 245 95 319 95 c 0
 571 95 616 383 618 452 c 0
 618 527 585 623 452 623 c 0
 212 623 152 346 152 265 c 0
564 303 m 1
 178 303 l 1
 211 437 l 1
 597 437 l 1
 564 303 l 1
EndSplineSet
Validated: 3073
EndChar

StartChar: Iota
Encoding: 921 921 888
Width: 296
Flags: MW
LayerCount: 2
Fore
SplineSet
93 -25 m 1
 -51 -25 l 1
 140 741 l 1
 284 741 l 1
 93 -25 l 1
EndSplineSet
Validated: 1
EndChar

StartChar: endash
Encoding: 8211 8211 889
Width: 556
Flags: MW
LayerCount: 2
Fore
SplineSet
624 311 m 1
 602 207 l 1
 35 207 l 1
 57 311 l 1
 624 311 l 1
EndSplineSet
Validated: 1
EndChar

StartChar: emdash
Encoding: 8212 8212 890
Width: 1000
Flags: MW
LayerCount: 2
Fore
SplineSet
1070 311 m 1
 1048 207 l 1
 37 207 l 1
 59 311 l 1
 1070 311 l 1
EndSplineSet
Validated: 1
EndChar

StartChar: quoteleft
Encoding: 8216 8216 891
Width: 278
Flags: HMW
LayerCount: 2
Fore
SplineSet
301.046 469 m 5
 166.046 469 l 5
 192.19 592 l 6
 215.997 704 301.673 726 356.311 729 c 5
 346.533 683 l 5
 266.558 669 253.992 624 247.616 594 c 5
 327.616 594 l 5
 301.046 469 l 5
EndSplineSet
Validated: 3073
EndChar

StartChar: quoteright
Encoding: 8217 8217 892
Width: 278
Flags: HMW
LayerCount: 2
Fore
SplineSet
220.954 729 m 5
 355.954 729 l 5
 329.81 606 l 6
 306.003 494 220.327 472 165.689 469 c 5
 175.467 515 l 5
 255.442 529 268.008 574 274.384 604 c 5
 194.384 604 l 5
 220.954 729 l 5
EndSplineSet
Validated: 3073
EndChar

StartChar: quotesinglbase
Encoding: 8218 8218 893
Width: 278
Flags: HMW
LayerCount: 2
Fore
SplineSet
91.9541 125 m 5
 226.954 125 l 5
 200.81 2 l 6
 177.003 -110 91.3271 -132 36.6895 -135 c 5
 46.4668 -89 l 5
 126.442 -75 139.008 -30 145.384 0 c 5
 65.3838 0 l 5
 91.9541 125 l 5
EndSplineSet
Validated: 3073
EndChar

StartChar: dagger
Encoding: 8224 8224 897
Width: 556
Flags: MW
LayerCount: 2
Fore
SplineSet
626 485 m 1
 601 369 l 1
 422 369 l 1
 303 -194 l 1
 169 -194 l 1
 288 369 l 1
 109 369 l 1
 134 485 l 1
 313 485 l 1
 361 709 l 1
 494 709 l 1
 447 485 l 1
 626 485 l 1
EndSplineSet
Validated: 1
EndChar

StartChar: daggerdbl
Encoding: 8225 8225 898
Width: 556
Flags: MW
LayerCount: 2
Fore
SplineSet
623 485 m 1
 598 369 l 1
 420 369 l 1
 372 146 l 1
 551 146 l 1
 526 30 l 1
 348 30 l 1
 300 -194 l 1
 166 -194 l 1
 214 30 l 1
 35 30 l 1
 60 146 l 1
 238 146 l 1
 286 369 l 1
 107 369 l 1
 132 485 l 1
 310 485 l 1
 358 709 l 1
 492 709 l 1
 444 485 l 1
 623 485 l 1
EndSplineSet
Validated: 1
EndChar

StartChar: bullet
Encoding: 8226 8226 899
Width: 400
Flags: MW
LayerCount: 2
Fore
SplineSet
258 425 m 0
 320 425 367 380 367 321 c 0
 367 246 295 175 217 175 c 0
 156 175 111 219 111 279 c 0
 111 356 181 425 258 425 c 0
EndSplineSet
Validated: 3073
EndChar

StartChar: perthousand
Encoding: 8240 8240 901
Width: 1000
Flags: MW
LayerCount: 2
Fore
SplineSet
654 738 m 1
 721 738 l 1
 138 -21 l 1
 72 -21 l 1
 654 738 l 1
316 739 m 0
 388 739 440 690 440 622 c 0
 440 528 353 443 257 443 c 0
 187 443 134 493 134 560 c 0
 134 653 222 739 316 739 c 0
299 661 m 0
 255 661 214 620 214 575 c 0
 214 545 240 521 275 521 c 0
 319 521 360 561 360 604 c 0
 360 637 334 661 299 661 c 0
528 276 m 0
 600 276 652 227 652 159 c 0
 652 66 565 -20 469 -20 c 0
 399 -20 347 30 347 97 c 0
 347 190 434 276 528 276 c 0
512 198 m 0
 468 198 427 157 427 112 c 0
 427 82 453 58 487 58 c 0
 531 58 572 98 572 141 c 0
 572 174 546 198 512 198 c 0
897 276 m 0
 969 276 1021 227 1021 159 c 0
 1021 66 934 -20 838 -20 c 0
 768 -20 716 30 716 97 c 0
 716 190 803 276 897 276 c 0
881 198 m 0
 837 198 796 157 796 112 c 0
 796 82 822 58 856 58 c 0
 900 58 941 98 941 141 c 0
 941 174 915 198 881 198 c 0
EndSplineSet
Validated: 1
EndChar

StartChar: guilsinglleft
Encoding: 8249 8249 902
Width: 333
Flags: MW
LayerCount: 2
Fore
SplineSet
128 218 m 1
 152 332 l 1
 351 481 l 1
 326 364 l 1
 206 275 l 1
 288 186 l 1
 264 72 l 1
 128 218 l 1
EndSplineSet
Validated: 1
EndChar

StartChar: guilsinglright
Encoding: 8250 8250 903
Width: 333
Flags: MW
LayerCount: 2
Fore
SplineSet
319 335 m 1
 295 220 l 1
 96 72 l 1
 121 189 l 1
 241 278 l 1
 159 367 l 1
 183 481 l 1
 319 335 l 1
EndSplineSet
Validated: 1
EndChar

StartChar: fraction
Encoding: 8260 8260 904
Width: 167
Flags: MW
LayerCount: 2
Fore
SplineSet
404 715 m 1
 489 715 l 1
 -92 -20 l 1
 -177 -20 l 1
 404 715 l 1
EndSplineSet
Validated: 1
EndChar

StartChar: sheqel
Encoding: 8362 8362 908
Width: 1049
Flags: MW
LayerCount: 2
Fore
SplineSet
617 115 m 2
 687 121 739 141 769 231 c 2
 848 600 l 1
 987 600 l 1
 908 231 l 2
 897 180 861 84 722 25 c 0
 680 6 637 0 602 0 c 0
 593 0 l 2
 216 0 l 1
 296 378 l 1
 435 378 l 1
 379 115 l 1
 617 115 l 2
547 600 m 2
 641 600 704 550 704 476 c 0
 704 462 702 449 700 438 c 2
 653 218 l 1
 514 218 l 1
 561 438 l 2
 563 445 563 451 563 456 c 0
 563 478 539 485 523 485 c 2
 202 485 l 1
 99 0 l 1
 -40 0 l 1
 88 600 l 1
 547 600 l 2
EndSplineSet
Validated: 1
EndChar

StartChar: Euro
Encoding: 8364 8364 909
Width: 640
Flags: HMW
LayerCount: 2
Fore
SplineSet
171.593 318 m 1
 173.025 338.556 181.13 372.763 185.047 386 c 1
 118.047 386 l 1
 156.501 454 l 1
 204.501 454 l 1
 277.848 625 401.079 739 595.079 739 c 0
 660.079 739 698.441 736 751.302 693 c 1
 679.944 569 l 1
 643.872 611 606.297 613 566.297 613 c 0
 474.297 613 401.056 546 357.501 454 c 1
 614.501 454 l 1
 575.047 386 l 1
 336.047 386 l 1
 324.916 353.024 320.765 331.637 320.593 318 c 1
 535.593 318 l 1
 497.139 250 l 1
 317.139 250 l 1
 323.797 159 368.894 103 450.894 103 c 0
 490.894 103 532.318 105 609.009 160 c 1
 577.338 11 l 1
 492.111 -23 457.111 -23 418.111 -23 c 0
 326.359 -23 166.049 20.8004 166.049 240.92 c 0
 166.049 243.914 166.079 246.941 166.139 250 c 1
 89.1387 250 l 1
 127.593 318 l 1
 171.593 318 l 1
EndSplineSet
Validated: 3073
EndChar

StartChar: trademark
Encoding: 8482 8482 910
Width: 1000
Flags: MW
LayerCount: 2
Fore
SplineSet
445 649 m 1
 365 273 l 1
 270 273 l 1
 350 649 l 1
 213 649 l 1
 230 729 l 1
 595 729 l 1
 578 649 l 1
 445 649 l 1
816 273 m 1
 722 273 l 1
 712 622 l 1
 637 273 l 1
 546 273 l 1
 643 729 l 1
 781 729 l 1
 792 378 l 1
 950 729 l 1
 1087 729 l 1
 990 273 l 1
 899 273 l 1
 973 622 l 1
 816 273 l 1
EndSplineSet
Validated: 1
EndChar

StartChar: partialdiff
Encoding: 8706 8706 911
Width: 608
Flags: HMW
LayerCount: 2
Fore
SplineSet
441.523 709 m 0
 521.13 709 652.677 682.329 652.677 477.156 c 0
 652.677 433.348 646.742 381.818 633.372 321.075 c 0
 590.235 125.095 491.695 -23 289.998 -23 c 0
 159.465 -23 82.5605 54.8135 82.5605 166.069 c 0
 82.5605 184.854 84.7412 204.542 89.1963 224.945 c 0
 118.425 358.808 235.831 454 380.773 454 c 0
 447.354 454 498.309 434.206 532.023 396.174 c 1
 537.048 425.843 539.488 452.653 539.488 476.405 c 0
 539.488 541.896 518.065 605 430.039 605 c 0
 369.065 605 317.892 569.159 289.195 505.981 c 2
 285.57 498 l 1
 163.898 498 l 1
 170.145 515.394 l 2
 214.447 636.154 317.973 709 441.523 709 c 0
374.717 350 m 0
 289.482 350 223.871 298.425 203.189 212.922 c 0
 200.467 200.924 199.203 189.522 199.203 178.843 c 0
 199.203 121.142 239.181 81 306.909 81 c 0
 387.918 81 466.113 140.201 486.103 222.848 c 0
 488.89 234.371 490.212 245.254 490.212 255.396 c 0
 490.212 313.998 446.793 350 374.717 350 c 0
EndSplineSet
Validated: 3073
EndChar

StartChar: Delta.math
Encoding: 8710 8710 912
Width: 729
Flags: MW
LayerCount: 2
Fore
SplineSet
8 0 m 1
 444 729 l 1
 590 729 l 1
 721 0 l 1
 8 0 l 1
230 125 m 1
 549 125 l 1
 483 564 l 1
 230 125 l 1
EndSplineSet
Validated: 1
EndChar

StartChar: summation
Encoding: 8721 8721 913
Width: 856
VWidth: 2048
Flags: HMW
LayerCount: 2
Fore
SplineSet
220.503 729 m 1
 892.062 729 l 1
 866.129 607 l 1
 390.963 607 l 1
 650.969 276.747 l 1
 226.129 -74 l 1
 727.058 -74 l 1
 700.272 -195 l 1
 -0.448242 -195 l 1
 19.5 -101.146 l 1
 471.3 278.934 l 1
 197.485 628.182 l 1
 220.503 729 l 1
EndSplineSet
Validated: 3073
EndChar

StartChar: minus
Encoding: 8722 8722 914
Width: 584
Flags: HMW
LayerCount: 2
Fore
SplineSet
596 292 m 1
 571 172 l 1
 87 172 l 1
 112 292 l 1
 596 292 l 1
EndSplineSet
Validated: 3073
EndChar

StartChar: radical
Encoding: 8730 8730 915
Width: 637
Flags: HMW
LayerCount: 2
Fore
SplineSet
755.053 917.75 m 1
 826.876 905.419 l 1
 229.716 -74.0674 l 1
 191.62 430.849 l 1
 75.1602 383.024 l 1
 68.9863 455.22 l 1
 279.231 539.128 l 1
 302.517 179.14 l 1
 755.053 917.75 l 1
EndSplineSet
Validated: 3073
EndChar

StartChar: notequal
Encoding: 8800 8800 916
Width: 584
Flags: MW
LayerCount: 2
Fore
SplineSet
129 52 m 1
 61 52 l 1
 86 172 l 1
 220 172 l 1
 313 292 l 1
 112 292 l 1
 137 412 l 1
 405 412 l 1
 507 544 l 1
 602 481 l 1
 549 412 l 1
 622 412 l 1
 597 292 l 1
 457 292 l 1
 364 172 l 1
 571 172 l 1
 546 52 l 1
 273 52 l 1
 176 -74 l 1
 81 -11 l 1
 129 52 l 1
EndSplineSet
Validated: 1
EndChar

StartChar: lessequal
Encoding: 8804 8804 917
Width: 584
Flags: MW
LayerCount: 2
Fore
SplineSet
546 104 m 1
 524 0 l 1
 35 0 l 1
 57 104 l 1
 546 104 l 1
657 624 m 1
 629 495 l 1
 290 382 l 1
 582 271 l 1
 554 140 l 1
 104 322 l 1
 129 443 l 1
 657 624 l 1
EndSplineSet
Validated: 1
EndChar

StartChar: greaterequal
Encoding: 8805 8805 918
Width: 584
Flags: MW
LayerCount: 2
Fore
SplineSet
555 104 m 1
 533 0 l 1
 44 0 l 1
 66 104 l 1
 555 104 l 1
74 140 m 1
 102 269 l 1
 441 382 l 1
 149 493 l 1
 177 624 l 1
 627 442 l 1
 601 321 l 1
 74 140 l 1
EndSplineSet
Validated: 1
EndChar

StartChar: lozenge
Encoding: 9674 9674 919
Width: 541
Flags: HMW
LayerCount: 2
Fore
SplineSet
309.851 744 m 1
 517.26 359 l 1
 309.851 -26 l 1
 223.409 -26 l 1
 16 359 l 1
 223.409 744 l 1
 309.851 744 l 1
108.259 372 m 1
 267.7 88.4189 l 1
 426.021 372 l 1
 267.7 655.581 l 1
 108.259 372 l 1
EndSplineSet
Validated: 3073
EndChar

StartChar: uniFB1E
Encoding: 64286 64286 921
Width: 305
Flags: HMW
LayerCount: 2
Fore
SplineSet
284 760 m 4
 324 760 342 789 349 813 c 5
 449 813 l 5
 449 813 431 760 408 731 c 4
 371 686 317 660 263 660 c 4
 216 660 142 678 142 785 c 4
 142 801 143 813 143 813 c 5
 243 813 l 5
 243 813 242 807 242 800 c 4
 242 783 248 760 284 760 c 4
EndSplineSet
Validated: 3073
EndChar

StartChar: ayinaltonehebrew
Encoding: 64288 64288 923
Width: 653
Flags: HMW
AnchorPoint: "vowel_left_heb" 383 306 basechar 0
AnchorPoint: "vowel_above_heb" 227 600 basechar 0
AnchorPoint: "above_mid_heb" 400 600 basechar 0
AnchorPoint: "vowel_below_heb" 350 0 basechar 0
LayerCount: 2
Fore
SplineSet
315 118 m 1
 341 122 409 153 429 231 c 2
 508 600 l 1
 647 600 l 1
 568 231 l 2
 535 56 339 0 276 0 c 6
 26 0 l 1
 51 115 l 1
 173 115 l 1
 167 600 l 1
 308 600 l 1
 315 118 l 1
EndSplineSet
Validated: 3073
EndChar

StartChar: uniFB21
Encoding: 64289 64289 924
Width: 964
Flags: HMW
LayerCount: 2
Fore
SplineSet
354 337 m 5
 285 287 223 261 199 148 c 4
 168 0 l 5
 29 0 l 5
 62 158 l 6
 109 275 162 350 282 421 c 5
 129 600 l 5
 324 600 l 5
 618 258 l 5
 702 324 749 365 766 444 c 4
 800 600 l 5
 939 600 l 5
 903 433 l 6
 860 325 790 230 683 183 c 5
 840 0 l 5
 640 0 l 5
 354 337 l 5
EndSplineSet
Validated: 3073
EndChar

StartChar: uniFB22
Encoding: 64290 64290 925
Width: 888
Flags: HMW
LayerCount: 2
Fore
SplineSet
637 485 m 5
 106 485 l 5
 130 600 l 5
 883 600 l 5
 859 485 l 5
 776 485 l 5
 673 0 l 5
 534 0 l 5
 637 485 l 5
EndSplineSet
Validated: 3073
EndChar

StartChar: uniFB23
Encoding: 64291 64291 926
Width: 932
Flags: HMW
LayerCount: 2
Fore
SplineSet
669 600 m 1
 864.086 576.801 882.653 482.509 882.653 389.271 c 0
 882.653 384.286 882.286 379.143 881 374 c 0
 802 0 l 1
 663 0 l 1
 741 365 l 2
 738 453 737 465 633 485 c 2
 122 485 l 1
 147 600 l 1
 669 600 l 1
19 0 m 1
 94 349 l 1
 233 349 l 1
 158 0 l 1
 19 0 l 1
EndSplineSet
Validated: 3073
EndChar

StartChar: uniFB24
Encoding: 64292 64292 927
Width: 845
Flags: HMW
LayerCount: 2
Fore
SplineSet
591 600 m 6
 680 590 804 561 804 406 c 4
 804 395 804 379 803 374 c 6
 772 226 l 6
 728 108 658 21 463 0 c 6
 16 0 l 5
 41 115 l 5
 476 115 l 6
 570 132 594 139 635 235 c 6
 663 365 l 6
 661 446 661 464 555 485 c 6
 119 485 l 5
 144 600 l 5
 591 600 l 6
EndSplineSet
Validated: 3073
EndChar

StartChar: uniFB25
Encoding: 64293 64293 928
Width: 917
Flags: HMW
LayerCount: 2
Fore
SplineSet
496 101 m 6
 475 0 l 5
 336 0 l 5
 359 107 l 5
 369 156 411 202 457 240 c 4
 577 339 701 324 735 419 c 6
 749 485 l 5
 105 485 l 5
 162 750 l 5
 301 750 l 5
 269 600 l 5
 913 600 l 5
 873 412 l 6
 832 235 518 251 496 101 c 6
EndSplineSet
Validated: 3073
EndChar

StartChar: uniFB26
Encoding: 64294 64294 929
Width: 933
Flags: HMW
LayerCount: 2
Fore
SplineSet
664 600 m 6
 797 600 886 517 886 411 c 4
 886 397 884 383 881 369 c 4
 803 0 l 5
 20 0 l 5
 147 600 l 5
 664 600 l 6
744 389 m 4
 744 448 700 483 640 485 c 6
 262 485 l 5
 183 115 l 5
 688 115 l 5
 742 369 l 5
 743 376 744 382 744 389 c 4
EndSplineSet
Validated: 3073
EndChar

StartChar: uniFB27
Encoding: 64295 64295 930
Width: 850
Flags: HMW
LayerCount: 2
Fore
SplineSet
587 600 m 6
 772 578 800 485 800 408 c 4
 800 397 799.034 378.896 798 374 c 6
 720 0 l 5
 581 0 l 5
 659 365 l 6
 656 453 655 465 551 485 c 6
 106 485 l 5
 130 600 l 5
 587 600 l 6
EndSplineSet
Validated: 3073
EndChar

StartChar: uniFB28
Encoding: 64296 64296 931
Width: 1006
Flags: HMW
LayerCount: 2
Fore
SplineSet
815 366 m 2
 812 455 814 464 707 485 c 2
 372 485 l 1
 317 229 l 1
 291.623 145.947 211.473 0 28 0 c 0
 17 0 3 5 3 5 c 1
 28 121 l 1
 30.0727 120.556 54.4793 115 68 115 c 0
 145.469 115 164.568 163.726 179 233 c 2
 233 485 l 1
 167 485 l 1
 191 600 l 1
 743 600 l 2
 838 589 957 561 957 403 c 0
 957 398.5 957.25 393.75 957.25 388.875 c 0
 957.25 384 957 379 956 374 c 0
 876 0 l 1
 737 0 l 1
 815 366 l 2
EndSplineSet
Validated: 3073
EndChar

StartChar: uniFB29
Encoding: 64297 64297 932
Width: 584
Flags: HMW
LayerCount: 2
Fore
SplineSet
535 291 m 5
 510 172 l 5
 27 172 l 5
 52 291 l 5
 234 291 l 5
 273 473 l 5
 392 473 l 5
 353 291 l 5
 535 291 l 5
EndSplineSet
Validated: 3073
EndChar

StartChar: aleflamedhebrew
Encoding: 64335 64335 965
Width: 714
Flags: HMW
AnchorPoint: "vowel_left_heb" 243 306 basechar 0
AnchorPoint: "vowel_above_heb" 427 600 basechar 0
AnchorPoint: "above_mid_heb" 500 600 basechar 0
AnchorPoint: "vowel_below_heb" 610 0 basechar 0
LayerCount: 2
Fore
SplineSet
164 569 m 5
 203 750 l 5
 342 750 l 5
 310 600 l 5
 452 315 l 5
 500 362 511 389 536 444 c 5
 570 600 l 5
 709 600 l 5
 673 433 l 6
 619 297 549 241 503 212 c 5
 610 0 l 5
 447 0 l 5
 164 569 l 5
EndSplineSet
Validated: 3073
LCarets2: 1 0 
Ligature2: "'dlig' Discretionary Ligatures in Hebrew subtable" alefhebrew lamedhebrew
EndChar

StartChar: uni0258
Encoding: 600 600 968
Width: 556
Flags: HMW
TeX: 117 0
LayerCount: 2
Fore
SplineSet
377 549 m 4
 540 549 580 445 580 345 c 0
 580 109.659 415.631 -23 259 -23 c 0
 138 -23 62 41 50 152 c 1
 188 152 l 1
 193 114 228 89 276 89 c 0
 363 89 400.887 155.604 421 226 c 1
 58 226 l 1
 89.4732 509.259 301.441 549 377 549 c 4
219 319 m 1
 439 319 l 1
 440 327 440 335 440 343 c 0
 440 393 420 437 351 437 c 0
 264.801 437 238.067 366.668 219 319 c 1
EndSplineSet
Validated: 3073
EndChar

StartChar: uni0190
Encoding: 400 400 973
Width: 672
Flags: HMW
TeX: 117 0
LayerCount: 2
Fore
SplineSet
172 178 m 0
 172 127 220 97 302 97 c 0
 404 97 469 140 490 218 c 1
 636 218 l 1
 596 62 473 -23 287 -23 c 0
 121 -23 29 45 29 163 c 0
 29 212 43 322 154 377 c 1
 127 401 114 431 114 471 c 0
 114 631 242 741 438 741 c 0
 636 741 685 643 685 566 c 0
 685 548 683 529 679 507 c 1
 539 507 l 1
 540 513 540 520 540 525 c 0
 540 588 495 621 408 621 c 0
 322 621 262 578 262 507 c 0
 262 464 290 428 382 428 c 2
 458 428 l 1
 435 308 l 1
 333 308 l 2
 235 308 172 251 172 178 c 0
EndSplineSet
Validated: 3073
EndChar

StartChar: uni0283
Encoding: 643 643 974
Width: 333
Flags: HMW
TeX: 117 0
LayerCount: 2
Fore
SplineSet
349 582 m 6
 206 -94 l 6
 187 -182 143 -218 56 -218 c 4
 36 -218 2 -216 -26 -213 c 5
 -2 -101 l 5
 8 -104 13 -105 22 -105 c 4
 52 -105 66 -94 72 -63 c 6
 212 594 l 6
 231 685 286 729 379 729 c 4
 398 729 432 728 458 726 c 5
 436 621 l 5
 424 623 408 624 396 624 c 4
 370 624 355 610 349 582 c 6
EndSplineSet
Validated: 3073
EndChar

StartChar: uni0251
Encoding: 593 593 975
Width: 611
Flags: HMW
TeX: 117 0
LayerCount: 2
Fore
SplineSet
281 94 m 4
 408 94 441 268 441 320 c 4
 441 389 409 432 353 432 c 4
 228 432 193 257 193 207 c 4
 193 138 225 94 281 94 c 4
50 183 m 4
 50 341 169 549 347 549 c 4
 414 549 455 524 479 470 c 5
 494 540 l 5
 634 540 l 5
 537 83 l 6
 535 75 534 68 534 62 c 4
 534 46 540 34 555 17 c 5
 551 0 l 5
 399 0 l 5
 393 9 391 17 391 27 c 4
 391 34 392 42 395 54 c 5
 391 55 l 5
 345 2 292 -23 225 -23 c 4
 151 -23 50 18 50 183 c 4
EndSplineSet
Validated: 3073
EndChar

StartChar: uni0280
Encoding: 640 640 978
Width: 620
Flags: HMW
TeX: 117 0
LayerCount: 2
Fore
SplineSet
452 218 m 5
 561 0 l 5
 382 0 l 5
 283 207 l 5
 239 207 l 5
 195 0 l 5
 55 0 l 5
 170 540 l 5
 461 540 l 6
 565 540 622 493 622 420 c 4
 622 361 582 252 452 218 c 5
408 430 m 6
 286 430 l 5
 262 317 l 5
 384 317 l 6
 417 317 477 317 477 388 c 4
 477 419 450 430 408 430 c 6
EndSplineSet
Validated: 3073
EndChar

StartChar: uni0289
Encoding: 649 649 980
Width: 623
Flags: HMW
TeX: 117 0
LayerCount: 2
Fore
SplineSet
546 0 m 5
 406 0 l 5
 420 64 l 5
 367 4 312 -23 239 -23 c 4
 143 -23 92 24 92 109 c 4
 92 126 94 144 98 164 c 6
 107 207 l 5
 44 207 l 5
 73 342 l 5
 136 342 l 5
 178 540 l 5
 318 540 l 5
 276 342 l 5
 479 342 l 5
 521 540 l 5
 661 540 l 5
 619 342 l 5
 686 342 l 5
 657 207 l 5
 590 207 l 5
 546 0 l 5
247 207 m 5
 244 193 l 6
 241 181 240 170 240 160 c 4
 240 117 265 96 313 96 c 4
 370 96 433 125 450 207 c 5
 247 207 l 5
EndSplineSet
Validated: 3073
EndChar

StartChar: uni029F
Encoding: 671 671 986
Width: 454
Flags: HMW
TeX: 117 0
LayerCount: 2
Fore
SplineSet
408 0 m 5
 60 0 l 5
 175 540 l 5
 315 540 l 5
 224 113 l 5
 432 113 l 5
 408 0 l 5
EndSplineSet
Validated: 3073
EndChar

StartChar: uni0270
Encoding: 624 624 988
Width: 889
Flags: HMW
TeX: 117 0
LayerCount: 2
Fore
SplineSet
754 -218 m 5
 614 -218 l 5
 675 67 l 5
 617 12 573 -9 511 -9 c 4
 444 -9 396 20 381 71 c 5
 327 15 274 -9 206 -9 c 4
 115 -9 64 35 64 112 c 4
 64 126 66 142 69 158 c 6
 151 540 l 5
 291 540 l 5
 214 180 l 6
 213 174 212 168 212 162 c 4
 212 130 235 110 275 110 c 4
 335 110 380 150 394 216 c 6
 463 540 l 5
 603 540 l 5
 526 180 l 6
 525 174 524 168 524 162 c 4
 524 130 547 110 587 110 c 4
 647 110 692 150 706 216 c 6
 775 540 l 5
 916 540 l 5
 754 -218 l 5
EndSplineSet
Validated: 3073
EndChar

StartChar: uni0271
Encoding: 625 625 989
Width: 889
Flags: HMW
TeX: 117 0
LayerCount: 2
Fore
SplineSet
170 540 m 5
 309 540 l 5
 294 473 l 5
 352 528 397 549 459 549 c 4
 526 549 573 520 589 469 c 5
 642 525 696 549 764 549 c 4
 855 549 905 505 905 428 c 4
 905 414 903 398 900 382 c 6
 799 -94 l 6
 780 -182 736 -218 649 -218 c 4
 629 -218 595 -216 568 -213 c 5
 591 -101 l 5
 601 -104 607 -105 616 -105 c 4
 646 -105 659 -94 665 -63 c 6
 755 360 l 6
 757 366 757 372 757 378 c 4
 757 410 734 430 694 430 c 4
 634 430 590 390 576 324 c 6
 507 0 l 5
 367 0 l 5
 443 360 l 6
 445 366 445 372 445 378 c 4
 445 410 422 430 382 430 c 4
 322 430 278 390 264 324 c 6
 195 0 l 5
 55 0 l 5
 170 540 l 5
EndSplineSet
Validated: 3073
EndChar

StartChar: uni0272
Encoding: 626 626 990
Width: 611
Flags: HMW
TeX: 117 0
LayerCount: 2
Fore
SplineSet
193 540 m 5
 333 540 l 5
 316 462 l 5
 363 518 423 549 497 549 c 4
 592 549 644 502 644 417 c 4
 644 400 642 382 638 362 c 6
 561 0 l 5
 421 0 l 5
 492 333 l 6
 494 345 495 356 495 365 c 4
 495 408 471 430 422 430 c 4
 354 430 300 388 287 324 c 6
 198 -94 l 6
 179 -182 135 -218 48 -218 c 4
 28 -218 -6 -216 -33 -213 c 5
 -10 -101 l 5
 0 -104 6 -105 15 -105 c 4
 45 -105 58 -94 64 -63 c 6
 193 540 l 5
EndSplineSet
Validated: 3073
EndChar

StartChar: uni0273
Encoding: 627 627 991
Width: 611
Flags: HMW
TeX: 117 0
LayerCount: 2
Fore
SplineSet
168 540 m 5
 308 540 l 5
 291 462 l 5
 344 522 399 549 472 549 c 4
 567 549 619 502 619 417 c 4
 619 400 617 382 613 362 c 6
 522 -63 l 6
 521 -69 520 -75 520 -80 c 4
 520 -98 531 -105 555 -105 c 4
 564 -105 570 -104 580 -101 c 5
 557 -213 l 5
 528 -216 492 -218 472 -218 c 4
 402 -218 370 -195 370 -139 c 4
 370 -126 372 -111 376 -94 c 6
 467 333 l 6
 469 345 470 356 470 365 c 4
 470 408 446 430 397 430 c 4
 329 430 275 388 262 324 c 6
 193 0 l 5
 53 0 l 5
 168 540 l 5
EndSplineSet
Validated: 3073
EndChar

StartChar: uni0274
Encoding: 628 628 992
Width: 615
Flags: HMW
TeX: 117 0
LayerCount: 2
Fore
SplineSet
651.561 540 m 5
 537 0 l 5
 382 0 l 5
 266.813 343 l 5
 194 0 l 5
 54 0 l 5
 168.561 540 l 5
 323.561 540 l 5
 438.747 197 l 5
 511.561 540 l 5
 651.561 540 l 5
EndSplineSet
Validated: 3073
EndChar

StartChar: uni0265
Encoding: 613 613 993
Width: 619
Flags: HMW
TeX: 117 0
LayerCount: 2
Fore
SplineSet
468 -218 m 5
 328 -218 l 5
 388 64 l 5
 336 4 281 -23 208 -23 c 4
 112 -23 60 24 60 109 c 4
 60 126 62 144 67 164 c 6
 147 540 l 5
 287 540 l 5
 213 193 l 6
 210 181 209 170 209 160 c 4
 209 117 233 96 282 96 c 4
 350 96 404 138 418 202 c 6
 490 540 l 5
 630 540 l 5
 468 -218 l 5
EndSplineSet
Validated: 3073
EndChar

StartChar: uni0266
Encoding: 614 614 994
Width: 611
Flags: HMW
TeX: 117 0
LayerCount: 2
Fore
SplineSet
469 367 m 4
 469 392 455 430 399 430 c 4
 336 430 282 386 268 324 c 6
 200 0 l 5
 60 0 l 5
 188 605 l 6
 207 693 250 729 337 729 c 4
 357 729 392 727 419 724 c 5
 396 612 l 5
 386 615 380 616 371 616 c 4
 341 616 328 605 322 574 c 6
 298 462 l 5
 349 521 405 549 474 549 c 4
 540 549 617 521 617 419 c 4
 617 402 615 383 610 362 c 6
 534 0 l 5
 394 0 l 5
 464 330 l 6
 467 346 469 358 469 367 c 4
EndSplineSet
Validated: 3073
EndChar

StartChar: uni0267
Encoding: 615 615 995
Width: 611
Flags: HMW
TeX: 117 0
LayerCount: 2
Fore
SplineSet
462 367 m 4
 462 392 448 430 392 430 c 4
 329 430 275 386 262 324 c 6
 193 0 l 5
 53 0 l 5
 181 605 l 6
 200 693 244 729 331 729 c 4
 351 729 385 727 413 724 c 5
 389 612 l 5
 379 615 374 616 365 616 c 4
 335 616 321 605 315 574 c 6
 291 462 l 5
 342 521 398 549 467 549 c 4
 534 549 610 521 610 419 c 4
 610 402 608 383 604 362 c 6
 507 -94 l 6
 488 -182 444 -218 357 -218 c 4
 337 -218 303 -216 275 -213 c 5
 299 -101 l 5
 309 -104 314 -105 323 -105 c 4
 353 -105 367 -94 373 -63 c 6
 457 330 l 6
 460 346 462 358 462 367 c 4
EndSplineSet
Validated: 3073
EndChar

StartChar: uni0268
Encoding: 616 616 996
Width: 278
Flags: HMW
TeX: 117 0
LayerCount: 2
Fore
SplineSet
361.954 729 m 5
 335.384 604 l 5
 195.384 604 l 5
 221.954 729 l 5
 361.954 729 l 5
347.694 342 m 5
 318.999 207 l 5
 250.999 207 l 5
 207 0 l 5
 67 0 l 5
 110.999 207 l 5
 46.999 207 l 5
 75.6943 342 l 5
 139.694 342 l 5
 181.78 540 l 5
 321.78 540 l 5
 279.694 342 l 5
 347.694 342 l 5
EndSplineSet
Validated: 3073
EndChar

StartChar: uni0269
Encoding: 617 617 997
Width: 326
Flags: HMW
TeX: 117 0
LayerCount: 2
Fore
SplineSet
164 540 m 5
 304 540 l 5
 217 131 l 6
 215.518 124.436 214.753 118.769 214.753 113.912 c 0
 214.753 95.8348 225.352 89 249 89 c 4
 258 89 264 90 275 93 c 5
 251 -19 l 5
 222 -22 187 -23 167 -23 c 4
 96.5755 -23 64.8109 -0.0661418 64.8109 55.349 c 0
 64.8109 68.3918 66.5706 83.234 70 100 c 6
 164 540 l 5
EndSplineSet
Validated: 3073
EndChar

StartChar: uni026A
Encoding: 618 618 998
Width: 278
Flags: MW
TeX: 117 0
LayerCount: 2
Fore
SplineSet
117.781 540 m 1
 389.781 540 l 1
 361.086 405 l 1
 293.086 405 l 1
 235.695 135 l 1
 303.695 135 l 1
 275 0 l 1
 3 0 l 1
 31.6953 135 l 1
 95.6953 135 l 1
 153.086 405 l 1
 89.0859 405 l 1
 117.781 540 l 1
EndSplineSet
Validated: 1
EndChar

StartChar: uni0256
Encoding: 598 598 999
Width: 595
Flags: HMW
TeX: 117 0
LayerCount: 2
Fore
SplineSet
281 94 m 4
 406 94 441 267 441 320 c 4
 441 389 409 432 353 432 c 4
 250 432 192 297 192 207 c 4
 192 138 225 94 281 94 c 4
50 183 m 4
 50 399 216 549 346 549 c 4
 413 549 455 524 479 470 c 5
 534 729 l 5
 674 729 l 5
 505 -63 l 6
 504 -69 503 -75 503 -80 c 4
 503 -98 514 -105 537 -105 c 4
 546 -105 553 -104 563 -101 c 5
 539 -213 l 5
 511 -216 475 -218 455 -218 c 4
 385 -218 353 -195 353 -139 c 4
 353 -126 355 -111 359 -94 c 6
 390 55 l 5
 344 2 292 -23 225 -23 c 4
 151 -23 50 18 50 183 c 4
EndSplineSet
Validated: 3073
EndChar

StartChar: uni0257
Encoding: 599 599 1000
Width: 611
Flags: HMW
TeX: 117 0
LayerCount: 2
Fore
SplineSet
281 94 m 4
 407 94 441 268 441 320 c 4
 441 389 409 432 353 432 c 4
 251 432 192 297 192 207 c 4
 192 138 225 94 281 94 c 4
50 183 m 4
 50 343 170 549 347 549 c 4
 414 549 455 524 479 470 c 5
 508 605 l 6
 526 693 570 729 657 729 c 4
 677 729 712 727 739 724 c 5
 715 612 l 5
 706 615 700 616 691 616 c 4
 661 616 648 605 641 574 c 6
 519 0 l 5
 379 0 l 5
 391 55 l 5
 344 2 292 -23 225 -23 c 4
 151 -23 50 18 50 183 c 4
EndSplineSet
Validated: 3073
EndChar

StartChar: uni0253
Encoding: 595 595 1001
Width: 611
Flags: HMW
TeX: 117 0
LayerCount: 2
Fore
SplineSet
400 432 m 4
 273 432 240 259 240 206 c 4
 240 137 272 94 328 94 c 4
 430 94 488 228 488 318 c 4
 488 387 455 432 400 432 c 4
630 342 m 4
 630 125 464 -23 334 -23 c 4
 266 -23 224 2 202 55 c 5
 190 0 l 5
 50 0 l 5
 179 605 l 6
 197 693 241 729 328 729 c 4
 348 729 382 727 410 724 c 5
 386 612 l 5
 377 615 371 616 362 616 c 4
 332 616 319 605 312 574 c 6
 290 470 l 5
 335 524 389 549 456 549 c 4
 530 549 630 508 630 342 c 4
EndSplineSet
Validated: 3073
EndChar

